SplineFontDB: 3.0
FontName: XITSMath
FullName: XITS Math
FamilyName: XITS Math
Weight: Regular
Copyright: Copyright (c) 2001-2011 by the STI Pub Companies, consisting of the American Chemical Society, the American Institute of Physics, the American Mathematical Society, the American Physical Society, Elsevier, Inc., and The Institute of Electrical and Electronic Engineers, Inc.  Portions copyright (c) 1998-2003 by MicroPress, Inc.  Portions copyright (c) 1990 by Elsevier, Inc.  Portions copyright (c) 2009-2012 by Khaled Hosny.  All rights reserved. 
Version: $version
ItalicAngle: 0
UnderlinePosition: -50
UnderlineWidth: 50
Ascent: 750
Descent: 250
LayerCount: 2
Layer: 0 0 "Back"  1
Layer: 1 0 "Fore"  0
XUID: [1021 862 584604386 11015597]
UniqueID: 4164958
FSType: 0
OS2Version: 4
OS2_WeightWidthSlopeOnly: 0
OS2_UseTypoMetrics: 1
CreationTime: 1227710265
PfmFamily: 81
TTFWeight: 400
TTFWidth: 5
LineGap: 0
VLineGap: 0
OS2TypoAscent: 750
OS2TypoAOffset: 0
OS2TypoDescent: -250
OS2TypoDOffset: 0
OS2TypoLinegap: 0
OS2WinAscent: 32
OS2WinAOffset: 1
OS2WinDescent: 12
OS2WinDOffset: 1
HheadAscent: 750
HheadAOffset: 0
HheadDescent: -250
HheadDOffset: 0
OS2SubXSize: 500
OS2SubYSize: 500
OS2SubXOff: 0
OS2SubYOff: 250
OS2SupXSize: 500
OS2SupYSize: 500
OS2SupXOff: 0
OS2SupYOff: 500
OS2StrikeYSize: 50
OS2StrikeYPos: 306
OS2Vendor: 'STIX'
Lookup: 1 0 0 "'rtlm' RTL mirrored math glyphs"  {"'rtlm' RTL mirrored math glyphs-1"  "'rtlm' RTL mirrored math glyphs-2" ("rtlm" ) } ['rtlm' ('DFLT' <'dflt' > 'latn' <'dflt' > 'math' <'dflt' > ) ]
Lookup: 1 0 0 "'dtls' Dotless Forms 2"  {"'dtls' Dotless Forms 2-1" ("dtls" ) } ['dtls' ('math' <'dflt' > ) ]
Lookup: 3 0 0 "'ssty' Script Style 4"  {"'ssty' Script Style 4-1"  } ['ssty' ('math' <'dflt' > ) ]
Lookup: 1 0 0 "'ss01' Calligraphic Math Alphabet"  {"'ss01' Calligraphic Math Alphabet-1" ("cal" ) } ['ss01' ('math' <'dflt' > 'DFLT' <'dflt' > 'latn' <'dflt' > ) ]

StartChar: .notdef
Encoding: 1114112 -1 0
Width: 250
Flags: W
HStem: 0 67<66 184> 618 66<66 184>
VStem: 0 66<67 618> 184 66<67 618>
LayerCount: 2
Fore
SplineSet
250 0 m 1
 0 0 l 1
 0 684 l 1
 250 684 l 1
 250 0 l 1
184 67 m 1
 184 618 l 1
 66 618 l 1
 66 67 l 1
 184 67 l 1
EndSplineSet
EndChar

StartChar: exclam
Encoding: 33 33 2
Width: 333
Flags: MW
HStem: -9 106<168 197.5 168 197.5> 656 20<164 200>
VStem: 130 106<28 57 27.5 58 594.5 619.5>
LayerCount: 2
Fore
SplineSet
175 176 m 1
 133 557 l 2
 131 577 130 589 130 600 c 0
 130 643 145 676 183 676 c 0
 217 676 236 644 236 595 c 0
 236 583 235 568 234 557 c 2
 189 176 l 1
 175 176 l 1
236 42 m 0
 236 13 213 -9 182 -9 c 0
 152 -9 130 13 130 43 c 0
 130 73 153 97 183 97 c 0
 212 97 236 72 236 42 c 0
EndSplineSet
EndChar

StartChar: quotedbl
Encoding: 34 34 3
Width: 408
Flags: MW
HStem: 656 20<107.5 132 276.5 301>
LayerCount: 2
Fore
SplineSet
299 431 m 1
 278 431 l 1
 260 529 246 616 246 633 c 0
 246 658 264 676 289 676 c 0
 313 676 331 658 331 635 c 0
 331 605 314 529 299 431 c 1
130 431 m 1
 109 431 l 1
 91 529 77 616 77 633 c 0
 77 659 95 676 120 676 c 0
 144 676 162 659 162 635 c 0
 162 605 150 527 130 431 c 1
EndSplineSet
EndChar

StartChar: numbersign
Encoding: 35 35 4
Width: 500
Flags: MW
HStem: 0 20 216 55<6 112 6 121 179 304 6 170 371 470> 405 55<33 142 33 150 33 200 208 333 399 495> 642 20<181 239 239 239 371 429 429 429>
LayerCount: 2
Fore
SplineSet
495 405 m 1
 391 405 l 1
 371 271 l 1
 470 271 l 1
 470 216 l 1
 362 216 l 1
 331 0 l 1
 273 0 l 1
 304 216 l 1
 170 216 l 1
 137 0 l 1
 79 0 l 1
 112 216 l 1
 6 216 l 1
 6 271 l 1
 121 271 l 1
 142 405 l 1
 33 405 l 1
 33 460 l 1
 150 460 l 1
 181 662 l 1
 239 662 l 1
 208 460 l 1
 341 460 l 1
 371 662 l 1
 429 662 l 1
 399 460 l 1
 495 460 l 1
 495 405 l 1
333 405 m 1
 200 405 l 1
 179 271 l 1
 313 271 l 1
 333 405 l 1
EndSplineSet
EndChar

StartChar: dollar
Encoding: 36 36 5
Width: 500
Flags: MW
HStem: 0 20
VStem: 52 74<510 557.5 510 563> 230 34<-87 0 -87 0 28 293 407 637 664 727> 378 80<112 177.5>
LayerCount: 2
Fore
SplineSet
264 637 m 1
 264 391 l 1
 385 326 410 301 437 260 c 0
 451 239 458 207 458 170 c 0
 458 54 379 16 264 0 c 1
 264 -87 l 1
 230 -87 l 1
 230 0 l 1
 143 0 99 14 44 51 c 1
 44 181 l 1
 59 181 l 1
 80 81 142 28 230 28 c 1
 230 310 l 1
 92 388 52 429 52 513 c 0
 52 613 137 658 230 664 c 1
 230 727 l 1
 264 727 l 1
 264 664 l 1
 345 659 394 642 425 611 c 1
 425 500 l 1
 410 500 l 1
 390 583 344 627 264 637 c 1
230 407 m 1
 230 637 l 1
 159 623 126 583 126 532 c 0
 126 488 146 464 230 407 c 1
264 293 m 1
 264 28 l 1
 345 45 378 76 378 147 c 0
 378 208 355 239 264 293 c 1
EndSplineSet
EndChar

StartChar: percent
Encoding: 37 37 6
Width: 747
Flags: MW
HStem: -19 27<513 563.5 513 565> 302 28<592 619> 326 27<172 195.5> 583 26<404 441 391.5 443.5> 656 20<203 264.5>
VStem: 61 71<424 450.5 402 519.5> 321 24<518 561 518 583.5> 401 72<80 110 56.5 172.5> 663 23<162 241>
LayerCount: 2
Fore
SplineSet
686 213 m 0xdf80
 686 92 608 -19 522 -19 c 0
 454 -19 401 41 401 119 c 0
 401 226 494 330 590 330 c 0
 651 330 686 287 686 213 c 0xdf80
663 215 m 0
 663 267 638 302 600 302 c 0
 584 302 563 293 551 279 c 0
 507 232 473 144 473 76 c 0
 473 37 497 8 529 8 c 0
 598 8 663 109 663 215 c 0
621 706 m 1
 191 -18 l 1
 144 -18 l 1
 538 640 l 1
 501 597 470 583 417 583 c 0
 391 583 373 586 341 597 c 1
 344 580 345 569 345 553 c 0
 345 483 313 408 265 363 c 0
 238 337 212 326 179 326 c 0x3780
 112 326 61 385 61 463 c 0
 61 576 152 676 254 676 c 0
 275 676 287 670 314 648 c 0
 349 619 373 609 410 609 c 0
 472 609 485 617 577 706 c 1
 621 706 l 1
321 569 m 0
 321 598 317 605 296 615 c 0
 282 622 269 631 252 649 c 1
 211 629 200 619 180 586 c 0
 149 537 132 478 132 423 c 0
 132 381 155 353 189 353 c 0
 260 353 321 454 321 569 c 0
EndSplineSet
EndChar

StartChar: ampersand
Encoding: 38 38 7
Width: 778
Flags: MW
HStem: -13 53<222.5 253.5> -13 71<612.5 632.5> 644 32<336.5 383>
VStem: 42 92<131.5 177.5> 202 79<535.5 571> 438 53<526.5 580.5>
LayerCount: 2
Fore
SplineSet
735 111 m 1x7c
 750 100 l 1
 721 27 666 -13 599 -13 c 0x7c
 541 -13 492 13 429 78 c 1
 354 12 294 -13 213 -13 c 0x9c
 106 -13 42 37 42 137 c 0
 42 218 97 296 199 355 c 2
 237 377 l 1
 209 445 202 481 202 526 c 0
 202 616 269 676 354 676 c 0
 433 676 491 631 491 552 c 0
 491 480 453 434 336 384 c 1
 377 296 412 241 468 178 c 1
 533 264 560 312 560 358 c 0
 560 388 545 400 495 405 c 1
 495 426 l 1
 711 426 l 1
 711 405 l 1
 661 405 642 386 617 346 c 0
 571 273 546 224 491 150 c 1
 538 89 582 58 643 58 c 0
 682 58 703 71 735 111 c 1x7c
438 556 m 0
 438 605 406 644 360 644 c 0
 313 644 281 611 281 561 c 0
 281 510 288 477 321 416 c 1
 407 455 438 497 438 556 c 0
404 104 m 1x9c
 346 172 306 230 252 343 c 1
 165 287 134 243 134 174 c 0
 134 89 187 40 258 40 c 0
 301 40 344 57 404 104 c 1x9c
EndSplineSet
EndChar

StartChar: quotesingle
Encoding: 39 39 8
Width: 180
Flags: MW
HStem: 656 20<79 104.5>
LayerCount: 2
Fore
SplineSet
101 431 m 1
 80 431 l 1
 62 529 48 606 48 634 c 0
 48 659 67 676 91 676 c 0
 118 676 133 659 133 636 c 0
 133 606 121 531 101 431 c 1
EndSplineSet
EndChar

StartChar: parenleft
Encoding: 40 40 9
Width: 333
Flags: MW
GlyphVariantsVertical: parenleft parenleft.size1 parenleft.size2 parenleft.size3 parenleft.size4
GlyphCompositionVertical: 3  uni239D%0,0,150,1005 uni239C%1,150,150,1010 uni239B%0,150,0,1005
HStem: 656 20<295 295>
VStem: 48 86<167 344.5>
LayerCount: 2
Fore
SplineSet
304 -161 m 1
 292 -177 l 1
 134 -87 48 82 48 252 c 0
 48 437 135 581 295 676 c 1
 304 660 l 1
 165 541 134 448 134 255 c 0
 134 69 164 -44 304 -161 c 1
EndSplineSet
EndChar

StartChar: parenright
Encoding: 41 41 10
Width: 333
Flags: MW
GlyphVariantsVertical: parenright parenright.size1 parenright.size2 parenright.size3 parenright.size4
GlyphCompositionVertical: 3  uni23A0%0,0,150,1005 uni239F%1,150,150,1010 uni239E%0,150,0,1005
HStem: 656 20<41 41>
VStem: 199 86<154.5 332 154.5 337.5>
LayerCount: 2
Fore
SplineSet
29 660 m 1
 41 676 l 1
 194 584 285 417 285 247 c 0
 285 62 197 -80 38 -177 c 1
 29 -161 l 1
 171 -44 199 50 199 244 c 0
 199 431 174 546 29 660 c 1
EndSplineSet
EndChar

StartChar: asterisk
Encoding: 42 42 11
Width: 500
Flags: MW
HStem: 656 20<241 261>
LayerCount: 2
Fore
SplineSet
268 471 m 1
 277 465 l 2
 304 447 336 437 373 431 c 0
 417 424 433 414 433 388 c 0
 433 366 418 349 397 349 c 0
 378 349 362 362 337 393 c 0
 310 426 288 438 268 451 c 2
 260 456 l 1
 260 447 l 2
 260 408 267 372 280 337 c 0
 285 323 289 311 289 304 c 0
 289 284 269 265 249 265 c 0
 230 265 213 282 213 301 c 0
 213 313 218 329 225 348 c 0
 237 380 241 404 241 447 c 2
 241 456 l 1
 206 434 199 429 189 420 c 0
 179 410 177 408 148 375 c 0
 131 356 121 350 105 350 c 0
 82 350 68 365 68 386 c 0
 68 412 86 423 131 431 c 0
 177 440 193 446 234 471 c 1
 196 494 171 501 137 508 c 0
 88 518 70 529 70 554 c 0
 70 575 83 591 103 591 c 0
 119 591 130 583 152 559 c 0
 184 523 203 507 241 486 c 1
 241 499 l 2
 241 526 236 557 226 590 c 0
 219 611 215 629 215 642 c 0
 215 661 231 676 251 676 c 0
 271 676 288 660 288 640 c 0
 288 628 284 613 277 593 c 0
 265 561 260 534 260 510 c 2
 260 486 l 1
 288 502 299 510 318 528 c 0
 342 552 373 593 395 593 c 0
 417 593 432 578 432 555 c 0
 432 529 419 518 380 512 c 0
 336 505 317 499 268 471 c 1
EndSplineSet
EndChar

StartChar: plus
Encoding: 43 43 12
Width: 685
Flags: MW
HStem: 220 66<48 309 48 309 375 636>
VStem: 309 66<-41 220 -41 220 286 547>
LayerCount: 2
Fore
SplineSet
636 220 m 1
 375 220 l 1
 375 -41 l 1
 309 -41 l 1
 309 220 l 1
 48 220 l 1
 48 286 l 1
 309 286 l 1
 309 547 l 1
 375 547 l 1
 375 286 l 1
 636 286 l 1
 636 220 l 1
EndSplineSet
EndChar

StartChar: comma
Encoding: 44 44 13
Width: 250
Flags: MW
HStem: -6 20 -2 20
VStem: 156 39<-15 -11.5>
LayerCount: 2
Fore
SplineSet
83 -141 m 1xa0
 73 -122 l 1
 128 -85 156 -48 156 -15 c 0
 156 -8 150 -2 142 -2 c 0x60
 134 -2 124 -6 113 -6 c 0
 76 -6 55 11 55 45 c 0
 55 79 79 102 115 102 c 0
 160 102 195 67 195 15 c 0
 195 -45 152 -108 83 -141 c 1xa0
EndSplineSet
EndChar

StartChar: hyphen
Encoding: 45 45 14
Width: 333
Flags: MW
HStem: 194 63<39 285 39 285>
LayerCount: 2
Fore
SplineSet
285 194 m 1
 39 194 l 1
 39 257 l 1
 285 257 l 1
 285 194 l 1
EndSplineSet
EndChar

StartChar: period
Encoding: 46 46 15
Width: 250
Flags: MW
HStem: -11 111<110.5 140>
VStem: 70 111<28.5 58 28.5 59.5>
LayerCount: 2
Fore
SplineSet
181 43 m 0
 181 14 155 -11 125 -11 c 0
 94 -11 70 13 70 44 c 0
 70 75 95 100 126 100 c 0
 155 100 181 73 181 43 c 0
EndSplineSet
EndChar

StartChar: slash
Encoding: 47 47 16
Width: 278
Flags: MW
GlyphVariantsVertical: slash slash.size1 slash.size2 slash.size3 slash.size4
HStem: -14 20 656 20<220 287 287 287>
LayerCount: 2
Fore
SplineSet
287 676 m 1
 59 -14 l 1
 -9 -14 l 1
 220 676 l 1
 287 676 l 1
EndSplineSet
EndChar

StartChar: zero
Encoding: 48 48 17
Width: 500
Flags: MW
HStem: -14 26<207 292.5 207 331.5> 650 26<206.5 292>
LayerCount: 2
Fore
SplineSet
476 330 m 0
 476 158 413 -14 250 -14 c 0
 79 -14 24 172 24 336 c 0
 24 513 93 676 254 676 c 0
 385 676 476 535 476 330 c 0
380 325 m 0
 380 533 336 650 248 650 c 0
 165 650 120 532 120 329 c 0
 120 126 164 12 250 12 c 0
 335 12 380 127 380 325 c 0
EndSplineSet
EndChar

StartChar: one
Encoding: 49 49 18
Width: 500
Flags: MW
HStem: 0 20 656 20<290 290>
VStem: 213 86<95 544 544 561>
LayerCount: 2
Fore
SplineSet
394 0 m 1
 118 0 l 1
 118 15 l 1
 192 19 213 40 213 95 c 2
 213 544 l 2
 213 578 204 593 183 593 c 0
 173 593 156 588 138 581 c 2
 111 571 l 1
 111 585 l 1
 290 676 l 1
 299 673 l 1
 299 76 l 2
 299 33 319 15 394 15 c 1
 394 0 l 1
EndSplineSet
EndChar

StartChar: two
Encoding: 50 50 19
Width: 500
Flags: MW
HStem: 0 76<130 364 364 385 130 420> 602 74<176.5 240.5>
VStem: 337 86<460.5 506.5>
LayerCount: 2
Fore
SplineSet
474 137 m 1
 420 0 l 1
 29 0 l 1
 29 12 l 1
 207 201 l 2
 301 300 337 376 337 461 c 0
 337 552 283 602 198 602 c 0
 126 602 91 570 51 472 c 1
 30 477 l 1
 51 594 115 676 238 676 c 0
 351 676 423 599 423 500 c 0
 423 421 384 346 295 252 c 2
 130 76 l 1
 364 76 l 2
 406 76 427 87 460 143 c 1
 474 137 l 1
EndSplineSet
EndChar

StartChar: three
Encoding: 51 51 20
Width: 500
Flags: MW
HStem: -14 36<116.5 266> 616 60<189 243>
VStem: 318 79<515 548> 359 72<192.5 213>
LayerCount: 2
Fore
SplineSet
61 510 m 1xe0
 45 514 l 1
 74 609 137 676 241 676 c 0
 334 676 397 621 397 539 c 0xe0
 397 491 371 441 304 401 c 1
 348 382 366 370 387 348 c 0
 415 317 431 271 431 219 c 0
 431 166 414 117 385 79 c 0
 337 15 242 -14 153 -14 c 0
 80 -14 41 7 41 43 c 0
 41 64 59 79 82 79 c 0
 99 79 115 73 143 53 c 0
 180 27 201 22 229 22 c 0
 303 22 359 90 359 175 c 0xd0
 359 251 324 300 255 320 c 0
 233 327 210 330 153 330 c 1
 153 344 l 1
 191 357 217 368 237 380 c 0
 286 408 318 453 318 514 c 0
 318 582 276 616 210 616 c 0
 148 616 102 584 61 510 c 1xe0
EndSplineSet
EndChar

StartChar: four
Encoding: 52 52 21
Width: 500
Flags: MW
HStem: 0 20 167 64<52 292 12 12 370 473> 656 20<326 370 370 370>
VStem: 292 78<0 167 0 167 231 574 574 574>
LayerCount: 2
Fore
SplineSet
473 167 m 1
 370 167 l 1
 370 0 l 1
 292 0 l 1
 292 167 l 1
 12 167 l 1
 12 231 l 1
 326 676 l 1
 370 676 l 1
 370 231 l 1
 473 231 l 1
 473 167 l 1
292 231 m 1
 292 574 l 1
 52 231 l 1
 292 231 l 1
EndSplineSet
EndChar

StartChar: five
Encoding: 53 53 22
Width: 500
Flags: MW
HStem: -14 37<120.5 256> 583 79<181 375 181 181>
VStem: 356 70<195 224>
LayerCount: 2
Fore
SplineSet
438 681 m 1
 402 596 l 2
 399 589 391 583 375 583 c 2
 181 583 l 1
 141 498 l 1
 284 471 334 449 391 370 c 0
 417 334 426 296 426 243 c 0
 426 147 396 85 328 35 c 0
 281 1 226 -14 158 -14 c 0
 83 -14 31 10 31 48 c 0
 31 73 48 86 76 86 c 0
 99 86 118 81 150 55 c 0
 178 32 201 23 221 23 c 0
 291 23 356 106 356 192 c 0
 356 256 334 306 289 342 c 0
 242 380 172 412 76 412 c 0
 67 412 64 414 64 420 c 0
 64 422 65 425 65 425 c 1
 174 662 l 1
 381 662 l 2
 404 662 413 667 429 688 c 1
 438 681 l 1
EndSplineSet
EndChar

StartChar: six
Encoding: 54 54 23
Width: 500
Flags: MW
HStem: -14 28<222 291> 382 46<257 289.5>
VStem: 34 93<244 312 190 333> 378 90<187 252>
LayerCount: 2
Fore
SplineSet
446 684 m 1
 448 668 l 1
 291 642 179 534 152 383 c 1
 201 421 235 428 279 428 c 0
 396 428 468 348 468 219 c 0
 468 155 450 99 417 59 c 0
 380 13 324 -14 258 -14 c 0
 179 -14 116 23 81 87 c 0
 53 138 34 209 34 279 c 0
 34 387 72 482 143 555 c 0
 229 645 308 669 446 684 c 1
378 188 m 0
 378 316 336 382 243 382 c 0
 186 382 127 358 127 266 c 0
 127 114 175 14 269 14 c 0
 341 14 378 86 378 188 c 0
EndSplineSet
EndChar

StartChar: seven
Encoding: 55 55 24
Width: 500
Flags: MW
HStem: -8 20 588 74<126 155 155 370>
LayerCount: 2
Fore
SplineSet
449 646 m 1
 237 -8 l 1
 172 -8 l 1
 370 588 l 1
 155 588 l 2
 97 588 80 574 38 506 c 1
 20 515 l 1
 80 662 l 1
 449 662 l 1
 449 646 l 1
EndSplineSet
EndChar

StartChar: eight
Encoding: 56 56 25
Width: 500
Flags: MW
HStem: -14 28<221 291.5 221 308> 648 28<212.5 280>
VStem: 56 76<112 183.5> 62 74<518 568> 355 69<502 567.5> 369 76<103.5 155>
LayerCount: 2
Fore
SplineSet
445 155 m 0xc4
 445 52 368 -14 248 -14 c 0
 135 -14 56 55 56 149 c 0xe4
 56 218 79 257 186 332 c 1
 83 417 62 455 62 520 c 0
 62 616 145 676 256 676 c 0
 355 676 424 611 424 533 c 0xd8
 424 458 389 424 290 371 c 1
 413 289 445 235 445 155 c 0xc4
355 533 m 0xd8
 355 602 314 648 246 648 c 0
 179 648 136 611 136 549 c 0
 136 487 173 441 261 389 c 1
 329 429 355 471 355 533 c 0xd8
271 272 m 2xe4
 212 312 l 1
 153 264 132 223 132 158 c 0
 132 66 183 14 259 14 c 0
 324 14 369 59 369 124 c 0
 369 186 339 226 271 272 c 2xe4
EndSplineSet
EndChar

StartChar: nine
Encoding: 57 57 26
Width: 500
Flags: MW
HStem: 237 43<207.5 239.5> 648 28<215 270 178.5 273.5>
VStem: 30 92<414.5 501 414.5 507.5>
LayerCount: 2
Fore
SplineSet
59 -22 m 1
 56 -2 l 1
 208 25 320 130 360 294 c 1
 317 252 269 237 210 237 c 0
 102 237 30 318 30 440 c 0
 30 575 119 676 238 676 c 0
 302 676 356 648 395 600 c 0
 435 550 459 478 459 394 c 0
 459 279 419 170 339 97 c 0
 254 20 189 -4 59 -22 c 1
362 355 m 2
 362 394 l 2
 362 562 317 648 230 648 c 0
 200 648 174 636 157 614 c 0
 137 587 122 528 122 474 c 0
 122 355 170 280 245 280 c 0
 289 280 362 302 362 355 c 2
EndSplineSet
EndChar

StartChar: colon
Encoding: 58 58 27
Width: 278
Flags: MW
HStem: -11 111<122 152> 348 111<122 152>
VStem: 81 111<29 59 29 60 388 418>
LayerCount: 2
Fore
SplineSet
192 403 m 0
 192 373 167 348 137 348 c 0
 107 348 81 373 81 403 c 0
 81 435 105 459 137 459 c 0
 167 459 192 433 192 403 c 0
192 44 m 0
 192 14 167 -11 137 -11 c 0
 107 -11 81 14 81 44 c 0
 81 76 105 100 137 100 c 0
 167 100 192 74 192 44 c 0
EndSplineSet
EndChar

StartChar: semicolon
Encoding: 59 59 28
Width: 278
Flags: MW
HStem: -6 20 -2 20 348 111<121 151>
VStem: 80 111<388 418 388 419> 180 39<-18.5 -12.5>
LayerCount: 2
Fore
SplineSet
191 403 m 0xb0
 191 373 166 348 136 348 c 0
 106 348 80 373 80 403 c 0
 80 435 104 459 136 459 c 0
 166 459 191 433 191 403 c 0xb0
107 -141 m 1xa8
 97 -122 l 1
 152 -86 180 -49 180 -16 c 0
 180 -9 174 -2 166 -2 c 0x48
 160 -2 147 -6 138 -6 c 0
 101 -6 80 13 80 46 c 0xb0
 80 79 106 102 139 102 c 0
 184 102 219 67 219 13 c 0
 219 -50 177 -108 107 -141 c 1xa8
EndSplineSet
EndChar

StartChar: less
Encoding: 60 60 29
Width: 685
Flags: W
LayerCount: 2
Fore
SplineSet
621 -24 m 1
 56 249 l 1
 56 259 l 1
 621 534 l 1
 621 469 l 1
 189 254 l 1
 621 39 l 1
 621 -24 l 1
EndSplineSet
EndChar

StartChar: equal
Encoding: 61 61 30
Width: 685
Flags: MW
HStem: 120 66<48 637 48 637> 320 66<48 637 48 637>
LayerCount: 2
Fore
SplineSet
637 320 m 1
 48 320 l 1
 48 386 l 1
 637 386 l 1
 637 320 l 1
637 120 m 1
 48 120 l 1
 48 186 l 1
 637 186 l 1
 637 120 l 1
EndSplineSet
EndChar

StartChar: greater
Encoding: 62 62 31
Width: 685
Flags: W
LayerCount: 2
Fore
SplineSet
621 249 m 1
 56 -24 l 1
 56 39 l 1
 488 254 l 1
 56 469 l 1
 56 534 l 1
 621 259 l 1
 621 249 l 1
EndSplineSet
EndChar

StartChar: question
Encoding: 63 63 32
Width: 444
Flags: MW
HStem: -8 106<222.5 252 222.5 253> 447 20<102 128.5> 646 30<189 243.5>
VStem: 68 51<565.5 574.5> 184 106<31 59 30.5 60> 322 92<498 562.5>
LayerCount: 2
Fore
SplineSet
244 164 m 1
 227 164 l 1
 228 204 236 254 271 341 c 0
 297 405 322 468 322 528 c 0
 322 597 274 646 213 646 c 0
 165 646 119 616 119 584 c 0
 119 547 157 543 157 510 c 0
 157 485 141 467 116 467 c 0
 88 467 68 492 68 533 c 0
 68 616 136 676 232 676 c 0
 329 676 414 615 414 518 c 0
 414 457 395 423 309 321 c 0
 273 278 255 232 244 164 c 1
290 45 m 0
 290 16 268 -8 238 -8 c 0
 204 -8 184 17 184 45 c 0
 184 75 207 98 238 98 c 0
 266 98 290 73 290 45 c 0
EndSplineSet
EndChar

StartChar: at
Encoding: 64 64 33
Width: 921
Flags: MW
HStem: -14 39<401.5 517> 143 33<628.5 674.5> 144 43<384.5 465.5> 464 44<511.5 533 489 540.5> 645 31<438 560.5>
VStem: 116 84<235 359 235 384> 321 71<247 288.5> 769 40<322.5 447.5>
LayerCount: 2
Fore
SplineSet
688 73 m 1xdf
 700 43 l 1
 607 -1 552 -14 482 -14 c 0
 274 -14 116 130 116 327 c 0
 116 441 173 544 257 607 c 0
 319 653 395 676 481 676 c 0
 666 676 809 548 809 383 c 0
 809 254 724 143 625 143 c 0xcf
 581 143 541 172 536 216 c 1
 534 216 l 1
 503 171 456 144 409 144 c 0x27
 360 144 321 187 321 256 c 0
 321 321 348 387 387 438 c 0
 422 484 463 508 515 508 c 0
 551 508 575 491 588 456 c 1
 590 456 l 1
 599 494 l 1
 668 494 l 1
 603 240 l 2
 602 235 601 230 601 223 c 0
 601 190 614 176 643 176 c 0
 709 176 769 272 769 373 c 0
 769 522 639 645 482 645 c 0
 387 645 313 603 262 530 c 0
 223 474 200 396 200 322 c 0
 200 148 316 25 487 25 c 0
 554 25 616 38 688 73 c 1xdf
572 404 m 0x37
 572 443 555 464 526 464 c 0
 497 464 459 440 428 394 c 0
 406 361 392 318 392 274 c 0
 392 220 415 187 452 187 c 0
 479 187 508 209 528 245 c 0
 554 294 572 359 572 404 c 0x37
EndSplineSet
EndChar

StartChar: A
Encoding: 65 65 34
Width: 722
Flags: MW
TopAccentHorizontal: 361
TopRightVertex: 2  275,-100 400,-150
BottomRightVertex: 1  0,50
HStem: 0 20 216 41<216 447 216 461 199 447> 654 20<347 367 367 367>
LayerCount: 2
Fore
SplineSet
707 0 m 1
 452 0 l 1
 452 19 l 1
 488 19 495 21 507 28 c 0
 515 32 521 43 521 52 c 0
 521 67 514 94 502 122 c 2
 461 216 l 1
 199 216 l 1
 153 102 l 2
 148 89 144 72 144 60 c 0
 144 29 166 19 214 19 c 1
 214 0 l 1
 15 0 l 1
 15 19 l 1
 73 25 82 46 141 186 c 2
 347 674 l 1
 367 674 l 1
 613 111 l 2
 641 46 655 25 707 19 c 1
 707 0 l 1
447 257 m 1
 331 532 l 1
 216 257 l 1
 447 257 l 1
EndSplineSet
EndChar

StartChar: B
Encoding: 66 66 35
Width: 667
Flags: MW
TopAccentHorizontal: 305
HStem: 0 37<254 319 254 354> 625 37<230.5 239 239 280>
LayerCount: 2
Fore
SplineSet
422 349 m 1
 422 348 l 1
 488 337 515 319 544 293 c 0
 576 264 593 222 593 178 c 0
 593 67 499 0 354 0 c 2
 17 0 l 1
 17 19 l 1
 96 21 113 37 113 113 c 2
 113 550 l 2
 113 629 98 638 17 643 c 1
 17 662 l 1
 297 662 l 2
 470 662 559 601 559 495 c 0
 559 454 543 413 518 391 c 0
 494 370 474 362 422 349 c 1
215 366 m 1
 307 366 l 2
 408 366 457 407 457 490 c 0
 457 574 399 625 280 625 c 2
 239 625 l 2
 222 625 215 616 215 593 c 2
 215 366 l 1
215 326 m 1
 215 82 l 2
 215 48 231 37 277 37 c 0
 361 37 396 41 440 80 c 0
 465 102 478 136 478 179 c 0
 478 227 464 264 431 286 c 0
 371 326 333 322 215 326 c 1
EndSplineSet
EndChar

StartChar: C
Encoding: 67 67 36
Width: 667
Flags: MW
TopAccentHorizontal: 360
HStem: -14 44<359.5 419> 636 40<314.5 380.5 314.5 416.5>
LayerCount: 2
Fore
SplineSet
614 131 m 1
 633 113 l 1
 575 30 478 -14 360 -14 c 0
 269 -14 182 18 124 75 c 0
 63 135 28 226 28 325 c 0
 28 425 61 508 118 572 c 0
 182 643 268 676 361 676 c 0
 400 676 440 672 480 661 c 0
 501 655 532 643 549 643 c 0
 568 643 585 655 591 676 c 1
 611 676 l 1
 620 449 l 1
 597 449 l 1
 585 504 570 533 545 560 c 0
 501 607 449 636 384 636 c 0
 233 636 144 514 144 341 c 0
 144 231 169 153 216 102 c 0
 260 55 325 30 394 30 c 0
 484 30 539 60 614 131 c 1
EndSplineSet
EndChar

StartChar: D
Encoding: 68 68 37
Width: 722
Flags: MW
TopAccentHorizontal: 350
HStem: 0 37<234.5 297> 625 37<240 286 286 309>
LayerCount: 2
Fore
SplineSet
16 662 m 1
 286 662 l 2
 415 662 518 630 586 571 c 0
 651 515 685 437 685 334 c 0
 685 215 638 121 549 64 c 0
 487 24 398 0 297 0 c 2
 16 0 l 1
 16 19 l 1
 94 24 104 37 104 115 c 2
 104 550 l 2
 104 629 92 638 16 643 c 1
 16 662 l 1
206 583 m 2
 206 84 l 2
 206 49 215 37 254 37 c 0
 357 37 412 49 472 89 c 0
 542 136 576 215 576 328 c 0
 576 432 544 501 481 556 c 0
 422 608 359 625 259 625 c 0
 221 625 206 616 206 583 c 2
EndSplineSet
EndChar

StartChar: E
Encoding: 69 69 38
Width: 611
Flags: MW
TopAccentHorizontal: 304
HStem: 0 37<302 338 338 409.5> 327 41<201 352 201 352> 624 38<222 236 236 367>
LayerCount: 2
Fore
SplineSet
597 169 m 1
 551 0 l 1
 12 0 l 1
 12 19 l 1
 89 24 99 37 99 114 c 2
 99 550 l 2
 99 624 87 639 12 643 c 1
 12 662 l 1
 542 662 l 1
 546 519 l 1
 521 519 l 1
 506 609 483 624 367 624 c 2
 236 624 l 2
 208 624 201 620 201 588 c 2
 201 368 l 1
 352 368 l 2
 438 368 453 385 465 464 c 1
 488 464 l 1
 488 230 l 1
 465 230 l 1
 453 314 438 327 352 327 c 2
 201 327 l 1
 201 84 l 2
 201 42 228 37 302 37 c 2
 338 37 l 2
 481 37 524 63 569 169 c 1
 597 169 l 1
EndSplineSet
EndChar

StartChar: F
Encoding: 70 70 39
Width: 556
Flags: MW
TopAccentHorizontal: 294
TopRightVertex: 1  275,50
BottomRightVertex: 1  0,-150
HStem: 0 20 327 41<201 343 201 343> 624 38<220.5 235 235 367>
LayerCount: 2
Fore
SplineSet
546 519 m 1
 521 519 l 1
 506 608 488 624 367 624 c 2
 235 624 l 2
 206 624 201 616 201 585 c 2
 201 368 l 1
 343 368 l 2
 427 368 447 385 456 463 c 1
 479 463 l 1
 479 230 l 1
 456 230 l 1
 448 312 429 327 343 327 c 2
 201 327 l 1
 201 112 l 2
 201 36 215 23 292 19 c 1
 292 0 l 1
 11 0 l 1
 11 19 l 1
 87 24 99 36 99 123 c 2
 99 551 l 2
 99 624 89 637 12 643 c 1
 12 662 l 1
 541 662 l 1
 546 519 l 1
EndSplineSet
EndChar

StartChar: G
Encoding: 71 71 40
Width: 722
Flags: MW
TopAccentHorizontal: 376
HStem: -14 40<334 436.5> 636 40<355.5 405 329.5 418>
LayerCount: 2
Fore
SplineSet
709 354 m 1
 709 336 l 1
 651 331 639 321 639 256 c 2
 639 56 l 1
 584 11 488 -14 385 -14 c 0
 283 -14 181 24 115 93 c 0
 59 152 32 229 32 327 c 0
 32 437 72 529 139 590 c 0
 199 645 281 676 378 676 c 0
 432 676 466 668 511 653 c 0
 530 646 545 643 555 643 c 0
 576 643 594 657 600 676 c 1
 622 676 l 1
 630 465 l 1
 607 465 l 1
 582 526 566 552 536 581 c 0
 498 617 446 636 390 636 c 0
 321 636 266 611 223 567 c 0
 170 514 146 423 146 324 c 0
 146 138 252 26 409 26 c 0
 486 26 542 54 542 87 c 2
 542 244 l 2
 542 322 532 330 453 336 c 1
 453 354 l 1
 709 354 l 1
EndSplineSet
EndChar

StartChar: H
Encoding: 72 72 41
Width: 722
Flags: MW
TopAccentHorizontal: 360
HStem: 0 20 315 44<209 512 209 512> 642 20<18 298 298 298 423 703 703 703>
LayerCount: 2
Fore
SplineSet
703 0 m 1
 424 0 l 1
 424 19 l 1
 502 24 512 40 512 124 c 2
 512 315 l 1
 209 315 l 1
 209 113 l 2
 209 40 222 23 296 19 c 1
 297 0 l 1
 18 0 l 1
 18 19 l 1
 96 24 107 36 107 122 c 2
 107 548 l 2
 107 626 95 637 18 643 c 1
 18 662 l 1
 298 662 l 1
 298 643 l 1
 225 637 209 626 209 548 c 2
 209 359 l 1
 512 359 l 1
 512 548 l 2
 512 627 499 637 423 643 c 1
 423 662 l 1
 703 662 l 1
 703 643 l 1
 629 637 614 625 614 548 c 2
 614 111 l 2
 614 40 628 25 703 19 c 1
 703 0 l 1
EndSplineSet
EndChar

StartChar: I
Encoding: 73 73 42
Width: 333
Flags: MW
TopAccentHorizontal: 166
HStem: 0 20 642 20<18 315 315 315>
LayerCount: 2
Fore
SplineSet
315 0 m 1
 18 0 l 1
 18 19 l 1
 102 22 115 34 115 112 c 2
 115 551 l 2
 115 630 103 638 18 643 c 1
 18 662 l 1
 315 662 l 1
 315 643 l 1
 231 639 217 627 217 551 c 2
 217 112 l 2
 217 37 233 22 315 19 c 1
 315 0 l 1
EndSplineSet
EndChar

StartChar: J
Encoding: 74 74 43
Width: 373
Flags: MW
TopAccentHorizontal: 214
HStem: -14 38<113 138.5 113 148> 642 20<67 354 354 354>
LayerCount: 2
Fore
SplineSet
354 662 m 1
 354 643 l 1
 273 637 262 626 262 549 c 2
 262 185 l 2
 262 48 201 -14 95 -14 c 0
 35 -14 -6 11 -6 58 c 0
 -6 84 16 110 43 110 c 0
 66 110 81 96 92 68 c 0
 102 43 103 24 123 24 c 0
 154 24 160 44 160 94 c 2
 160 550 l 2
 160 631 148 636 67 643 c 1
 67 662 l 1
 354 662 l 1
EndSplineSet
EndChar

StartChar: K
Encoding: 75 75 44
Width: 722
Flags: MW
TopAccentHorizontal: 368
HStem: 0 20<447 447 447 723> 642 20<441 441>
LayerCount: 2
Fore
SplineSet
723 0 m 1
 420 0 l 1
 420 19 l 1
 447 20 l 2
 476 21 489 30 489 44 c 0
 489 71 431 132 352 214 c 2
 252 317 l 1
 226 296 l 1
 226 111 l 2
 226 34 242 25 315 19 c 1
 315 0 l 1
 33 0 l 1
 33 19 l 1
 112 23 124 38 124 125 c 2
 124 549 l 2
 124 623 113 638 34 643 c 1
 34 662 l 1
 316 662 l 1
 316 643 l 1
 233 637 226 625 226 548 c 2
 226 348 l 1
 404 512 l 2
 452 557 482 586 482 611 c 0
 482 631 474 641 441 642 c 2
 416 643 l 1
 416 662 l 1
 675 662 l 1
 675 643 l 1
 607 638 588 628 519 562 c 2
 333 384 l 1
 567 128 l 2
 650 37 677 19 723 19 c 1
 723 0 l 1
EndSplineSet
EndChar

StartChar: L
Encoding: 76 76 45
Width: 611
Flags: MW
TopAccentHorizontal: 151
TopRightVertex: 1  275,-150
BottomRightVertex: 1  0,50
HStem: 0 39<291 361 361 401.5> 642 20<12 295 295 295>
LayerCount: 2
Fore
SplineSet
598 174 m 1
 550 0 l 1
 12 0 l 1
 12 19 l 1
 86 23 99 39 99 115 c 2
 99 546 l 2
 99 623 90 637 12 643 c 1
 12 662 l 1
 295 662 l 1
 295 643 l 1
 213 638 201 625 201 548 c 2
 201 84 l 2
 201 46 218 39 291 39 c 2
 361 39 l 2
 442 39 496 57 530 100 c 0
 543 117 556 139 572 174 c 1
 598 174 l 1
EndSplineSet
EndChar

StartChar: M
Encoding: 77 77 46
Width: 889
Flags: MW
TopAccentHorizontal: 438
HStem: 0 20 642 20<14 212 212 212 664 863 863 863>
VStem: 109 44<151 549>
LayerCount: 2
Fore
SplineSet
864 0 m 1
 584 0 l 1
 584 19 l 1
 663 24 674 40 674 123 c 2
 674 572 l 1
 419 0 l 1
 405 0 l 1
 153 549 l 1
 153 151 l 2
 153 41 169 23 246 19 c 1
 246 0 l 1
 12 0 l 1
 12 19 l 1
 95 25 109 39 109 151 c 2
 109 549 l 2
 109 625 96 638 14 643 c 1
 14 662 l 1
 212 662 l 1
 443 160 l 1
 664 662 l 1
 863 662 l 1
 863 643 l 1
 791 642 776 625 776 550 c 2
 776 112 l 2
 776 41 791 24 864 19 c 1
 864 0 l 1
EndSplineSet
EndChar

StartChar: N
Encoding: 78 78 47
Width: 722
Flags: MW
TopAccentHorizontal: 360
HStem: -11 20 0 20 642 20<12 182 182 182 470 707 707 707>
VStem: 109 44<150 538> 568 44<179 507 -11 519 -11 544.5>
LayerCount: 2
Fore
SplineSet
707 662 m 1x78
 707 643 l 1
 669 639 654 636 641 625 c 0
 622 608 612 586 612 507 c 2
 612 -11 l 1
 594 -11 l 1xb8
 153 538 l 1
 153 150 l 2
 153 47 169 30 246 19 c 1
 246 0 l 1
 12 0 l 1
 12 19 l 1
 94 28 109 43 109 150 c 2
 109 590 l 1
 76 631 61 643 12 643 c 1
 12 662 l 1
 182 662 l 1
 568 179 l 1
 568 519 l 2
 568 570 564 600 549 617 c 0
 532 636 514 638 470 643 c 1
 470 662 l 1
 707 662 l 1x78
EndSplineSet
EndChar

StartChar: O
Encoding: 79 79 48
Width: 722
Flags: MW
TopAccentHorizontal: 361
HStem: -14 36<339 387 339 457> 640 36<333 383.5>
LayerCount: 2
Fore
SplineSet
688 331 m 0
 688 125 553 -14 361 -14 c 0
 167 -14 34 126 34 334 c 0
 34 537 166 676 361 676 c 0
 557 676 688 529 688 331 c 0
574 337 m 0
 574 451 540 545 483 593 c 0
 447 623 407 640 360 640 c 0
 306 640 256 618 217 573 c 0
 174 524 148 427 148 332 c 0
 148 213 177 123 238 67 c 0
 272 36 316 22 362 22 c 0
 412 22 456 37 491 70 c 0
 546 123 574 217 574 337 c 0
EndSplineSet
EndChar

StartChar: P
Encoding: 80 80 49
Width: 557
Flags: MW
TopAccentHorizontal: 279
TopRightVertex: 1  275,50
BottomRightVertex: 1  0,-150
HStem: 0 20 288 40<258 318 253 324.5> 625 37<222.5 275 275 305>
LayerCount: 2
Fore
SplineSet
16 662 m 1
 275 662 l 2
 375 662 447 637 492 599 c 0
 525 571 542 530 542 480 c 0
 542 427 522 382 485 349 c 0
 427 297 378 288 271 288 c 0
 245 288 229 289 202 291 c 1
 202 112 l 2
 202 36 215 23 296 19 c 1
 296 0 l 1
 16 0 l 1
 16 19 l 1
 94 25 100 36 100 122 c 2
 100 551 l 2
 100 625 90 637 16 643 c 1
 16 662 l 1
202 589 m 2
 202 331 l 1
 225 329 243 328 263 328 c 0
 373 328 433 385 433 475 c 0
 433 585 373 625 237 625 c 0
 208 625 202 616 202 589 c 2
EndSplineSet
EndChar

StartChar: Q
Encoding: 81 81 50
Width: 722
Flags: MW
TopAccentHorizontal: 358
HStem: 640 36<331 381.5>
LayerCount: 2
Fore
SplineSet
701 -177 m 1
 653 -177 l 2
 497 -177 374 -139 306 -53 c 2
 265 -1 l 1
 187 26 148 49 110 100 c 0
 62 164 34 242 34 332 c 0
 34 544 174 676 361 676 c 0
 552 676 688 540 688 333 c 0
 688 214 653 134 580 64 c 0
 536 21 494 6 426 -7 c 1
 499 -111 587 -152 701 -159 c 1
 701 -177 l 1
574 338 m 0
 574 453 540 547 483 595 c 0
 447 625 405 640 358 640 c 0
 304 640 251 614 214 569 c 0
 174 522 148 430 148 335 c 0
 148 239 168 153 206 100 c 1
 239 52 304 22 361 22 c 0
 423 22 473 51 510 94 c 0
 550 140 574 238 574 338 c 0
EndSplineSet
EndChar

StartChar: R
Encoding: 82 82 51
Width: 667
Flags: MW
TopAccentHorizontal: 272
HStem: 0 20 625 37<238 289 289 317>
LayerCount: 2
Fore
SplineSet
660 0 m 1
 498 0 l 1
 260 308 l 1
 204 306 l 1
 204 112 l 2
 204 36 216 24 293 19 c 1
 293 0 l 1
 17 0 l 1
 17 19 l 1
 92 25 102 36 102 124 c 2
 102 551 l 2
 102 625 94 637 17 643 c 1
 17 662 l 1
 289 662 l 2
 384 662 455 638 498 603 c 0
 531 576 547 527 547 483 c 0
 547 396 491 338 366 319 c 1
 566 66 l 2
 595 29 616 23 660 19 c 1
 660 0 l 1
204 583 m 2
 204 343 l 1
 300 345 335 352 381 377 c 0
 417 397 438 441 438 491 c 0
 438 581 379 625 255 625 c 0
 221 625 204 618 204 583 c 2
EndSplineSet
EndChar

StartChar: S
Encoding: 83 83 52
Width: 556
Flags: MW
TopAccentHorizontal: 267
HStem: -14 36<266 306 223.5 345> 0 20<114.5 127.5> 635 41<227 265.5 195.5 288> 642 20
VStem: 71 86<506 555.5>
LayerCount: 2
Fore
SplineSet
469 463 m 1x28
 444 463 l 1
 432 507 421 533 403 557 c 0
 368 602 318 635 258 635 c 0
 196 635 157 595 157 540 c 0
 157 472 231 430 336 369 c 0
 442 307 491 249 491 173 c 0
 491 61 403 -14 287 -14 c 0xa8
 245 -14 206 -7 169 9 c 0
 150 17 133 20 122 20 c 0x48
 107 20 94 8 94 -13 c 1
 72 -13 l 1
 43 199 l 1
 65 199 l 1
 111 78 176 22 271 22 c 0
 341 22 390 68 390 134 c 0
 390 169 380 192 361 213 c 0
 326 251 257 295 193 329 c 0
 103 377 71 439 71 501 c 0
 71 610 146 676 245 676 c 0xa8
 286 676 312 670 350 654 c 0
 368 646 384 642 394 642 c 0x18
 411 642 422 654 426 676 c 1
 447 676 l 1
 469 463 l 1x28
EndSplineSet
EndChar

StartChar: T
Encoding: 84 84 53
Width: 611
Flags: MW
TopAccentHorizontal: 305
TopRightVertex: 1  275,50
BottomRightVertex: 1  0,-100
HStem: 0 20 620 42<141 194 194 254 356 415 356 356>
LayerCount: 2
Fore
SplineSet
593 492 m 1
 569 492 l 1
 547 602 521 620 415 620 c 2
 356 620 l 1
 356 111 l 2
 356 35 370 23 452 19 c 1
 452 0 l 1
 160 0 l 1
 160 19 l 1
 243 24 254 35 254 123 c 2
 254 620 l 1
 194 620 l 2
 88 620 61 602 41 492 c 1
 17 492 l 1
 24 662 l 1
 586 662 l 1
 593 492 l 1
EndSplineSet
EndChar

StartChar: U
Encoding: 85 85 54
Width: 722
Flags: MW
TopAccentHorizontal: 390
HStem: -14 44<349.5 401> 642 20<14 297 297 297 473 705 705 705>
VStem: 567 44<250 261 261 513 513 516>
LayerCount: 2
Fore
SplineSet
705 662 m 1
 705 643 l 1
 621 635 611 611 611 516 c 2
 611 261 l 2
 611 164 602 110 557 59 c 0
 515 11 447 -14 355 -14 c 0
 282 -14 226 1 185 32 c 0
 130 73 104 143 104 249 c 2
 104 559 l 2
 104 626 93 637 14 643 c 1
 14 662 l 1
 297 662 l 1
 297 643 l 1
 217 636 206 624 206 549 c 2
 206 237 l 2
 206 159 210 114 250 75 c 0
 279 47 321 30 378 30 c 0
 442 30 498 52 530 89 c 1
 563 129 567 169 567 250 c 2
 567 513 l 2
 567 616 554 638 473 643 c 1
 473 662 l 1
 705 662 l 1
EndSplineSet
EndChar

StartChar: V
Encoding: 86 86 55
Width: 722
Flags: MW
TopAccentHorizontal: 388
BottomRightVertex: 1  0,-150
HStem: -11 20 642 20<16 281 281 281 493 697 697 697>
LayerCount: 2
Fore
SplineSet
697 662 m 1
 697 643 l 1
 657 642 634 626 605 552 c 2
 383 -11 l 1
 368 -11 l 1
 124 533 l 2
 81 630 66 642 16 643 c 1
 16 662 l 1
 281 662 l 1
 281 643 l 1
 253 641 l 2
 221 639 208 630 208 610 c 0
 208 594 217 570 247 503 c 2
 399 161 l 1
 546 530 l 2
 558 560 565 585 565 602 c 0
 565 641 533 639 493 643 c 1
 493 662 l 1
 697 662 l 1
EndSplineSet
EndChar

StartChar: W
Encoding: 87 87 56
Width: 944
Flags: MW
TopAccentHorizontal: 456
TopRightVertex: 1  275,50
BottomRightVertex: 1  0,-150
HStem: -11 20 642 20<5 249 249 249 314 579 579 579 735 932 932 932>
LayerCount: 2
Fore
SplineSet
932 662 m 1
 932 643 l 1
 879 633 868 625 849 573 c 0
 740 279 730 250 645 -11 c 1
 630 -11 l 1
 579 131 522 279 470 412 c 1
 316 -11 l 1
 301 -11 l 1
 240 169 168 355 109 523 c 0
 76 618 56 642 5 643 c 1
 5 662 l 1
 249 662 l 1
 249 643 l 1
 198 642 185 633 185 612 c 0
 185 600 189 584 196 565 c 2
 340 189 l 1
 444 472 l 1
 416 547 l 2
 383 635 371 642 314 643 c 1
 314 662 l 1
 579 662 l 1
 579 643 l 1
 529 642 502 629 502 608 c 0
 502 597 510 574 519 550 c 2
 662 186 l 1
 788 525 l 2
 799 556 805 581 805 602 c 0
 805 629 786 642 735 643 c 1
 735 662 l 1
 932 662 l 1
EndSplineSet
EndChar

StartChar: X
Encoding: 88 88 57
Width: 722
Flags: MW
TopAccentHorizontal: 397
HStem: 0 20 642 20<294 294>
LayerCount: 2
Fore
SplineSet
704 0 m 1
 408 0 l 1
 408 19 l 1
 434 21 l 2
 466 23 484 32 484 50 c 0
 484 66 467 97 433 148 c 2
 338 289 l 1
 219 140 l 2
 182 94 166 66 166 51 c 0
 166 32 184 23 242 19 c 1
 242 0 l 1
 10 0 l 1
 10 19 l 1
 62 24 78 36 155 133 c 2
 311 328 l 1
 205 483 l 2
 109 624 88 636 22 643 c 1
 22 662 l 1
 323 662 l 1
 323 643 l 1
 294 642 l 2
 266 641 248 636 248 613 c 0
 248 584 278 546 331 468 c 2
 375 404 l 1
 487 544 l 2
 517 581 527 596 527 611 c 0
 527 634 513 641 459 643 c 1
 459 662 l 1
 696 662 l 1
 696 643 l 1
 632 639 607 622 544 544 c 2
 401 367 l 1
 593 93 l 2
 632 37 651 25 704 19 c 1
 704 0 l 1
EndSplineSet
EndChar

StartChar: Y
Encoding: 89 89 58
Width: 722
Flags: MW
TopAccentHorizontal: 396
BottomRightVertex: 1  0,-150
HStem: 0 20 642 20<277 277>
LayerCount: 2
Fore
SplineSet
703 662 m 1
 703 643 l 1
 644 638 621 617 565 531 c 2
 417 303 l 1
 417 111 l 2
 417 33 436 23 520 19 c 1
 520 0 l 1
 214 0 l 1
 214 19 l 1
 303 25 315 34 315 123 c 2
 315 294 l 1
 184 486 l 2
 92 621 70 641 22 643 c 1
 22 662 l 1
 301 662 l 1
 301 643 l 1
 277 642 l 2
 245 641 230 632 230 616 c 0
 230 603 237 585 248 569 c 2
 394 348 l 1
 539 570 l 2
 549 585 553 601 553 612 c 0
 552 634 537 642 485 643 c 1
 485 662 l 1
 703 662 l 1
EndSplineSet
EndChar

StartChar: Z
Encoding: 90 90 59
Width: 612
Flags: MW
TopAccentHorizontal: 304
HStem: 0 38<146 398 398 426 146 573> 624 38<197.5 233 233 447>
LayerCount: 2
Fore
SplineSet
598 176 m 1
 573 0 l 1
 10 0 l 1
 10 15 l 1
 447 624 l 1
 233 624 l 2
 162 624 123 613 99 589 c 0
 74 563 68 546 58 491 c 1
 32 491 l 1
 53 662 l 1
 578 662 l 1
 578 647 l 1
 146 38 l 1
 398 38 l 2
 454 38 490 48 515 66 c 0
 548 89 557 117 575 176 c 1
 598 176 l 1
EndSplineSet
EndChar

StartChar: bracketleft
Encoding: 91 91 60
Width: 333
Flags: MW
GlyphVariantsVertical: bracketleft bracketleft.size1 bracketleft.size2 bracketleft.size3 bracketleft.size4
GlyphCompositionVertical: 3  uni23A3%0,0,950,1005 uni23A2%1,500,500,1010 uni23A1%0,950,0,1005
HStem: -156 25<216 299 216 299> 637 25<199 216 216 299>
VStem: 88 76<-97 -77 -77 589>
LayerCount: 2
Fore
SplineSet
299 -156 m 1
 88 -156 l 1
 88 662 l 1
 299 662 l 1
 299 637 l 1
 216 637 l 2
 182 637 164 625 164 589 c 2
 164 -77 l 2
 164 -117 183 -131 216 -131 c 2
 299 -131 l 1
 299 -156 l 1
EndSplineSet
EndChar

StartChar: backslash
Encoding: 92 92 61
Width: 278
Flags: MW
GlyphVariantsVertical: backslash backslash.size1 backslash.size2 backslash.size3 backslash.size4
HStem: -14 20 656 20<-9 58 58 58>
LayerCount: 2
Fore
SplineSet
287 -14 m 1
 219 -14 l 1
 -9 676 l 1
 58 676 l 1
 287 -14 l 1
EndSplineSet
EndChar

StartChar: bracketright
Encoding: 93 93 62
Width: 333
Flags: MW
GlyphVariantsVertical: bracketright bracketright.size1 bracketright.size2 bracketright.size3 bracketright.size4
GlyphCompositionVertical: 3  uni23A6%0,0,950,1005 uni23A5%1,500,500,1010 uni23A4%0,950,0,1005
HStem: -156 25<34 122 122 139.5 34 245 34 122> 637 25<34 118 34 245>
VStem: 169 76<-85 583 583 600.5>
LayerCount: 2
Fore
SplineSet
245 -156 m 1
 34 -156 l 1
 34 -131 l 1
 122 -131 l 2
 157 -131 169 -116 169 -85 c 2
 169 583 l 2
 169 618 156 637 118 637 c 2
 34 637 l 1
 34 662 l 1
 245 662 l 1
 245 -156 l 1
EndSplineSet
EndChar

StartChar: asciicircum
Encoding: 94 94 63
Width: 469
Flags: MW
HStem: 642 20<205 265 265 265>
LayerCount: 2
Fore
SplineSet
446 297 m 1
 378 297 l 1
 235 586 l 1
 92 297 l 1
 24 297 l 1
 205 662 l 1
 265 662 l 1
 446 297 l 1
EndSplineSet
EndChar

StartChar: underscore
Encoding: 95 95 64
Width: 500
Flags: MW
HStem: -125 50<0 500 0 500>
LayerCount: 2
Fore
SplineSet
500 -125 m 1
 0 -125 l 1
 0 -75 l 1
 500 -75 l 1
 500 -125 l 1
EndSplineSet
EndChar

StartChar: grave
Encoding: 96 96 65
Width: 333
Flags: MW
HStem: 658 20<43 61.5>
LayerCount: 2
Fore
SplineSet
242 507 m 1
 202 507 l 1
 48 603 l 2
 29 615 18 630 18 646 c 0
 18 667 32 678 54 678 c 0
 69 678 80 673 97 655 c 2
 242 507 l 1
EndSplineSet
EndChar

StartChar: a
Encoding: 97 97 66
Width: 444
Flags: MW
TopAccentHorizontal: 222
HStem: -10 57<333.5 407> -10 58<111 204> 436 24<199.5 231.5>
VStem: 37 88<98.5 120> 56 83<336.5 400.5> 287 81<63 113 127 268 268 268 292 304>
LayerCount: 2
Fore
SplineSet
442 66 m 1xac
 442 38 l 1
 412 0 386 -10 352 -10 c 0x94
 315 -10 293 10 288 63 c 1
 287 63 l 1
 234 3 185 -10 142 -10 c 0
 80 -10 37 28 37 94 c 0x54
 37 146 68 185 107 211 c 0
 137 231 174 250 287 292 c 1
 287 346 l 2
 287 408 254 436 209 436 c 0
 169 436 139 414 139 387 c 0
 139 369 145 366 145 345 c 0
 145 326 125 304 99 304 c 0
 78 304 56 323 56 350 c 0
 56 376 72 408 107 430 c 0
 135 448 177 460 222 460 c 0
 278 460 316 444 340 415 c 0
 364 386 368 365 368 304 c 2
 368 113 l 2
 368 67 381 47 399 47 c 0
 415 47 425 52 442 66 c 1xac
287 127 m 2
 287 268 l 1
 225 246 184 225 159 202 c 0
 135 180 125 156 125 125 c 0
 125 72 155 48 194 48 c 0x54
 214 48 235 53 252 64 c 0
 281 84 287 98 287 127 c 2
EndSplineSet
EndChar

StartChar: b
Encoding: 98 98 67
Width: 500
Flags: MW
TopAccentHorizontal: 112
HStem: -10 32<224 269.5 224 300> 397 63<257.5 270>
VStem: 69 84<58 74 74 318 376 566 566 591> 380 88<168 227>
LayerCount: 2
Fore
SplineSet
153 681 m 1
 153 376 l 1
 174 427 227 460 288 460 c 0
 395 460 468 364 468 240 c 0
 468 92 366 -10 234 -10 c 0
 153 -10 69 22 69 56 c 2
 69 566 l 2
 69 616 61 624 20 624 c 0
 13 624 8 623 3 622 c 1
 3 639 l 1
 33 648 l 2
 80 662 106 668 148 683 c 1
 153 681 l 1
153 318 m 2
 153 74 l 2
 153 42 198 22 250 22 c 0
 289 22 321 37 343 65 c 0
 367 95 380 139 380 197 c 0
 380 257 366 315 341 350 c 0
 320 380 288 397 252 397 c 0
 199 397 153 360 153 318 c 2
EndSplineSet
EndChar

StartChar: c
Encoding: 99 99 68
Width: 444
Flags: MW
TopAccentHorizontal: 244
HStem: -10 72<211 236.5> 431 29<220.5 256>
VStem: 25 77<199.5 253.5>
LayerCount: 2
Fore
SplineSet
398 156 m 1
 412 147 l 1
 380 85 360 56 330 32 c 0
 296 4 258 -10 215 -10 c 0
 104 -10 25 83 25 212 c 0
 25 295 55 364 109 409 c 0
 149 442 197 460 244 460 c 0
 328 460 398 413 398 357 c 0
 398 334 377 315 351 315 c 0
 329 315 311 332 303 361 c 2
 297 383 l 2
 287 420 274 431 238 431 c 0
 157 431 102 361 102 257 c 0
 102 142 165 62 257 62 c 0
 314 62 350 86 398 156 c 1
EndSplineSet
EndChar

StartChar: d
Encoding: 100 100 69
Width: 500
Flags: MW
TopAccentHorizontal: 367
HStem: -10 52<209 240> 432 28<200 255 177.5 265>
VStem: 27 86<183.5 276> 340 84<-7 114 57 114 102 114 114 332 332 358.5 417 573 573 593.5>
LayerCount: 2
Fore
SplineSet
491 42 m 1
 344 -10 l 1
 340 -7 l 1
 340 57 l 1
 306 10 268 -10 212 -10 c 0
 101 -10 27 77 27 205 c 0
 27 347 120 460 235 460 c 0
 275 460 302 449 340 417 c 1
 340 573 l 2
 340 614 331 624 294 624 c 0
 286 624 280 624 272 623 c 1
 272 639 l 1
 336 656 371 666 419 683 c 1
 424 681 l 1
 424 114 l 2
 424 68 432 57 468 57 c 0
 473 57 474 57 491 58 c 1
 491 42 l 1
340 102 m 2
 340 332 l 2
 340 385 292 432 238 432 c 0
 162 432 113 358 113 245 c 0
 113 122 167 42 251 42 c 0
 282 42 307 53 325 74 c 0
 334 84 340 95 340 102 c 2
EndSplineSet
EndChar

StartChar: e
Encoding: 101 101 70
Width: 444
Flags: MW
TopAccentHorizontal: 224
HStem: -10 69<231 265> 277 32<99 303 99 405 97 303> 424 36<177 238>
LayerCount: 2
Fore
SplineSet
408 164 m 1
 424 157 l 1
 385 48 315 -10 215 -10 c 0
 97 -10 25 79 25 217 c 0
 25 358 106 460 232 460 c 0
 294 460 339 436 371 391 c 0
 391 363 401 331 405 277 c 1
 97 277 l 1
 102 201 107 162 143 114 c 0
 171 77 208 59 254 59 c 0
 321 59 359 90 408 164 c 1
99 309 m 1
 303 309 l 1
 292 390 271 424 205 424 c 0
 149 424 110 384 99 309 c 1
EndSplineSet
EndChar

StartChar: f
Encoding: 102 102 71
Width: 333
Flags: MW
ItalicCorrection: 100
TopAccentHorizontal: 264
HStem: 0 20 418 32<21 103 21 103 187 309> 655 28<247.5 254>
VStem: 103 84<104 418>
LayerCount: 2
Fore
SplineSet
21 450 m 1
 103 450 l 1
 104 530 112 566 138 611 c 0
 164 656 216 683 279 683 c 0
 339 683 383 657 383 621 c 0
 383 598 365 580 341 580 c 0
 324 580 312 589 296 616 c 0
 278 645 265 655 243 655 c 0
 205 655 187 625 187 566 c 2
 187 450 l 1
 309 450 l 1
 309 418 l 1
 187 418 l 1
 187 104 l 2
 187 29 198 18 280 15 c 1
 280 0 l 1
 20 0 l 1
 20 15 l 1
 92 19 103 31 103 104 c 2
 103 418 l 1
 21 418 l 1
 21 450 l 1
EndSplineSet
EndChar

StartChar: g
Encoding: 103 103 72
Width: 500
Flags: MW
TopAccentHorizontal: 233
HStem: -218 57<199 237> 149 25<247 267.5> 388 39<393 470 393 470 387 470> 432 28<203 241.5>
VStem: 28 70<-110 -102.5> 329 77<278 284.5> 433 28<-69 -45.5>
LayerCount: 2
Fore
SplineSet
470 388 m 1
 387 388 l 1
 401 356 406 333 406 304 c 0
 406 252 390 215 354 188 c 0
 322 164 285 149 250 149 c 0
 244 149 230 150 212 152 c 2
 193 154 l 1
 166 146 133 111 133 91 c 0
 133 75 157 67 211 64 c 2
 340 58 l 2
 414 55 461 13 461 -49 c 0
 461 -89 442 -122 401 -154 c 0
 349 -194 273 -218 201 -218 c 0
 105 -218 28 -174 28 -121 c 0
 28 -84 54 -51 126 1 c 1
 84 21 73 32 73 54 c 0
 73 74 86 94 119 123 c 0
 134 136 148 149 162 163 c 1
 95 196 69 234 69 297 c 0
 69 388 143 460 236 460 c 0
 262 460 289 455 316 445 c 2
 338 437 l 2
 358 430 373 427 393 427 c 2
 470 427 l 1
 470 388 l 1
152 338 m 2
 152 335 l 2
 152 239 193 174 255 174 c 0
 300 174 329 209 329 264 c 0
 329 305 318 350 299 385 c 0
 283 415 257 432 226 432 c 0
 180 432 152 397 152 338 c 2
433 -64 m 0
 433 -27 400 -15 309 -15 c 0
 260 -15 181 -9 147 -2 c 1
 107 -50 98 -65 98 -88 c 0
 98 -132 155 -161 243 -161 c 0
 357 -161 433 -122 433 -64 c 0
EndSplineSet
EndChar

StartChar: h
Encoding: 104 104 73
Width: 500
Flags: MW
TopAccentHorizontal: 116
HStem: 0 20 406 54<274.5 293.5>
VStem: 73 84<102 343 376 573 573 594.5> 343 84<102 300 300 301>
LayerCount: 2
Fore
SplineSet
487 0 m 1
 275 0 l 1
 275 15 l 1
 333 21 343 33 343 102 c 2
 343 300 l 2
 343 370 318 406 269 406 c 0
 229 406 199 389 157 343 c 1
 157 102 l 2
 157 33 167 21 225 15 c 1
 225 0 l 1
 9 0 l 1
 9 15 l 1
 67 23 73 32 73 102 c 2
 73 573 l 2
 73 616 65 624 22 624 c 0
 18 624 13 624 10 623 c 1
 10 639 l 1
 37 647 l 2
 94 664 117 671 152 683 c 1
 157 680 l 1
 157 376 l 1
 203 436 245 460 304 460 c 0
 386 460 427 406 427 301 c 2
 427 102 l 2
 427 33 433 25 487 15 c 1
 487 0 l 1
EndSplineSet
EndChar

StartChar: i
Encoding: 105 105 74
Width: 278
Flags: MW
TopAccentHorizontal: 132
HStem: 0 20 581 102<115 143>
VStem: 78 102<617.5 646> 95 84<104 105 105 331 331 354.5>
LayerCount: 2
Fore
SplineSet
180 632 m 0xe0
 180 603 158 581 128 581 c 0
 100 581 78 603 78 632 c 0
 78 660 101 683 129 683 c 0
 158 683 180 660 180 632 c 0xe0
253 0 m 1xd0
 16 0 l 1
 16 15 l 1
 85 19 95 28 95 104 c 2
 95 331 l 2
 95 378 87 394 62 394 c 0
 53 394 38 394 20 389 c 1
 20 405 l 1
 175 460 l 1
 179 456 l 1
 179 105 l 2
 179 31 187 20 253 15 c 1
 253 0 l 1xd0
EndSplineSet
Substitution2: "'dtls' Dotless Forms 2-1" dotlessi
EndChar

StartChar: j
Encoding: 106 106 75
Width: 278
Flags: MW
TopAccentHorizontal: 144
HStem: -218 34<53.5 68 53.5 78.5> 0 20 581 102<129 157 129 157>
VStem: 92 102<617.5 646> 109 84<-45 0 0 334 334 355.5>
LayerCount: 2
Fore
SplineSet
194 632 m 0xf0
 194 603 172 581 142 581 c 0
 114 581 92 603 92 632 c 0
 92 660 115 683 143 683 c 0
 171 683 194 660 194 632 c 0xf0
193 457 m 1xe8
 193 0 l 2
 193 -142 134 -218 23 -218 c 0
 -31 -218 -70 -195 -70 -163 c 0
 -70 -141 -52 -124 -29 -124 c 0
 -13 -124 1 -133 19 -156 c 0
 36 -177 46 -184 61 -184 c 0
 75 -184 89 -176 95 -166 c 0
 106 -146 109 -121 109 -45 c 2
 109 334 l 2
 109 377 100 394 77 394 c 0
 67 394 53 394 37 391 c 2
 32 390 l 1
 32 406 l 1
 91 424 129 437 188 460 c 1
 193 457 l 1xe8
EndSplineSet
Substitution2: "'dtls' Dotless Forms 2-1" uni0237
EndChar

StartChar: k
Encoding: 107 107 76
Width: 500
Flags: MW
TopAccentHorizontal: 116
HStem: 0 20 430 20<276 480 480 480>
VStem: 82 84<82 251 261 564 564 588>
LayerCount: 2
Fore
SplineSet
505 0 m 1
 287 0 l 1
 287 15 l 1
 306 15 l 2
 318 15 327 21 327 30 c 0
 327 35 324 43 316 53 c 2
 166 251 l 1
 166 67 l 2
 166 32 181 18 221 16 c 2
 241 15 l 1
 241 0 l 1
 7 0 l 1
 7 15 l 1
 79 27 82 30 82 82 c 2
 82 564 l 2
 82 612 73 625 39 625 c 0
 29 625 20 624 7 623 c 1
 7 639 l 1
 37 647 l 2
 97 663 123 671 162 683 c 1
 166 681 l 1
 166 261 l 1
 303 383 l 2
 317 396 326 409 326 418 c 0
 326 431 315 435 276 436 c 1
 276 450 l 1
 480 450 l 1
 480 435 l 1
 416 435 387 423 264 309 c 2
 235 282 l 1
 388 88 l 2
 429 36 461 18 505 15 c 1
 505 0 l 1
EndSplineSet
EndChar

StartChar: l
Encoding: 108 108 77
Width: 278
Flags: MW
TopAccentHorizontal: 138
HStem: 0 20
VStem: 98 84<92 561 561 585>
LayerCount: 2
Fore
SplineSet
257 0 m 1
 21 0 l 1
 21 15 l 1
 84 20 98 37 98 92 c 2
 98 561 l 2
 98 609 88 625 56 625 c 0
 48 625 35 625 19 623 c 1
 19 639 l 1
 88 656 125 666 177 683 c 1
 182 679 l 1
 182 87 l 2
 182 32 193 19 257 15 c 1
 257 0 l 1
EndSplineSet
EndChar

StartChar: m
Encoding: 109 109 78
Width: 778
Flags: MW
TopAccentHorizontal: 396
HStem: 0 20 408 52<298.5 310.5 561 573.5>
VStem: 86 84<88 336 336 348> 354 84<86 95 95 297 297 331.5> 622 84<90 280>
CounterMasks: 1 38
LayerCount: 2
Fore
SplineSet
775 0 m 1
 557 0 l 1
 557 15 l 1
 613 21 622 32 622 90 c 2
 622 296 l 2
 622 375 602 408 545 408 c 0
 498 408 468 390 438 347 c 1
 438 95 l 2
 438 30 453 16 510 15 c 1
 510 0 l 1
 286 0 l 1
 286 15 l 1
 343 19 354 25 354 86 c 2
 354 297 l 2
 354 366 332 408 289 408 c 0
 252 408 203 389 183 365 c 0
 176 357 170 350 170 348 c 2
 170 70 l 2
 170 27 185 17 238 15 c 1
 238 0 l 1
 16 0 l 1
 16 15 l 1
 72 16 86 30 86 88 c 2
 86 336 l 2
 86 385 77 402 51 402 c 0
 40 402 32 401 19 398 c 1
 19 415 l 1
 74 430 107 441 158 460 c 1
 166 457 l 1
 166 383 l 1
 168 383 l 1
 234 451 276 460 321 460 c 0
 375 460 409 433 427 376 c 1
 481 434 532 460 590 460 c 0
 671 460 706 398 706 280 c 2
 706 77 l 2
 706 32 719 19 749 17 c 2
 775 15 l 1
 775 0 l 1
EndSplineSet
EndChar

StartChar: n
Encoding: 110 110 79
Width: 500
Flags: MW
TopAccentHorizontal: 250
HStem: 0 20 405 55<283 291.5>
VStem: 80 84<94 337 337 348> 340 84<105 304 304 306>
LayerCount: 2
Fore
SplineSet
485 0 m 1
 277 0 l 1
 278 15 l 1
 328 19 340 39 340 105 c 2
 340 304 l 2
 340 375 316 405 267 405 c 0
 234 405 210 393 164 348 c 1
 164 72 l 2
 164 33 178 19 229 15 c 1
 229 0 l 1
 18 0 l 1
 18 15 l 1
 69 19 80 35 80 94 c 2
 80 337 l 2
 80 386 73 402 45 402 c 0
 34 402 23 401 16 398 c 1
 16 415 l 1
 71 431 104 442 153 460 c 1
 161 457 l 1
 161 379 l 1
 162 379 l 1
 214 438 260 460 306 460 c 0
 382 460 424 405 424 306 c 2
 424 85 l 2
 424 31 436 20 485 15 c 1
 485 0 l 1
EndSplineSet
EndChar

StartChar: o
Encoding: 111 111 80
Width: 500
Flags: MW
TopAccentHorizontal: 250
HStem: -10 28<244 299 244 312.5> 432 28<200.5 256.5>
VStem: 29 90<233.5 297.5> 380 90<161.5 238>
LayerCount: 2
Fore
SplineSet
470 231 m 0
 470 92 380 -10 245 -10 c 0
 124 -10 29 89 29 228 c 0
 29 367 119 460 254 460 c 0
 376 460 470 369 470 231 c 0
380 204 m 0
 380 272 362 341 330 382 c 0
 306 412 278 432 235 432 c 0
 166 432 119 373 119 273 c 0
 119 194 135 122 172 68 c 0
 194 36 226 18 262 18 c 0
 336 18 380 88 380 204 c 0
EndSplineSet
EndChar

StartChar: p
Encoding: 112 112 81
Width: 500
Flags: MW
TopAccentHorizontal: 238
HStem: -10 32<239.5 299 239.5 319.5> 400 60<275 298>
VStem: 75 84<-131 -124 -124 33 73 88 88 334> 384 86<174.5 265.5>
LayerCount: 2
Fore
SplineSet
159 458 m 1
 159 381 l 1
 203 436 247 460 303 460 c 0
 400 460 470 371 470 247 c 0
 470 102 379 -10 260 -10 c 0
 218 -10 195 0 159 33 c 1
 159 -124 l 2
 159 -187 172 -198 247 -199 c 1
 247 -217 l 1
 5 -217 l 1
 5 -200 l 1
 64 -194 75 -183 75 -131 c 2
 75 337 l 2
 75 384 68 394 34 394 c 0
 25 394 18 394 9 393 c 1
 9 409 l 1
 64 426 100 439 153 460 c 1
 159 458 l 1
159 334 m 2
 159 88 l 2
 159 58 216 22 263 22 c 0
 335 22 384 97 384 207 c 0
 384 324 335 400 261 400 c 0
 215 400 159 364 159 334 c 2
EndSplineSet
EndChar

StartChar: q
Encoding: 113 113 82
Width: 500
Flags: MW
TopAccentHorizontal: 256
HStem: -10 61<137 257> 431 29<205.5 264 182 279>
VStem: 24 86<206.5 277> 341 84<-124 64 64 64 127 333 333 366>
LayerCount: 2
Fore
SplineSet
488 -217 m 1
 252 -217 l 1
 252 -200 l 1
 323 -195 341 -180 341 -124 c 2
 341 64 l 1
 297 16 242 -10 184 -10 c 0
 90 -10 24 79 24 205 c 0
 24 349 120 460 244 460 c 0
 284 460 314 452 360 425 c 1
 414 457 l 1
 425 457 l 1
 425 -141 l 2
 425 -183 435 -194 488 -200 c 1
 488 -217 l 1
341 127 m 2
 341 333 l 2
 341 399 310 431 248 431 c 0
 163 431 110 359 110 241 c 0
 110 172 132 107 166 78 c 0
 186 60 212 51 241 51 c 0
 273 51 307 63 329 83 c 0
 337 90 341 104 341 127 c 2
EndSplineSet
EndChar

StartChar: r
Encoding: 114 114 83
Width: 333
Flags: MW
ItalicCorrection: 60
TopAccentHorizontal: 170
HStem: 0 20 440 20<155 155 259 297>
VStem: 76 84<84 90 90 315>
LayerCount: 2
Fore
SplineSet
160 458 m 1
 160 366 l 1
 210 438 238 460 280 460 c 0
 314 460 335 440 335 407 c 0
 335 379 320 362 296 362 c 0
 283 362 272 367 256 382 c 0
 245 392 236 397 230 397 c 0
 202 397 160 347 160 315 c 2
 160 90 l 2
 160 33 177 18 245 15 c 1
 245 0 l 1
 5 0 l 1
 5 15 l 1
 69 27 76 34 76 84 c 2
 76 334 l 2
 76 378 67 394 42 394 c 0
 30 394 21 393 7 390 c 1
 7 406 l 1
 66 425 102 439 155 460 c 1
 160 458 l 1
EndSplineSet
EndChar

StartChar: s
Encoding: 115 115 84
Width: 389
Flags: MW
TopAccentHorizontal: 200
HStem: -10 22<197.5 220.5 160.5 246> 437 22<166.5 201 148 218>
VStem: 51 62<358 375.5> 278 70<81.5 101.5>
LayerCount: 2
Fore
SplineSet
156 301 m 2
 260 238 l 2
 324 199 348 172 348 115 c 0
 348 48 284 -10 208 -10 c 0
 187 -10 158 -9 135 -1 c 0
 111 7 100 8 89 8 c 0
 77 8 71 6 65 -4 c 1
 52 -4 l 1
 52 153 l 1
 68 153 l 1
 89 56 126 12 195 12 c 0
 246 12 278 45 278 86 c 0
 278 117 258 143 225 161 c 2
 171 191 l 2
 88 237 51 285 51 336 c 0
 51 415 107 459 189 459 c 0
 213 459 235 458 256 448 c 0
 267 443 277 440 284 440 c 0
 288 440 292 441 300 450 c 1
 311 450 l 1
 316 314 l 1
 301 314 l 1
 278 404 248 437 188 437 c 0
 145 437 113 416 113 369 c 0
 113 347 128 318 156 301 c 2
EndSplineSet
EndChar

StartChar: t
Encoding: 116 116 85
Width: 278
Flags: MW
ItalicCorrection: 60
TopAccentHorizontal: 116
HStem: -10 52<129 217> 418 32<154 255 154 255>
VStem: 70 84<117 132 132 418>
LayerCount: 2
Fore
SplineSet
266 77 m 1
 279 66 l 1
 246 14 208 -10 158 -10 c 0
 100 -10 70 33 70 117 c 2
 70 418 l 1
 17 418 l 1
 14 420 13 422 13 425 c 0
 13 431 19 437 30 444 c 0
 56 459 89 496 127 551 c 0
 133 560 141 569 147 579 c 1
 152 579 154 576 154 566 c 2
 154 450 l 1
 255 450 l 1
 255 418 l 1
 154 418 l 1
 154 132 l 2
 154 68 169 42 206 42 c 0
 228 42 244 51 266 77 c 1
EndSplineSet
EndChar

StartChar: u
Encoding: 117 117 86
Width: 500
Flags: MW
TopAccentHorizontal: 234
HStem: -10 58<206.5 211.5> 430 20<9 155 155 155 259 417 417 417>
VStem: 71 84<118 127 127 369 369 394> 333 84<137 368 368 394.5>
LayerCount: 2
Fore
SplineSet
480 50 m 1
 480 36 l 1
 429 22 393 11 343 -9 c 1
 338 -6 l 1
 338 76 l 1
 336 76 l 1
 287 9 230 -10 193 -10 c 0
 116 -10 71 41 71 118 c 2
 71 369 l 2
 71 419 57 433 9 436 c 1
 9 450 l 1
 155 450 l 1
 155 127 l 2
 155 81 187 48 226 48 c 0
 255 48 285 57 310 79 c 0
 326 93 333 102 333 137 c 2
 333 368 l 2
 333 421 319 429 259 433 c 1
 259 450 l 1
 417 450 l 1
 417 107 l 2
 417 61 428 50 474 50 c 2
 480 50 l 1
EndSplineSet
EndChar

StartChar: v
Encoding: 118 118 87
Width: 500
Flags: MW
TopAccentHorizontal: 276
HStem: -14 20 430 20<19 215 215 215 338 477 477 477>
LayerCount: 2
Fore
SplineSet
477 450 m 1
 477 435 l 1
 447 432 439 424 412 357 c 2
 284 36 l 2
 269 -1 262 -14 256 -14 c 0
 250 -14 245 -6 238 12 c 0
 235 17 234 24 230 33 c 2
 110 320 l 2
 67 423 57 433 19 435 c 1
 19 450 l 1
 215 450 l 1
 215 435 l 1
 181 432 169 425 169 408 c 0
 169 398 172 385 178 370 c 2
 280 114 l 1
 379 373 l 2
 383 383 385 393 385 403 c 0
 385 422 370 432 338 435 c 1
 338 450 l 1
 477 450 l 1
EndSplineSet
EndChar

StartChar: w
Encoding: 119 119 88
Width: 722
Flags: MW
TopAccentHorizontal: 358
HStem: -14 20 430 20<21 201 201 201 262 465 465 465 571 694 694 694>
LayerCount: 2
Fore
SplineSet
694 450 m 1
 694 435 l 1
 674 428 669 421 653 381 c 2
 515 35 l 2
 499 -5 494 -14 487 -14 c 0
 480 -14 478 -9 463 29 c 2
 372 265 l 1
 260 25 l 2
 248 -1 240 -14 235 -14 c 0
 229 -14 221 -1 209 30 c 2
 74 372 l 2
 53 426 44 433 21 435 c 1
 21 450 l 1
 201 450 l 1
 201 435 l 1
 166 431 155 423 155 402 c 0
 155 392 157 382 161 372 c 2
 260 111 l 1
 351 310 l 1
 331 366 l 2
 312 420 299 431 262 435 c 1
 262 450 l 1
 465 450 l 1
 465 435 l 1
 418 428 407 421 407 400 c 0
 407 383 412 371 424 340 c 2
 508 116 l 1
 598 338 l 2
 609 365 615 389 615 405 c 0
 615 421 605 428 571 435 c 1
 571 450 l 1
 694 450 l 1
EndSplineSet
EndChar

StartChar: x
Encoding: 120 120 89
Width: 500
Flags: MW
TopAccentHorizontal: 254
HStem: 0 20 430 20<24 231 231 231 275 433 433 433>
LayerCount: 2
Fore
SplineSet
479 0 m 1
 278 0 l 1
 278 15 l 1
 311 17 318 21 318 39 c 0
 318 46 316 51 312 57 c 2
 221 197 l 1
 142 74 l 2
 128 52 122 40 122 33 c 0
 122 20 133 15 162 15 c 1
 162 0 l 1
 17 0 l 1
 17 15 l 1
 50 18 62 25 90 66 c 2
 204 231 l 1
 110 375 l 2
 79 422 63 435 33 435 c 2
 24 435 l 1
 24 450 l 1
 231 450 l 1
 231 435 l 1
 201 434 188 428 188 413 c 0
 188 400 205 367 234 324 c 0
 239 317 244 311 248 304 c 1
 258 317 268 333 278 348 c 0
 300 383 315 401 315 413 c 0
 315 427 305 433 275 435 c 1
 275 450 l 1
 433 450 l 1
 433 435 l 1
 401 434 371 418 352 391 c 2
 269 271 l 1
 397 75 l 2
 425 32 448 15 479 15 c 1
 479 0 l 1
EndSplineSet
EndChar

StartChar: y
Encoding: 121 121 90
Width: 500
Flags: MW
ItalicCorrection: 20
TopAccentHorizontal: 284
HStem: -218 84<78.5 158> 430 20<14 219 219 219 342 475 475 475>
LayerCount: 2
Fore
SplineSet
475 450 m 1
 475 435 l 1
 451 432 439 421 425 384 c 2
 275 -25 l 2
 223 -167 176 -218 100 -218 c 0
 57 -218 30 -193 30 -160 c 0
 30 -135 49 -114 73 -114 c 0
 91 -114 107 -117 125 -127 c 0
 136 -133 145 -134 151 -134 c 0
 165 -134 185 -114 201 -90 c 0
 221 -61 241 2 241 18 c 0
 241 33 218 79 199 119 c 2
 67 401 l 2
 57 423 40 432 14 436 c 1
 14 450 l 1
 219 450 l 1
 219 435 l 1
 176 433 162 426 162 408 c 0
 162 397 169 381 175 367 c 2
 287 117 l 1
 384 393 l 2
 387 400 388 407 388 411 c 0
 388 427 373 435 342 435 c 1
 342 450 l 1
 475 450 l 1
EndSplineSet
EndChar

StartChar: z
Encoding: 122 122 91
Width: 444
Flags: MW
TopAccentHorizontal: 246
HStem: 0 30<134 267 267 296 134 403> 420 30<126.5 158 158 293>
LayerCount: 2
Fore
SplineSet
418 136 m 1
 403 0 l 1
 27 0 l 1
 27 15 l 1
 293 420 l 1
 158 420 l 2
 95 420 80 405 71 332 c 1
 53 332 l 1
 57 450 l 1
 403 450 l 1
 403 435 l 1
 134 30 l 1
 267 30 l 2
 325 30 359 40 373 57 c 0
 387 74 390 90 400 140 c 1
 418 136 l 1
EndSplineSet
EndChar

StartChar: braceleft
Encoding: 123 123 92
Width: 480
Flags: MW
GlyphVariantsVertical: braceleft braceleft.size1 braceleft.size2 braceleft.size3 braceleft.size4
GlyphCompositionVertical: 5  uni23A9%0,0,600,1005 uni23AA%1,600,200,1010 uni23A8%0,200,200,1010 uni23AA%1,200,600,1010 uni23A7%0,600,0,1005
HStem: 660 20<350 350>
VStem: 185 74<-41 121 363 378 378 541 541 546>
LayerCount: 2
Fore
SplineSet
350 -170 m 1
 350 -181 l 1
 283 -180 257 -174 229 -156 c 0
 201 -138 185 -97 185 -41 c 2
 185 136 l 2
 185 205 167 229 100 250 c 1
 167 270 185 293 185 363 c 2
 185 541 l 2
 185 598 200 637 229 655 c 0
 258 673 284 679 350 680 c 1
 350 669 l 1
 281 651 259 621 259 546 c 2
 259 378 l 2
 259 295 240 269 165 249 c 1
 240 230 259 204 259 121 c 2
 259 -47 l 2
 259 -122 281 -152 350 -170 c 1
EndSplineSet
EndChar

StartChar: bar
Encoding: 124 124 93
Width: 320
Flags: MW
GlyphVariantsVertical: bar bar.size1 bar.size2 bar.size3 bar.size4
GlyphCompositionVertical: 2  bar%0,0,400,879 bar%1,400,0,879
VStem: 127 66<-189 690>
LayerCount: 2
Fore
SplineSet
193 -189 m 1
 127 -189 l 1
 127 690 l 1
 193 690 l 1
 193 -189 l 1
EndSplineSet
EndChar

StartChar: braceright
Encoding: 125 125 94
Width: 480
Flags: MW
GlyphVariantsVertical: braceright braceright.size1 braceright.size2 braceright.size3 braceright.size4
GlyphCompositionVertical: 5  uni23AD%0,0,600,1005 uni23AA%1,600,200,1010 uni23AC%0,200,200,1010 uni23AA%1,200,600,1010 uni23AB%0,600,0,1005
HStem: 660 20<130 130>
VStem: 221 74<-47 -42 -42 121 121 136 378 540>
LayerCount: 2
Fore
SplineSet
295 540 m 2
 295 363 l 2
 295 293 313 270 380 250 c 1
 313 229 295 206 295 136 c 2
 295 -42 l 2
 295 -99 280 -138 251 -156 c 0
 222 -174 196 -180 130 -181 c 1
 130 -170 l 1
 199 -152 221 -122 221 -47 c 2
 221 121 l 2
 221 204 240 230 315 250 c 1
 240 269 221 294 221 378 c 2
 221 546 l 2
 221 621 199 651 130 669 c 1
 130 680 l 1
 197 679 223 673 251 655 c 0
 279 637 295 596 295 540 c 2
EndSplineSet
EndChar

StartChar: asciitilde
Encoding: 126 126 95
Width: 541
Flags: MW
HStem: 188 64<362 400> 256 64<142.5 181>
LayerCount: 2
Fore
SplineSet
466 325 m 1
 502 274 l 1
 459 210 423 188 377 188 c 0
 332 188 314 201 257 231 c 0
 239 240 202 256 160 256 c 0
 125 256 93 229 76 183 c 1
 40 233 l 1
 74 300 119 320 165 320 c 0
 198 320 215 315 282 286 c 0
 300 278 346 252 378 252 c 0
 423 252 444 285 466 325 c 1
EndSplineSet
EndChar

StartChar: uni20AC
Encoding: 8364 8364 96
Width: 500
Flags: MW
HStem: -12 40<250.5 311.5> 276 34<46 76 46 78 38 76 157 375 157 157> 359 34<46 77 38 80 159 395> 637 27<264 324 242 338.5>
LayerCount: 2
Fore
SplineSet
462 500 m 1
 447 500 l 1
 432 578 376 637 301 637 c 0
 227 637 173 542 159 393 c 1
 403 393 l 1
 395 359 l 1
 157 359 l 1
 156 346 156 322 156 310 c 1
 383 310 l 1
 375 276 l 1
 157 276 l 1
 161 138 211 28 290 28 c 0
 354 28 382 47 438 134 c 1
 451 124 l 1
 393 22 349 -12 274 -12 c 0
 161 -12 89 100 78 276 c 1
 38 276 l 1
 46 310 l 1
 76 310 l 1
 76 327 76 348 77 359 c 1
 38 359 l 1
 46 393 l 1
 80 393 l 1
 101 551 183 664 301 664 c 0
 347 664 424 649 462 611 c 1
 462 500 l 1
EndSplineSet
EndChar

StartChar: quotesinglbase
Encoding: 8218 8218 97
Width: 333
Flags: MW
HStem: -6 20 -2 20
VStem: 179 39<-17 -11.5>
LayerCount: 2
Fore
SplineSet
106 -141 m 1xa0
 97 -122 l 1
 151 -85 179 -48 179 -15 c 0
 179 -8 173 -2 165 -2 c 1x60
 165 -2 163 -2 158 -4 c 1
 152 -5 145 -6 138 -6 c 0
 101 -6 79 13 79 45 c 0
 79 79 103 102 138 102 c 0
 183 102 218 63 218 13 c 0
 218 -47 173 -108 106 -141 c 1xa0
EndSplineSet
EndChar

StartChar: florin
Encoding: 402 402 98
Width: 434
Flags: MW
HStem: -159 24<91 118.5> 406 31<62 172 62 176 259 378> 677 29<322.5 337>
VStem: 6 70<-122 -76.5> 352 74<625.5 668.5>
LayerCount: 2
Fore
SplineSet
62 437 m 1
 176 437 l 1
 193 617 241 706 335 706 c 0
 382 706 426 677 426 638 c 0
 426 613 409 593 384 593 c 0
 364 593 343 604 343 626 c 0
 343 650 352 652 352 665 c 0
 352 672 343 677 331 677 c 0
 314 677 300 671 291 659 c 0
 264 622 259 502 259 437 c 1
 378 437 l 1
 378 406 l 1
 258 406 l 1
 257 250 229 -5 207 -62 c 0
 180 -129 145 -159 92 -159 c 0
 45 -159 6 -130 6 -90 c 0
 6 -63 21 -45 48 -45 c 0
 70 -45 87 -59 87 -81 c 0
 87 -90 86 -98 81 -108 c 0
 77 -115 76 -119 76 -122 c 0
 77 -130 85 -135 97 -135 c 0
 143 -135 166 -78 166 39 c 0
 166 82 164 161 164 188 c 0
 164 254 167 318 172 406 c 1
 62 406 l 1
 62 437 l 1
EndSplineSet
EndChar

StartChar: quotedblbase
Encoding: 8222 8222 99
Width: 444
Flags: MW
HStem: -6 20 -2 20
VStem: 145 39<-17 -11.5> 377 39<-17 -11.5>
LayerCount: 2
Fore
SplineSet
304 -141 m 1xb0
 295 -122 l 1
 349 -85 377 -49 377 -15 c 0
 377 -8 371 -2 363 -2 c 1x70
 363 -2 361 -2 356 -4 c 1
 350 -5 343 -6 337 -6 c 0
 299 -6 277 13 277 45 c 0
 277 79 301 102 336 102 c 0
 381 102 416 63 416 13 c 0
 416 -47 372 -108 304 -141 c 1xb0
72 -141 m 1
 63 -122 l 1
 117 -84 145 -48 145 -15 c 0
 145 -8 139 -2 131 -2 c 1
 131 -2 129 -2 124 -4 c 1
 118 -5 111 -6 105 -6 c 0
 67 -6 45 13 45 45 c 0
 45 79 69 102 104 102 c 0
 149 102 184 63 184 13 c 0
 184 -47 140 -108 72 -141 c 1
EndSplineSet
EndChar

StartChar: ellipsis
Encoding: 8230 8230 100
Width: 1000
Flags: MW
HStem: -11 111<151.5 181 484.5 514 817.5 847>
VStem: 111 111<28.5 58 28.5 59.5> 444 111<28.5 58 28.5 59.5> 777 111<28.5 58 28.5 59.5>
CounterMasks: 1 70
LayerCount: 2
Fore
SplineSet
888 43 m 0
 888 14 862 -11 832 -11 c 0
 801 -11 777 13 777 44 c 0
 777 75 802 100 833 100 c 0
 862 100 888 73 888 43 c 0
555 43 m 0
 555 14 529 -11 499 -11 c 0
 468 -11 444 13 444 44 c 0
 444 75 469 100 500 100 c 0
 529 100 555 73 555 43 c 0
222 43 m 0
 222 14 196 -11 166 -11 c 0
 135 -11 111 13 111 44 c 0
 111 75 136 100 167 100 c 0
 196 100 222 73 222 43 c 0
EndSplineSet
EndChar

StartChar: dagger
Encoding: 8224 8224 101
Width: 500
Flags: MW
HStem: 656 20<239 263>
VStem: 240 22<-149 -26 -149 19.5 389 438 456 483>
LayerCount: 2
Fore
SplineSet
240 -149 m 1
 240 -26 l 2
 240 65 223 185 198 253 c 1
 228 284 240 339 240 438 c 1
 205 435 189 432 149 416 c 0
 125 407 115 404 103 404 c 0
 74 404 59 419 59 447 c 0
 59 472 76 491 98 491 c 0
 110 491 127 486 147 478 c 0
 190 461 204 457 240 456 c 1
 240 511 236 533 216 584 c 0
 208 604 204 620 204 631 c 0
 204 654 227 676 251 676 c 0
 275 676 298 654 298 631 c 0
 298 620 293 604 285 584 c 0
 265 533 262 510 262 456 c 1
 299 457 312 461 354 478 c 0
 374 486 392 491 404 491 c 0
 425 491 442 472 442 447 c 0
 442 422 426 404 405 404 c 0
 392 404 373 408 352 416 c 0
 311 432 297 435 262 438 c 1
 262 340 274 284 303 253 c 1
 276 183 262 94 262 -26 c 2
 262 -149 l 1
 240 -149 l 1
EndSplineSet
EndChar

StartChar: daggerdbl
Encoding: 8225 8225 102
Width: 500
Flags: MW
HStem: 656 20<238.5 262>
LayerCount: 2
Fore
SplineSet
442 446 m 0
 442 422 426 404 405 404 c 0
 391 404 373 408 352 416 c 0
 310 432 296 435 261 438 c 1
 261 342 270 297 301 260 c 1
 270 225 261 183 261 85 c 1
 295 88 309 91 351 107 c 0
 371 115 390 119 403 119 c 0
 425 119 441 101 441 75 c 0
 441 51 424 32 402 32 c 0
 391 32 373 37 353 45 c 0
 311 62 297 66 261 67 c 1
 261 13 264 -10 284 -61 c 0
 292 -81 296 -97 296 -108 c 0
 296 -131 273 -153 249 -153 c 0
 226 -153 203 -131 203 -108 c 0
 203 -97 207 -81 215 -61 c 0
 235 -10 239 13 239 67 c 1
 203 66 188 62 146 45 c 0
 126 37 109 32 97 32 c 0
 74 32 58 51 58 77 c 0
 58 101 74 119 96 119 c 0
 109 119 127 115 148 107 c 0
 190 91 204 88 239 85 c 1
 239 183 228 233 199 260 c 1
 229 299 239 350 239 438 c 1
 204 435 188 431 149 416 c 0
 125 406 115 404 103 404 c 0
 74 404 59 419 59 447 c 0
 59 472 76 491 98 491 c 0
 110 491 127 486 147 478 c 0
 189 461 204 457 239 456 c 1
 239 510 236 533 216 584 c 0
 208 604 204 620 204 631 c 0
 204 654 227 676 250 676 c 0
 274 676 297 654 297 631 c 0
 297 620 293 604 285 584 c 0
 265 533 261 510 261 456 c 1
 297 457 312 461 354 478 c 0
 374 486 391 491 404 491 c 0
 425 491 442 472 442 446 c 0
EndSplineSet
EndChar

StartChar: circumflex
Encoding: 710 710 103
Width: 333
Flags: MW
TopAccentHorizontal: 166
HStem: 654 20<135 197 197 197>
LayerCount: 2
Fore
SplineSet
322 507 m 1
 288 507 l 1
 166 610 l 1
 45 507 l 1
 11 507 l 1
 135 674 l 1
 197 674 l 1
 322 507 l 1
EndSplineSet
EndChar

StartChar: perthousand
Encoding: 8240 8240 104
Width: 1109
Flags: MW
HStem: -19 27<513 563.5 513 565 874.5 925.5> 302 28<592 619 950.5 981> 326 27<172 195.5> 583 26<404 441 391.5 443.5> 656 20<203 264.5>
VStem: 61 71<424 450.5 402 519.5> 321 24<518 561 518 583.5> 401 72<80 110 56.5 172.5> 663 23<162 241> 763 72<80.5 105 57.5 173> 1025 23<162 241>
LayerCount: 2
Fore
SplineSet
1048 213 m 0xdfe0
 1048 92 970 -19 885 -19 c 0
 816 -19 763 41 763 120 c 0
 763 226 856 330 952 330 c 0
 1013 330 1048 287 1048 213 c 0xdfe0
1025 215 m 0
 1025 267 1000 302 962 302 c 0
 939 302 917 288 896 259 c 0
 864 217 835 132 835 78 c 0
 835 37 858 8 891 8 c 0
 960 8 1025 109 1025 215 c 0
686 213 m 0
 686 92 608 -19 522 -19 c 0
 454 -19 401 41 401 119 c 0
 401 226 494 330 590 330 c 0
 651 330 686 287 686 213 c 0
663 215 m 0
 663 267 638 302 600 302 c 0
 584 302 563 293 551 279 c 0
 507 232 473 144 473 76 c 0
 473 37 497 8 529 8 c 0
 598 8 663 109 663 215 c 0
621 706 m 1
 191 -18 l 1
 144 -18 l 1
 538 640 l 1
 501 597 470 583 417 583 c 0
 391 583 373 586 341 597 c 1
 344 580 345 569 345 553 c 0
 345 483 313 408 265 363 c 0
 238 337 212 326 179 326 c 0x37e0
 112 326 61 385 61 463 c 0
 61 576 152 676 254 676 c 0
 275 676 287 670 314 648 c 0
 349 619 373 609 410 609 c 0
 472 609 485 617 577 706 c 1
 621 706 l 1
321 569 m 0
 321 598 317 605 296 615 c 0
 282 622 269 631 252 649 c 1
 211 629 200 619 180 586 c 0
 149 537 132 478 132 423 c 0
 132 381 155 353 189 353 c 0
 260 353 321 454 321 569 c 0
EndSplineSet
EndChar

StartChar: Scaron
Encoding: 352 352 105
Width: 556
Flags: MW
HStem: -14 36<266 306 223.5 345> 0 20<114.5 127.5> 635 41<227 265.5 195.5 288> 642 20
VStem: 71 86<506 555.5>
LayerCount: 2
Fore
SplineSet
429 924 m 1x28
 305 757 l 1
 241 757 l 1
 118 924 l 1
 153 924 l 1
 273 821 l 1
 394 924 l 1
 429 924 l 1x28
469 463 m 1
 444 463 l 1
 432 507 421 533 403 557 c 0
 368 602 318 635 258 635 c 0
 196 635 157 595 157 540 c 0
 157 472 231 430 336 369 c 0
 442 307 491 249 491 173 c 0
 491 61 403 -14 287 -14 c 0xa8
 245 -14 206 -7 169 9 c 0
 150 17 133 20 122 20 c 0x48
 107 20 94 8 94 -13 c 1
 72 -13 l 1
 43 199 l 1
 65 199 l 1
 111 78 176 22 271 22 c 0
 341 22 390 68 390 134 c 0
 390 169 380 192 361 213 c 0
 326 251 257 295 193 329 c 0
 103 377 71 439 71 501 c 0
 71 610 146 676 245 676 c 0xa8
 286 676 312 670 350 654 c 0
 368 646 384 642 394 642 c 0x18
 411 642 422 654 426 676 c 1
 447 676 l 1
 469 463 l 1
EndSplineSet
EndChar

StartChar: guilsinglleft
Encoding: 8249 8249 106
Width: 333
Flags: W
LayerCount: 2
Fore
SplineSet
63 227 m 1
 144 300 l 2
 186 338 265 416 274 416 c 0
 283 416 285 410 285 405 c 0
 285 396 266 374 235 333 c 0
 203 291 177 260 151 227 c 1
 183 190 213 149 235 120 c 0
 266 80 285 53 285 44 c 0
 285 38 279 33 273 33 c 0
 264 33 185 117 144 154 c 2
 63 227 l 1
EndSplineSet
EndChar

StartChar: OE
Encoding: 338 338 107
Width: 889
Flags: MW
HStem: -6 37<298 338> 0 38<591 704 704 736 591 841> 329 37<531 632 632 664 531 632> 626 36<573 601 601 654> 632 36<307.5 349.5 307.5 371.5>
LayerCount: 2
Fore
SplineSet
885 168 m 1x70
 841 0 l 1
 498 0 l 2x40
 440 0 362 -6 314 -6 c 0
 235 -6 151 31 104 88 c 0
 55 148 30 231 30 329 c 0
 30 458 76 554 159 614 c 0
 209 650 273 668 342 668 c 0xa8
 357 668 359 668 407 665 c 0
 425 664 500 662 520 662 c 2
 838 662 l 1
 838 521 l 1
 815 521 l 1
 803 610 776 626 654 626 c 2
 601 626 l 2
 545 626 531 616 531 591 c 2
 531 366 l 1
 632 366 l 2
 733 366 759 383 767 464 c 1
 788 464 l 1
 788 230 l 1
 767 230 l 1
 758 309 733 329 664 329 c 2
 531 329 l 1
 531 93 l 2
 531 56 541 38 591 38 c 2
 704 38 l 2
 768 38 815 72 861 168 c 1
 885 168 l 1x70
431 133 m 2xa8
 431 525 l 2
 431 598 406 632 337 632 c 0
 216 632 142 524 142 329 c 0
 142 239 156 168 184 118 c 0
 216 61 265 31 331 31 c 0
 402 31 431 62 431 133 c 2xa8
EndSplineSet
EndChar

StartChar: quoteleft
Encoding: 8216 8216 108
Width: 333
Flags: MW
HStem: 656 20<227 227>
VStem: 115 39<547 552>
LayerCount: 2
Fore
SplineSet
227 676 m 1
 236 657 l 1
 181 619 154 584 154 551 c 0
 154 543 160 537 168 537 c 1
 168 537 170 537 175 539 c 1
 181 540 188 541 195 541 c 0
 232 541 254 522 254 490 c 0
 254 456 230 433 195 433 c 0
 149 433 115 471 115 522 c 0
 115 582 160 643 227 676 c 1
EndSplineSet
EndChar

StartChar: quoteright
Encoding: 8217 8217 109
Width: 333
Flags: MW
HStem: 656 20<120.5 160.5>
VStem: 179 39<557 562.5>
LayerCount: 2
Fore
SplineSet
106 433 m 1
 97 452 l 1
 151 489 179 525 179 559 c 0
 179 566 173 572 165 572 c 1
 165 572 163 572 158 570 c 1
 152 569 145 568 138 568 c 0
 101 568 79 587 79 619 c 0
 79 653 103 676 138 676 c 0
 183 676 218 637 218 587 c 0
 218 527 173 466 106 433 c 1
EndSplineSet
EndChar

StartChar: quotedblleft
Encoding: 8220 8220 110
Width: 444
Flags: MW
HStem: 656 20<155 155 387 387>
VStem: 43 39<547 552> 275 39<547 552>
LayerCount: 2
Fore
SplineSet
387 676 m 1
 396 657 l 1
 341 619 314 584 314 551 c 0
 314 543 320 537 328 537 c 1
 328 537 330 537 335 539 c 1
 341 540 348 541 354 541 c 0
 392 541 414 522 414 490 c 0
 414 456 390 433 355 433 c 0
 310 433 275 471 275 522 c 0
 275 582 319 643 387 676 c 1
155 676 m 1
 164 657 l 1
 109 619 82 584 82 551 c 0
 82 543 88 537 96 537 c 1
 96 537 98 537 103 539 c 1
 109 540 116 541 122 541 c 0
 160 541 182 522 182 490 c 0
 182 456 158 433 123 433 c 0
 77 433 43 471 43 522 c 0
 43 582 87 643 155 676 c 1
EndSplineSet
EndChar

StartChar: quotedblright
Encoding: 8221 8221 111
Width: 444
Flags: MW
HStem: 656 20<71.5 111.5 303.5 343.5>
VStem: 130 39<557 562.5> 362 39<557 562.5>
LayerCount: 2
Fore
SplineSet
289 433 m 1
 280 452 l 1
 334 489 362 525 362 559 c 0
 362 566 356 572 348 572 c 1
 348 572 346 572 341 570 c 1
 335 569 328 568 322 568 c 0
 284 568 262 587 262 619 c 0
 262 653 286 676 321 676 c 0
 366 676 401 637 401 587 c 0
 401 527 356 466 289 433 c 1
57 433 m 1
 48 452 l 1
 102 489 130 525 130 559 c 0
 130 566 124 572 116 572 c 1
 116 572 114 572 109 570 c 1
 103 569 96 568 90 568 c 0
 52 568 30 587 30 619 c 0
 30 653 54 676 89 676 c 0
 134 676 169 637 169 587 c 0
 169 527 124 466 57 433 c 1
EndSplineSet
EndChar

StartChar: bullet
Encoding: 8226 8226 112
Width: 523
Flags: MW
HStem: 59 385<209 314.5>
VStem: 70 385<199 304>
LayerCount: 2
Fore
SplineSet
455 252 m 0
 455 146 367 59 262 59 c 0
 156 59 70 145 70 252 c 0
 70 356 156 444 262 444 c 0
 376 444 455 357 455 252 c 0
EndSplineSet
EndChar

StartChar: endash
Encoding: 8211 8211 113
Width: 500
Flags: MW
HStem: 201 49<0 500 0 500>
LayerCount: 2
Fore
SplineSet
500 201 m 1
 0 201 l 1
 0 250 l 1
 500 250 l 1
 500 201 l 1
EndSplineSet
EndChar

StartChar: emdash
Encoding: 8212 8212 114
Width: 1000
Flags: MW
HStem: 201 49<0 1000 0 1000>
LayerCount: 2
Fore
SplineSet
1000 201 m 1
 0 201 l 1
 0 250 l 1
 1000 250 l 1
 1000 201 l 1
EndSplineSet
EndChar

StartChar: tilde
Encoding: 732 732 115
Width: 333
Flags: MW
TopAccentHorizontal: 166
HStem: 532 56<241.5 253.5> 578 55<77 87>
LayerCount: 2
Fore
SplineSet
302 638 m 1x80
 331 638 l 1
 310 562 281 532 226 532 c 0x80
 201 532 186 536 145 556 c 2
 122 567 l 2
 107 574 93 578 81 578 c 0x40
 58 578 41 563 30 532 c 1
 1 532 l 1x80
 16 597 52 633 102 633 c 0x40
 124 633 148 627 172 615 c 2
 196 603 l 2
 215 593 234 588 249 588 c 0
 272 588 285 601 302 638 c 1x80
EndSplineSet
EndChar

StartChar: trademark
Encoding: 8482 8482 116
Width: 980
Flags: MW
HStem: 642 20<100 118 118 167 238 288 238 238>
VStem: 167 71<334 642> 488 26<343 566> 830 71<332 333 333 568 568 568>
LayerCount: 2
Fore
SplineSet
957 662 m 1
 957 642 l 1
 914 639 901 626 901 587 c 2
 901 333 l 2
 901 285 901 284 951 278 c 1
 951 258 l 1
 781 258 l 1
 781 278 l 1
 812 282 816 283 823 287 c 0
 828 291 830 300 830 332 c 2
 830 568 l 1
 676 256 l 1
 665 256 l 1
 514 566 l 1
 514 343 l 2
 514 295 524 283 567 278 c 1
 567 258 l 1
 436 258 l 1
 436 278 l 1
 478 283 488 295 488 343 c 2
 488 592 l 1
 475 622 449 641 419 642 c 1
 419 662 l 1
 540 662 l 1
 694 353 l 1
 854 662 l 1
 957 662 l 1
375 574 m 1
 355 574 l 1
 341 623 323 642 288 642 c 2
 238 642 l 1
 238 334 l 2
 238 286 238 284 288 278 c 1
 288 258 l 1
 117 258 l 1
 117 278 l 1
 167 284 167 286 167 334 c 2
 167 642 l 1
 118 642 l 2
 82 642 63 623 50 574 c 1
 30 574 l 1
 30 662 l 1
 375 662 l 1
 375 574 l 1
EndSplineSet
EndChar

StartChar: scaron
Encoding: 353 353 117
Width: 389
Flags: MW
HStem: -10 22<184.5 207.5 147.5 233> 437 22<153.5 188 135 205> 654 20<38 73 73 73 314 349 349 349>
VStem: 38 62<358 375.5> 265 70<81.5 101.5>
LayerCount: 2
Fore
SplineSet
349 674 m 1
 225 507 l 1
 161 507 l 1
 38 674 l 1
 73 674 l 1
 193 571 l 1
 314 674 l 1
 349 674 l 1
143 301 m 2
 247 238 l 2
 311 199 335 172 335 115 c 0
 335 48 271 -10 195 -10 c 0
 174 -10 145 -9 122 -1 c 0
 98 7 87 8 76 8 c 0
 64 8 58 6 52 -4 c 1
 39 -4 l 1
 39 153 l 1
 55 153 l 1
 76 56 113 12 182 12 c 0
 233 12 265 45 265 86 c 0
 265 117 245 143 212 161 c 2
 158 191 l 2
 75 237 38 285 38 336 c 0
 38 415 94 459 176 459 c 0
 200 459 222 458 243 448 c 0
 254 443 264 440 271 440 c 0
 275 440 279 441 287 450 c 1
 298 450 l 1
 303 314 l 1
 288 314 l 1
 265 404 235 437 175 437 c 0
 132 437 100 416 100 369 c 0
 100 347 115 318 143 301 c 2
EndSplineSet
EndChar

StartChar: guilsinglright
Encoding: 8250 8250 118
Width: 333
Flags: W
LayerCount: 2
Fore
SplineSet
270 222 m 1
 189 149 l 2
 147 111 68 33 59 33 c 0
 50 33 48 39 48 44 c 0
 48 53 67 75 98 116 c 0
 130 158 156 189 182 222 c 1
 150 259 120 300 98 329 c 0
 67 369 48 396 48 405 c 0
 48 411 54 416 60 416 c 0
 69 416 148 332 189 295 c 2
 270 222 l 1
EndSplineSet
EndChar

StartChar: oe
Encoding: 339 339 119
Width: 722
Flags: MW
HStem: -10 26<222 270> -10 67<508.5 550> 277 30<420 579 419 674 420 420> 431 29<212.5 263 208 264.5 486.5 523>
VStem: 30 90<217.5 257.5>
LayerCount: 2
Fore
SplineSet
679 145 m 1x78
 690 139 l 1
 638 31 589 -10 511 -10 c 0x78
 449 -10 413 17 383 85 c 1
 345 16 304 -10 236 -10 c 0x88
 115 -10 30 84 30 218 c 0
 30 297 61 374 110 416 c 0
 143 445 184 460 232 460 c 0
 294 460 334 440 384 384 c 1
 425 440 459 460 514 460 c 0
 565 460 612 437 640 398 c 0
 663 367 671 338 674 277 c 1
 420 277 l 1
 427 126 468 57 549 57 c 0
 597 57 632 81 679 145 c 1x78
579 307 m 1
 579 334 l 2
 579 390 546 431 500 431 c 0
 447 431 420 390 419 307 c 1
 579 307 l 1
343 195 m 0x98
 343 351 303 431 226 431 c 0
 199 431 171 417 152 395 c 0
 132 372 120 320 120 255 c 0
 120 180 134 107 157 67 c 0
 177 33 204 16 240 16 c 0
 307 16 343 79 343 195 c 0x98
EndSplineSet
EndChar

StartChar: Ydieresis
Encoding: 376 376 120
Width: 722
Flags: MW
HStem: 0 20 642 20<277 277> 773 99<255.5 282 454.5 481>
VStem: 220 99<809 835.5 808.5 836.5> 419 99<809 835.5 808.5 836.5>
LayerCount: 2
Fore
SplineSet
518 822 m 0
 518 795 495 773 467 773 c 0
 440 773 419 795 419 823 c 0
 419 850 441 872 468 872 c 0
 495 872 518 849 518 822 c 0
319 822 m 0
 319 795 296 773 268 773 c 0
 241 773 220 795 220 823 c 0
 220 850 242 872 269 872 c 0
 296 872 319 849 319 822 c 0
703 662 m 1
 703 643 l 1
 644 638 621 617 565 531 c 2
 417 303 l 1
 417 111 l 2
 417 33 436 23 520 19 c 1
 520 0 l 1
 214 0 l 1
 214 19 l 1
 303 25 315 34 315 123 c 2
 315 294 l 1
 184 486 l 2
 92 621 70 641 22 643 c 1
 22 662 l 1
 301 662 l 1
 301 643 l 1
 277 642 l 2
 245 641 230 632 230 616 c 0
 230 603 237 585 248 569 c 2
 394 348 l 1
 539 570 l 2
 549 585 553 601 553 612 c 0
 552 634 537 642 485 643 c 1
 485 662 l 1
 703 662 l 1
EndSplineSet
EndChar

StartChar: exclamdown
Encoding: 161 161 122
Width: 330
Flags: MW
HStem: 362 106<133.5 163>
VStem: 96 106<-161 -132.5 401.5 431.5>
LayerCount: 2
Fore
SplineSet
202 417 m 0
 202 386 178 362 148 362 c 0
 118 362 96 386 96 417 c 0
 96 447 118 468 149 468 c 0
 179 468 202 446 202 417 c 0
156 282 m 1
 200 -99 l 2
 202 -117 202 -124 202 -138 c 0
 202 -184 181 -218 149 -218 c 0
 115 -218 96 -190 96 -139 c 0
 96 -126 97 -113 98 -101 c 2
 143 282 l 1
 156 282 l 1
EndSplineSet
EndChar

StartChar: cent
Encoding: 162 162 123
Width: 500
Flags: MW
HStem: -9 73<249 317.5> 0 20 430 30<225 274.5>
VStem: 53 77<224 286.5>
LayerCount: 2
Fore
SplineSet
435 164 m 1xb0
 448 156 l 1
 414 86 395 59 360 29 c 0
 332 5 295 -9 258 -9 c 0xb0
 240 -9 225 -7 201 0 c 1x50
 152 -138 l 1
 118 -138 l 1
 169 12 l 1
 130 34 114 48 95 76 c 0
 68 115 53 167 53 219 c 0
 53 354 149 460 273 460 c 0
 287 460 300 459 324 455 c 1
 368 579 l 1
 403 579 l 1
 356 444 l 1
 404 425 431 395 431 360 c 0
 431 333 413 315 388 315 c 0
 363 315 348 328 330 367 c 1
 229 76 l 1
 252 67 268 64 288 64 c 0
 347 64 383 89 435 164 c 1xb0
198 98 m 1
 313 421 l 1
 295 428 283 430 266 430 c 0
 184 430 130 362 130 260 c 0
 130 188 149 143 198 98 c 1
EndSplineSet
EndChar

StartChar: sterling
Encoding: 163 163 124
Width: 500
Flags: MW
HStem: -8 28<67.5 89.5 67.5 97.5> -7 83<323.5 346> 94 36<75.5 100.5> 328 45<23 130 23 131 23 130 223 344 223 223> 649 27<273 321.5>
VStem: 12 26<46 69 46 77> 123 85<492.5 513.5>
LayerCount: 2
Fore
SplineSet
344 328 m 1xbe
 223 328 l 1
 224 308 224 287 224 267 c 0
 224 238 223 231 199 111 c 1
 264 84 299 76 348 76 c 0
 394 76 430 91 461 125 c 0
 471 136 478 141 484 141 c 0
 488 141 490 140 490 136 c 0
 490 118 466 71 445 48 c 0
 412 13 369 -7 323 -7 c 0x56
 279 -7 246 7 178 54 c 1
 138 6 115 -8 80 -8 c 0
 38 -8 12 16 12 54 c 0
 12 100 48 130 103 130 c 0
 118 130 130 129 149 125 c 1
 151 133 152 139 152 146 c 0
 152 165 147 225 136 295 c 2
 131 328 l 1
 23 328 l 1
 23 373 l 1
 130 373 l 1
 125 399 123 418 123 442 c 0
 123 585 199 676 318 676 c 0
 393 676 448 636 448 583 c 0
 448 552 427 530 398 530 c 0
 368 530 360 544 359 597 c 0
 358 632 340 649 303 649 c 0
 243 649 208 598 208 512 c 0
 208 473 211 442 219 373 c 1
 344 373 l 1
 344 328 l 1xbe
142 76 m 0
 142 85 113 94 88 94 c 0
 56 94 38 81 38 57 c 0
 38 35 55 20 80 20 c 0xa6
 99 20 113 27 127 45 c 0
 137 57 142 68 142 76 c 0
EndSplineSet
EndChar

StartChar: currency
Encoding: 164 164 125
Width: 500
Flags: MW
HStem: -10 20 47 64<227.5 274.5> 413 64<227 275.5 227 290.5>
VStem: 35 68<238 286> 397 68<239 287.5 239 305.5>
LayerCount: 2
Fore
SplineSet
522 40 m 1
 474 -10 l 1
 376 88 l 1
 336 60 298 47 251 47 c 0
 204 47 166 59 124 88 c 1
 28 -10 l 1
 -22 40 l 1
 76 136 l 1
 47 178 35 214 35 262 c 0
 35 310 47 348 76 388 c 1
 -22 486 l 1
 28 534 l 1
 124 438 l 1
 168 466 203 477 251 477 c 0
 300 477 337 465 376 438 c 1
 474 534 l 1
 522 486 l 1
 426 388 l 1
 455 345 465 312 465 263 c 0
 465 215 455 181 426 136 c 1
 522 40 l 1
397 264 m 0
 397 347 332 413 249 413 c 0
 169 413 103 345 103 263 c 0
 103 179 169 111 251 111 c 0
 333 111 397 178 397 264 c 0
EndSplineSet
EndChar

StartChar: yen
Encoding: 165 165 126
Width: 500
Flags: MW
HStem: 0 20 182 40<16 190 16 190 275 448> 312 40<16 160 16 183 16 160 302 448> 642 20<-53 190 190 190 317 512 512 512>
VStem: 190 85<120 182 74 182 222 298>
LayerCount: 2
Fore
SplineSet
512 662 m 1
 512 643 l 1
 461 632 429 606 394 536 c 2
 302 352 l 1
 448 352 l 1
 448 312 l 1
 282 312 l 1
 275 298 l 1
 275 222 l 1
 448 222 l 1
 448 182 l 1
 275 182 l 1
 275 109 l 2
 275 39 291 21 355 19 c 1
 355 0 l 1
 111 0 l 1
 111 19 l 1
 178 22 190 37 190 120 c 2
 190 182 l 1
 16 182 l 1
 16 222 l 1
 190 222 l 1
 190 298 l 1
 183 312 l 1
 16 312 l 1
 16 352 l 1
 160 352 l 1
 65 525 l 2
 10 624 -7 640 -53 643 c 1
 -53 662 l 1
 190 662 l 1
 190 643 l 1
 143 642 125 635 125 615 c 0
 125 601 130 585 138 569 c 2
 256 348 l 1
 368 568 l 2
 377 585 382 602 382 613 c 0
 382 630 361 643 331 643 c 2
 317 643 l 1
 317 662 l 1
 512 662 l 1
EndSplineSet
EndChar

StartChar: brokenbar
Encoding: 166 166 127
Width: 200
Flags: MW
HStem: -14 20 656 20<67 133 133 133>
VStem: 67 66<-14 262 400 676>
LayerCount: 2
Fore
SplineSet
133 400 m 1
 67 400 l 1
 67 676 l 1
 133 676 l 1
 133 400 l 1
133 -14 m 1
 67 -14 l 1
 67 262 l 1
 133 262 l 1
 133 -14 l 1
EndSplineSet
EndChar

StartChar: section
Encoding: 167 167 128
Width: 500
Flags: MW
HStem: -148 21<224.5 269.5 224.5 285.5> 383 22<171 187.5 151.5 206> 655 21<225.5 268.5>
VStem: 70 53<301 320> 104 68<-101 -32.5> 110 56<571 590.5> 313 64<561.5 632> 330 56<-59 -30.5> 374 52<208.5 224.5>
LayerCount: 2
Fore
SplineSet
200 513 m 2xe6
 337 400 l 2
 395 352 426 298 426 245 c 0xf080
 426 172 378 125 304 125 c 2
 292 125 l 1
 367 60 386 31 386 -21 c 0
 386 -97 329 -148 242 -148 c 0
 164 -148 104 -104 104 -48 c 0
 104 -17 127 6 158 6 c 0
 185 6 206 -12 206 -36 c 0
 206 -50 199 -64 183 -77 c 0
 176 -83 172 -88 172 -92 c 0xe9
 172 -110 206 -127 243 -127 c 0
 296 -127 330 -97 330 -50 c 0
 330 -11 306 21 241 65 c 0
 119 149 70 212 70 286 c 0xf1
 70 354 119 405 184 405 c 0
 191 405 200 405 210 404 c 1
 130 470 110 500 110 554 c 0
 110 627 166 676 249 676 c 0
 322 676 377 634 377 578 c 0
 377 545 358 525 326 525 c 0
 298 525 279 543 279 568 c 0
 279 584 289 601 305 612 c 0
 311 617 313 620 313 623 c 0
 313 641 286 655 251 655 c 0
 200 655 166 626 166 584 c 0
 166 558 180 530 200 513 c 2xe6
374 211 m 0
 374 238 356 270 321 305 c 0
 273 352 222 383 190 383 c 0
 152 383 123 355 123 317 c 0
 123 285 135 263 169 229 c 0
 230 169 267 146 305 146 c 0
 341 146 374 177 374 211 c 0
EndSplineSet
EndChar

StartChar: dieresis
Encoding: 168 168 129
Width: 333
Flags: MW
HStem: 523 99<53.5 80 252.5 279>
VStem: 18 99<559 585.5 558.5 586.5> 217 99<559 585.5 558.5 586.5>
LayerCount: 2
Fore
SplineSet
316 572 m 0
 316 545 293 523 265 523 c 0
 238 523 217 545 217 573 c 0
 217 600 239 622 266 622 c 0
 293 622 316 599 316 572 c 0
117 572 m 0
 117 545 94 523 66 523 c 0
 39 523 18 545 18 573 c 0
 18 600 40 622 67 622 c 0
 94 622 117 599 117 572 c 0
EndSplineSet
EndChar

StartChar: copyright
Encoding: 169 169 130
Width: 760
Flags: MW
HStem: -14 42<302.5 459.5 302.5 476.5> 141 20<371 412> 512 20<365.5 427.5 345 437.5> 634 42<300.5 456.5>
VStem: 38 55<248 412.5 248 427.5> 190 77<281.5 388 281.5 390.5> 667 55<250 416.5>
LayerCount: 2
Fore
SplineSet
547 248 m 1
 530 172 l 2
 527 159 442 141 382 141 c 0
 264 141 190 216 190 329 c 0
 190 452 279 532 411 532 c 0
 444 532 487 523 518 510 c 0
 526 506 531 500 531 493 c 2
 531 422 l 1
 514 422 l 1
 506 482 465 512 410 512 c 0
 321 512 267 439 267 337 c 0
 267 226 327 161 415 161 c 0
 470 161 504 186 531 248 c 1
 547 248 l 1
722 330 m 0
 722 137 572 -14 381 -14 c 0
 189 -14 38 138 38 330 c 0
 38 525 190 676 386 676 c 0
 571 676 722 521 722 330 c 0
667 334 m 0
 667 499 536 634 377 634 c 0
 224 634 93 494 93 331 c 0
 93 165 224 28 381 28 c 0
 538 28 667 166 667 334 c 0
EndSplineSet
EndChar

StartChar: ordfeminine
Encoding: 170 170 131
Width: 276
Flags: MW
HStem: 394 47<54.5 111.5> 430 20 648 28<110 132.5>
VStem: 4 63<442 498> 16 60<623 628.5> 158 71<474 551 551 551>
LayerCount: 2
Fore
SplineSet
270 442 m 1x6c
 270 424 l 1
 246 401 234 394 211 394 c 0
 184 394 172 406 166 438 c 1
 133 407 105 394 75 394 c 0
 34 394 4 422 4 462 c 0x94
 4 482 12 501 26 513 c 0
 53 536 66 542 157 576 c 1
 157 606 l 2
 157 633 144 648 121 648 c 0
 99 648 76 637 76 625 c 0
 76 621 77 617 78 611 c 0
 79 608 79 605 79 603 c 0
 79 590 65 578 48 578 c 0
 30 578 16 591 16 609 c 0
 16 648 61 676 124 676 c 0
 194 676 229 644 229 580 c 2
 229 465 l 2
 229 437 231 430 242 430 c 0
 252 430 260 433 270 442 c 1x6c
158 474 m 2
 158 551 l 1
 88 526 67 511 67 485 c 0
 67 461 84 441 105 441 c 0
 118 441 130 444 147 452 c 1
 155 459 158 466 158 474 c 2
EndSplineSet
EndChar

StartChar: guillemotleft
Encoding: 171 171 132
Width: 500
Flags: W
LayerCount: 2
Fore
SplineSet
234 227 m 1
 315 300 l 2
 357 338 436 416 445 416 c 0
 454 416 456 410 456 405 c 0
 456 396 437 374 406 333 c 0
 374 291 348 260 322 227 c 1
 354 190 384 149 406 120 c 0
 437 80 456 53 456 44 c 0
 456 38 450 33 444 33 c 0
 435 33 356 117 315 154 c 2
 234 227 l 1
42 227 m 1
 123 300 l 2
 165 338 244 416 253 416 c 0
 262 416 264 410 264 405 c 0
 264 396 245 374 214 333 c 0
 182 291 156 260 130 227 c 1
 162 190 192 149 214 120 c 0
 245 80 264 53 264 44 c 0
 264 38 258 33 252 33 c 0
 243 33 164 117 123 154 c 2
 42 227 l 1
EndSplineSet
EndChar

StartChar: logicalnot
Encoding: 172 172 133
Width: 600
Flags: MW
HStem: 327 66<48 486 48 552>
VStem: 486 66<115 327 327 327>
LayerCount: 2
Fore
SplineSet
552 115 m 1
 486 115 l 1
 486 327 l 1
 48 327 l 1
 48 393 l 1
 552 393 l 1
 552 115 l 1
EndSplineSet
EndChar

StartChar: uni00AD
Encoding: 173 173 134
Width: 333
Flags: MW
HStem: 194 63<39 285 39 285>
LayerCount: 2
Fore
SplineSet
285 194 m 1
 39 194 l 1
 39 257 l 1
 285 257 l 1
 285 194 l 1
EndSplineSet
EndChar

StartChar: registered
Encoding: 174 174 135
Width: 760
Flags: MW
HStem: -14 42<302.5 459 302.5 476.5> 314 19<332 375 375 380 332 375> 501 19<332 370 332 332> 634 42<301 458>
VStem: 38 55<248 412.5 248 428.5> 268 64<222 314 333 452 452 473> 444 67<402 441> 667 55<248 414.5>
LayerCount: 2
Fore
SplineSet
567 152 m 1
 503 152 l 2
 486 152 460 179 432 231 c 0
 420 253 418 257 380 314 c 1
 332 314 l 1
 332 222 l 2
 332 177 334 170 379 167 c 1
 379 152 l 1
 219 152 l 1
 220 167 l 1
 269 171 268 176 268 222 c 2
 268 452 l 2
 268 494 266 501 221 505 c 1
 221 520 l 1
 393 520 l 2
 468 520 511 482 511 422 c 0
 511 382 486 341 432 324 c 1
 489 245 l 2
 515 210 543 180 567 160 c 1
 567 152 l 1
332 333 m 1
 375 333 l 2
 419 333 444 370 444 418 c 0
 444 464 424 501 370 501 c 2
 332 501 l 1
 332 333 l 1
722 329 m 0
 722 137 572 -14 381 -14 c 0
 188 -14 38 138 38 332 c 0
 38 525 191 676 385 676 c 0
 571 676 722 521 722 329 c 0
667 330 m 0
 667 499 538 634 378 634 c 0
 224 634 93 494 93 331 c 0
 93 165 224 28 381 28 c 0
 537 28 667 166 667 330 c 0
EndSplineSet
EndChar

StartChar: macron
Encoding: 175 175 136
Width: 333
Flags: MW
HStem: 547 54<11 322 11 322>
LayerCount: 2
Fore
SplineSet
322 547 m 1
 11 547 l 1
 11 601 l 1
 322 601 l 1
 322 547 l 1
EndSplineSet
EndChar

StartChar: degree
Encoding: 176 176 137
Width: 400
Flags: MW
HStem: 390 34<171.5 228.5 171.5 240> 642 34<170.5 227>
VStem: 57 39<503 562.5 503 574> 304 39<504 563.5>
LayerCount: 2
Fore
SplineSet
343 533 m 0
 343 453 280 390 200 390 c 0
 119 390 57 453 57 534 c 0
 57 614 120 676 202 676 c 0
 280 676 343 612 343 533 c 0
304 534 m 0
 304 593 256 642 198 642 c 0
 143 642 96 592 96 533 c 0
 96 473 143 424 200 424 c 0
 257 424 304 474 304 534 c 0
EndSplineSet
EndChar

StartChar: plusminus
Encoding: 177 177 138
Width: 685
Flags: MW
HStem: -87 66<48 637 48 637> 242 66<48 309 48 309 375 637>
VStem: 309 66<33 242 33 242 308 502>
LayerCount: 2
Fore
SplineSet
637 242 m 1
 375 242 l 1
 375 33 l 1
 309 33 l 1
 309 242 l 1
 48 242 l 1
 48 308 l 1
 309 308 l 1
 309 502 l 1
 375 502 l 1
 375 308 l 1
 637 308 l 1
 637 242 l 1
637 -87 m 1
 48 -87 l 1
 48 -21 l 1
 637 -21 l 1
 637 -87 l 1
EndSplineSet
EndChar

StartChar: twosuperior
Encoding: 178 178 139
Width: 300
Flags: MW
HStem: 270 65<107 220 220 233.5 107 257> 616 60<108.5 134>
VStem: 185 92<542.5 561>
LayerCount: 2
Fore
SplineSet
296 355 m 1
 257 270 l 1
 6 270 l 1
 6 294 l 1
 107 402 l 2
 158 457 185 510 185 540 c 0
 185 582 154 616 114 616 c 0
 77 616 48 590 26 542 c 1
 1 557 l 1
 29 639 66 676 151 676 c 0
 229 676 277 630 277 567 c 0
 277 518 256 479 191 416 c 2
 107 335 l 1
 220 335 l 2
 247 335 263 340 278 362 c 1
 296 355 l 1
EndSplineSet
EndChar

StartChar: threesuperior
Encoding: 179 179 140
Width: 300
Flags: MW
HStem: 262 48<133 159.5> 443 20<120 148.5> 620 56<125.5 149.5>
VStem: 188 76<579 588> 210 81<360.5 407>
LayerCount: 2
Fore
SplineSet
204 511 m 1xf0
 204 509 l 1
 264 494 291 447 291 399 c 0
 291 320 215 262 104 262 c 0
 51 262 13 286 13 318 c 0
 13 339 30 349 50 349 c 0
 61 349 72 344 91 330 c 0
 113 314 124 310 142 310 c 0
 183 310 210 340 210 381 c 0xe8
 210 433 176 463 121 463 c 0
 119 463 117 463 93 460 c 1
 93 489 l 1
 163 513 188 537 188 573 c 0
 188 603 167 620 132 620 c 0
 96 620 73 606 46 562 c 1
 21 581 l 1
 57 648 95 676 156 676 c 0
 217 676 264 640 264 593 c 0
 264 565 252 535 204 511 c 1xf0
EndSplineSet
EndChar

StartChar: acute
Encoding: 180 180 141
Width: 333
Flags: MW
HStem: 658 20<274.5 293>
LayerCount: 2
Fore
SplineSet
93 507 m 1
 240 655 l 2
 258 673 267 678 282 678 c 0
 304 678 317 666 317 646 c 0
 317 630 308 617 287 604 c 2
 133 507 l 1
 93 507 l 1
EndSplineSet
EndChar

StartChar: mu
Encoding: 181 181 142
Width: 500
Flags: MW
HStem: -10 37<404.5 468.5> -10 62<206 241.5> 430 20<60 148 148 148 342 430 430 430>
VStem: 60 88<120.5 155 155 450> 342 88<115 450>
LayerCount: 2
Fore
SplineSet
430 450 m 1x78
 430 96 l 2
 430 50 438 27 461 27 c 0
 476 27 488 34 512 56 c 1
 512 47 l 1
 479 4 461 -10 423 -10 c 0xb8
 386 -10 349 21 347 80 c 1
 345 80 l 1
 312 19 269 -10 214 -10 c 0
 156 -10 122 13 91 64 c 1
 93 13 128 -88 128 -141 c 0
 128 -192 111 -218 80 -218 c 0
 51 -218 36 -185 36 -141 c 0
 36 -90 60 28 60 54 c 2
 60 450 l 1
 148 450 l 1
 148 155 l 2
 148 86 180 52 232 52 c 0
 283 52 322 74 342 115 c 1
 342 450 l 1
 430 450 l 1x78
EndSplineSet
EndChar

StartChar: paragraph
Encoding: 182 182 143
Width: 592
Flags: MW
HStem: 640 22<254 532 320 378 320 320>
VStem: 60 76<415.5 529 415.5 536> 254 66<-29 273 273 273 295 640 -154 640> 378 66<-76.5 -41 -41 542>
LayerCount: 2
Fore
SplineSet
532 -154 m 1
 378 -154 l 1
 378 640 l 1
 320 640 l 1
 320 -154 l 1
 165 -154 l 1
 165 -132 l 1
 243 -127 254 -113 254 -29 c 2
 254 273 l 1
 128 283 60 331 60 471 c 0
 60 601 122 662 269 662 c 2
 532 662 l 1
 532 643 l 1
 455 636 444 616 444 542 c 2
 444 -41 l 2
 444 -112 456 -126 532 -132 c 1
 532 -154 l 1
254 295 m 1
 254 640 l 1
 159 631 136 585 136 473 c 0
 136 358 168 304 254 295 c 1
EndSplineSet
EndChar

StartChar: periodcentered
Encoding: 183 183 144
Width: 250
Flags: MW
TopAccentHorizontal: 126
HStem: 199 111<110.5 140>
VStem: 70 111<238.5 268 238.5 269.5>
LayerCount: 2
Fore
SplineSet
181 253 m 0
 181 224 155 199 125 199 c 0
 94 199 70 223 70 254 c 0
 70 285 95 310 126 310 c 0
 155 310 181 283 181 253 c 0
EndSplineSet
EndChar

StartChar: cedilla
Encoding: 184 184 145
Width: 333
Flags: MW
HStem: -215 35<120.5 148 120.5 174.5> 0 20
VStem: 186 75<-149.5 -123>
LayerCount: 2
Fore
SplineSet
174 0 m 1
 149 -65 l 1
 159 -63 165 -62 175 -62 c 0
 229 -62 261 -87 261 -131 c 0
 261 -183 213 -215 136 -215 c 0
 105 -215 81 -211 52 -199 c 1
 66 -168 l 1
 93 -177 110 -180 131 -180 c 0
 165 -180 186 -163 186 -136 c 0
 186 -110 171 -100 133 -100 c 0
 121 -100 113 -101 105 -104 c 1
 98 -99 l 1
 139 0 l 1
 174 0 l 1
EndSplineSet
EndChar

StartChar: onesuperior
Encoding: 185 185 146
Width: 300
Flags: MW
HStem: 656 20<177 177>
VStem: 110 81<327 333 333 581 581 592.5>
LayerCount: 2
Fore
SplineSet
248 270 m 1
 57 270 l 1
 57 294 l 1
 100 297 110 304 110 327 c 2
 110 581 l 2
 110 604 107 611 101 611 c 0
 94 611 85 609 59 597 c 1
 59 621 l 1
 177 676 l 1
 191 672 l 1
 191 333 l 2
 191 307 205 294 248 294 c 1
 248 270 l 1
EndSplineSet
EndChar

StartChar: ordmasculine
Encoding: 186 186 147
Width: 310
Flags: MW
HStem: 394 33<147.5 183 147.5 195> 643 33<127.5 172.5>
VStem: 6 73<549.5 576> 231 73<500 553.5>
LayerCount: 2
Fore
SplineSet
304 542 m 0
 304 458 239 394 151 394 c 0
 67 394 6 452 6 533 c 0
 6 619 67 676 159 676 c 0
 244 676 304 621 304 542 c 0
231 516 m 0
 231 591 197 643 148 643 c 0
 107 643 79 613 79 569 c 0
 79 530 88 490 104 461 c 0
 116 439 135 427 160 427 c 0
 206 427 231 458 231 516 c 0
EndSplineSet
EndChar

StartChar: guillemotright
Encoding: 187 187 148
Width: 500
Flags: W
LayerCount: 2
Fore
SplineSet
458 222 m 1
 377 149 l 2
 335 111 256 33 247 33 c 0
 238 33 236 39 236 44 c 0
 236 53 255 75 286 116 c 0
 318 158 344 189 370 222 c 1
 338 259 308 300 286 329 c 0
 255 369 236 396 236 405 c 0
 236 411 242 416 248 416 c 0
 257 416 336 332 377 295 c 2
 458 222 l 1
265 222 m 1
 184 149 l 2
 142 111 63 33 54 33 c 0
 45 33 43 39 43 44 c 0
 43 53 62 75 93 116 c 0
 125 158 151 189 177 222 c 1
 145 259 115 300 93 329 c 0
 62 369 43 396 43 405 c 0
 43 411 49 416 55 416 c 0
 64 416 143 332 184 295 c 2
 265 222 l 1
EndSplineSet
EndChar

StartChar: onequarter
Encoding: 188 188 149
Width: 750
Flags: MW
HStem: -14 20 0 20 90 57<453 588 453 588 408 588 658 713> 656 20<152 152 586 632 632 632>
VStem: 95 71<327 333 333 581 581 592.5> 588 70<0 90 0 90 147 326 326 326>
LayerCount: 2
Fore
SplineSet
713 90 m 1x7c
 658 90 l 1
 658 0 l 1
 588 0 l 1
 588 90 l 1
 408 90 l 1
 408 139 l 1
 611 405 l 1
 658 405 l 1
 658 147 l 1
 713 147 l 1
 713 90 l 1x7c
588 147 m 1
 588 326 l 1
 453 147 l 1
 588 147 l 1
632 676 m 1
 182 -14 l 1
 133 -14 l 1x9c
 586 676 l 1
 632 676 l 1
223 270 m 1
 42 270 l 1
 42 294 l 1
 85 297 95 304 95 327 c 2
 95 581 l 2
 95 604 92 611 86 611 c 0
 79 611 70 609 44 597 c 1
 44 621 l 1
 152 676 l 1
 166 672 l 1
 166 333 l 2
 166 307 180 294 223 294 c 1
 223 270 l 1
EndSplineSet
EndChar

StartChar: onehalf
Encoding: 189 189 150
Width: 750
Flags: MW
HStem: -14 20 0 65<552 665 665 678.5 552 702> 346 60<553.5 579> 656 20<146 146 549 595 595 595>
VStem: 89 71<327 333 333 581 581 592.5> 630 92<272.5 291>
LayerCount: 2
Fore
SplineSet
741 85 m 1x7c
 702 0 l 1
 451 0 l 1
 451 24 l 1
 552 132 l 2
 603 187 630 240 630 270 c 0
 630 312 599 346 559 346 c 0
 522 346 493 320 471 272 c 1
 446 287 l 1
 474 369 511 406 596 406 c 0
 674 406 722 360 722 297 c 0
 722 248 701 209 636 146 c 2
 552 65 l 1
 665 65 l 2
 692 65 708 70 723 92 c 1
 741 85 l 1x7c
595 676 m 1
 145 -14 l 1
 96 -14 l 1x9c
 549 676 l 1
 595 676 l 1
217 270 m 1
 36 270 l 1
 36 294 l 1
 79 297 89 304 89 327 c 2
 89 581 l 2
 89 604 86 611 80 611 c 0
 73 611 64 609 38 597 c 1
 38 621 l 1
 146 676 l 1
 160 672 l 1
 160 333 l 2
 160 307 174 294 217 294 c 1
 217 270 l 1
EndSplineSet
EndChar

StartChar: threequarters
Encoding: 190 190 151
Width: 750
Flags: MW
HStem: -14 20 0 20 90 57<458 593 458 593 413 593 663 718> 262 48<133 159.5> 443 20<120 148.5> 620 56<125.5 149.5>
VStem: 188 76<579 588> 210 81<360.5 407> 593 70<0 90 0 90 147 326 326 326>
LayerCount: 2
Fore
SplineSet
718 90 m 1x6680
 663 90 l 1
 663 0 l 1
 593 0 l 1
 593 90 l 1
 413 90 l 1
 413 139 l 1
 616 405 l 1
 663 405 l 1
 663 147 l 1
 718 147 l 1
 718 90 l 1x6680
593 147 m 1
 593 326 l 1
 458 147 l 1
 593 147 l 1
637 676 m 1
 187 -14 l 1
 138 -14 l 1x9e80
 591 676 l 1
 637 676 l 1
204 511 m 1
 204 509 l 1
 264 494 291 447 291 399 c 0
 291 320 215 262 104 262 c 0
 51 262 13 286 13 318 c 0
 13 339 30 349 50 349 c 0
 61 349 72 344 91 330 c 0
 113 314 124 310 142 310 c 0
 183 310 210 340 210 381 c 0x9d
 210 433 176 463 121 463 c 0
 119 463 117 463 93 460 c 1
 93 489 l 1
 163 513 188 537 188 573 c 0
 188 603 167 620 132 620 c 0
 96 620 73 606 46 562 c 1
 21 581 l 1
 57 648 95 676 156 676 c 0
 217 676 264 640 264 593 c 0
 264 565 252 535 204 511 c 1
EndSplineSet
EndChar

StartChar: questiondown
Encoding: 191 191 152
Width: 444
Flags: MW
HStem: -218 30<200.5 255 200.5 260> -11 20 361 106<191.5 221>
VStem: 30 92<-82 -45.5 -102 -32.5> 154 106<400.5 430.5 400.5 431> 325 51<-142 -52.5>
LayerCount: 2
Fore
SplineSet
260 416 m 0
 260 385 236 361 206 361 c 0
 176 361 154 385 154 416 c 0
 154 446 176 467 207 467 c 0
 237 467 260 445 260 416 c 0
200 294 m 1
 217 294 l 1
 216 250 212 203 159 88 c 0
 133 32 122 -22 122 -69 c 0
 122 -135 170 -188 231 -188 c 0
 279 -188 325 -158 325 -126 c 0
 325 -117 320 -109 308 -95 c 0
 293 -78 287 -67 287 -52 c 0
 287 -27 303 -11 328 -11 c 0
 359 -11 376 -32 376 -73 c 0
 376 -156 306 -218 214 -218 c 0
 159 -218 101 -195 66 -160 c 0
 43 -137 30 -101 30 -63 c 0
 30 -2 52 35 135 140 c 0
 173 188 188 226 200 294 c 1
EndSplineSet
EndChar

StartChar: Agrave
Encoding: 192 192 153
Width: 722
Flags: MW
HStem: 0 20 216 41<216 447 216 461 199 447>
LayerCount: 2
Fore
SplineSet
451 757 m 1
 411 757 l 1
 257 853 l 2
 238 865 227 880 227 896 c 0
 227 917 241 928 263 928 c 0
 278 928 289 923 306 905 c 2
 451 757 l 1
707 0 m 1
 452 0 l 1
 452 19 l 1
 488 19 495 21 507 28 c 0
 515 32 521 43 521 52 c 0
 521 67 514 94 502 122 c 2
 461 216 l 1
 199 216 l 1
 153 102 l 2
 148 89 144 72 144 60 c 0
 144 29 166 19 214 19 c 1
 214 0 l 1
 15 0 l 1
 15 19 l 1
 73 25 82 46 141 186 c 2
 347 674 l 1
 367 674 l 1
 613 111 l 2
 641 46 655 25 707 19 c 1
 707 0 l 1
447 257 m 1
 331 532 l 1
 216 257 l 1
 447 257 l 1
EndSplineSet
EndChar

StartChar: Aacute
Encoding: 193 193 154
Width: 722
Flags: MW
HStem: 0 20 216 41<216 447 216 461 199 447>
LayerCount: 2
Fore
SplineSet
276 757 m 1
 423 905 l 2
 441 923 450 928 465 928 c 0
 487 928 500 916 500 896 c 0
 500 880 491 867 470 854 c 2
 316 757 l 1
 276 757 l 1
707 0 m 1
 452 0 l 1
 452 19 l 1
 488 19 495 21 507 28 c 0
 515 32 521 43 521 52 c 0
 521 67 514 94 502 122 c 2
 461 216 l 1
 199 216 l 1
 153 102 l 2
 148 89 144 72 144 60 c 0
 144 29 166 19 214 19 c 1
 214 0 l 1
 15 0 l 1
 15 19 l 1
 73 25 82 46 141 186 c 2
 347 674 l 1
 367 674 l 1
 613 111 l 2
 641 46 655 25 707 19 c 1
 707 0 l 1
447 257 m 1
 331 532 l 1
 216 257 l 1
 447 257 l 1
EndSplineSet
EndChar

StartChar: Acircumflex
Encoding: 194 194 155
Width: 722
Flags: MW
HStem: 0 20 216 41<216 447 216 461 199 447>
LayerCount: 2
Fore
SplineSet
513 757 m 1
 479 757 l 1
 357 860 l 1
 236 757 l 1
 202 757 l 1
 326 924 l 1
 388 924 l 1
 513 757 l 1
707 0 m 1
 452 0 l 1
 452 19 l 1
 488 19 495 21 507 28 c 0
 515 32 521 43 521 52 c 0
 521 67 514 94 502 122 c 2
 461 216 l 1
 199 216 l 1
 153 102 l 2
 148 89 144 72 144 60 c 0
 144 29 166 19 214 19 c 1
 214 0 l 1
 15 0 l 1
 15 19 l 1
 73 25 82 46 141 186 c 2
 347 674 l 1
 367 674 l 1
 613 111 l 2
 641 46 655 25 707 19 c 1
 707 0 l 1
447 257 m 1
 331 532 l 1
 216 257 l 1
 447 257 l 1
EndSplineSet
EndChar

StartChar: Atilde
Encoding: 195 195 156
Width: 722
Flags: MW
HStem: 0 20 216 41<216 447 216 461 199 447> 782 56<434.5 446.5> 828 55<270 280>
LayerCount: 2
Fore
SplineSet
495 888 m 1x20
 524 888 l 1
 503 812 474 782 419 782 c 0xe0
 394 782 379 786 338 806 c 2
 315 817 l 2
 300 824 286 828 274 828 c 0x10
 251 828 234 813 223 782 c 1
 194 782 l 1x20
 209 847 245 883 295 883 c 0x10
 317 883 341 877 365 865 c 2
 389 853 l 2
 408 843 427 838 442 838 c 0
 465 838 478 851 495 888 c 1x20
707 0 m 1
 452 0 l 1
 452 19 l 1
 488 19 495 21 507 28 c 0
 515 32 521 43 521 52 c 0
 521 67 514 94 502 122 c 2
 461 216 l 1
 199 216 l 1
 153 102 l 2
 148 89 144 72 144 60 c 0
 144 29 166 19 214 19 c 1
 214 0 l 1
 15 0 l 1
 15 19 l 1
 73 25 82 46 141 186 c 2
 347 674 l 1
 367 674 l 1
 613 111 l 2
 641 46 655 25 707 19 c 1
 707 0 l 1
447 257 m 1
 331 532 l 1
 216 257 l 1
 447 257 l 1
EndSplineSet
EndChar

StartChar: Adieresis
Encoding: 196 196 157
Width: 722
Flags: MW
HStem: 0 20 216 41<216 447 216 461 199 447> 773 99<245.5 272 444.5 471>
VStem: 210 99<809 835.5 808.5 836.5> 409 99<809 835.5 808.5 836.5>
LayerCount: 2
Fore
SplineSet
508 822 m 0
 508 795 485 773 457 773 c 0
 430 773 409 795 409 823 c 0
 409 850 431 872 458 872 c 0
 485 872 508 849 508 822 c 0
309 822 m 0
 309 795 286 773 258 773 c 0
 231 773 210 795 210 823 c 0
 210 850 232 872 259 872 c 0
 286 872 309 849 309 822 c 0
707 0 m 1
 452 0 l 1
 452 19 l 1
 488 19 495 21 507 28 c 0
 515 32 521 43 521 52 c 0
 521 67 514 94 502 122 c 2
 461 216 l 1
 199 216 l 1
 153 102 l 2
 148 89 144 72 144 60 c 0
 144 29 166 19 214 19 c 1
 214 0 l 1
 15 0 l 1
 15 19 l 1
 73 25 82 46 141 186 c 2
 347 674 l 1
 367 674 l 1
 613 111 l 2
 641 46 655 25 707 19 c 1
 707 0 l 1
447 257 m 1
 331 532 l 1
 216 257 l 1
 447 257 l 1
EndSplineSet
EndChar

StartChar: Aring
Encoding: 197 197 158
Width: 722
Flags: MW
HStem: 0 20 216 41<216 447 216 461 199 447> 762 34<340.5 377 340.5 386> 927 34<341 376.5>
VStem: 260 34<843.5 879.5 843.5 889.5> 425 34<843.5 880>
LayerCount: 2
Fore
SplineSet
459 861 m 0
 459 806 414 762 358 762 c 0
 303 762 260 806 260 862 c 0
 260 917 305 961 361 961 c 0
 414 961 459 915 459 861 c 0
425 862 m 0
 425 898 395 927 358 927 c 0
 324 927 294 897 294 862 c 0
 294 825 323 796 358 796 c 0
 396 796 425 825 425 862 c 0
707 0 m 1
 452 0 l 1
 452 19 l 1
 488 19 495 21 507 28 c 0
 515 32 521 43 521 52 c 0
 521 67 514 94 502 122 c 2
 461 216 l 1
 199 216 l 1
 153 102 l 2
 148 89 144 72 144 60 c 0
 144 29 166 19 214 19 c 1
 214 0 l 1
 15 0 l 1
 15 19 l 1
 73 25 82 46 141 186 c 2
 347 674 l 1
 367 674 l 1
 613 111 l 2
 641 46 655 25 707 19 c 1
 707 0 l 1
447 257 m 1
 331 532 l 1
 216 257 l 1
 447 257 l 1
EndSplineSet
EndChar

StartChar: AE
Encoding: 198 198 159
Width: 889
Flags: MW
HStem: 0 38<567 640 640 696> 260 39<240 398 240 398 222 398> 329 37<497 601 601 638 497 601> 626 36<515.5 525 525 609>
LayerCount: 2
Fore
SplineSet
863 168 m 1
 819 0 l 1
 310 0 l 1
 310 19 l 1
 327 21 l 2
 389 28 398 46 398 112 c 2
 398 260 l 1
 222 260 l 1
 153 129 130 71 130 48 c 0
 130 34 154 23 197 19 c 1
 198 19 l 1
 198 0 l 1
 0 0 l 1
 0 19 l 1
 43 25 58 38 88 97 c 2
 333 581 l 2
 339 592 342 603 342 609 c 0
 342 631 314 642 252 642 c 1
 252 662 l 1
 816 662 l 1
 816 521 l 1
 793 521 l 1
 780 612 755 626 609 626 c 2
 525 626 l 2
 506 626 497 611 497 589 c 2
 497 366 l 1
 601 366 l 2
 699 366 738 383 740 464 c 1
 761 464 l 1
 761 229 l 1
 740 229 l 1
 731 308 707 329 638 329 c 2
 497 329 l 1
 497 94 l 2
 497 44 503 38 567 38 c 2
 640 38 l 2
 752 38 786 58 839 168 c 1
 863 168 l 1
398 299 m 1
 398 618 l 1
 240 299 l 1
 398 299 l 1
EndSplineSet
EndChar

StartChar: Ccedilla
Encoding: 199 199 160
Width: 667
Flags: MW
HStem: -215 35<287.5 315 287.5 341.5> -14 44<356.5 416.5> 636 40<328 386.5 328 434>
VStem: 353 75<-149.5 -123>
LayerCount: 2
Fore
SplineSet
614 131 m 1
 633 113 l 1
 575 30 473 -14 360 -14 c 0
 352 -14 345 -14 336 -13 c 1
 316 -65 l 1
 326 -63 332 -62 342 -62 c 0
 396 -62 428 -87 428 -131 c 0
 428 -183 380 -215 303 -215 c 0
 272 -215 248 -211 219 -199 c 1
 233 -168 l 1
 260 -177 277 -180 298 -180 c 0
 332 -180 353 -163 353 -136 c 0
 353 -110 338 -100 300 -100 c 0
 288 -100 280 -101 272 -104 c 1
 265 -99 l 1
 302 -10 l 1
 227 0 163 32 116 81 c 0
 60 140 28 225 28 329 c 0
 28 454 77 552 167 616 c 0
 224 656 294 676 362 676 c 0
 411 676 460 669 509 652 c 0
 525 647 539 643 549 643 c 0
 568 643 584 655 590 676 c 1
 611 676 l 1
 620 450 l 1
 597 450 l 1
 582 555 486 636 382 636 c 0
 237 636 144 520 144 346 c 0
 144 251 166 161 211 108 c 0
 255 56 321 30 392 30 c 0
 475 30 540 60 614 131 c 1
EndSplineSet
EndChar

StartChar: Egrave
Encoding: 200 200 161
Width: 611
Flags: MW
HStem: 0 37<302 338 338 409.5> 327 41<201 352 201 352> 624 38<222 236 236 367>
LayerCount: 2
Fore
SplineSet
402 757 m 1
 362 757 l 1
 208 853 l 2
 189 865 178 880 178 896 c 0
 178 917 192 928 214 928 c 0
 229 928 240 923 257 905 c 2
 402 757 l 1
597 169 m 1
 551 0 l 1
 12 0 l 1
 12 19 l 1
 89 24 99 37 99 114 c 2
 99 550 l 2
 99 624 87 639 12 643 c 1
 12 662 l 1
 542 662 l 1
 546 519 l 1
 521 519 l 1
 506 609 483 624 367 624 c 2
 236 624 l 2
 208 624 201 620 201 588 c 2
 201 368 l 1
 352 368 l 2
 438 368 453 385 465 464 c 1
 488 464 l 1
 488 230 l 1
 465 230 l 1
 453 314 438 327 352 327 c 2
 201 327 l 1
 201 84 l 2
 201 42 228 37 302 37 c 2
 338 37 l 2
 481 37 524 63 569 169 c 1
 597 169 l 1
EndSplineSet
EndChar

StartChar: Eacute
Encoding: 201 201 162
Width: 611
Flags: MW
HStem: 0 37<302 338 338 409.5> 327 41<201 352 201 352> 624 38<222 236 236 367>
LayerCount: 2
Fore
SplineSet
245 757 m 1
 392 905 l 2
 410 923 419 928 434 928 c 0
 456 928 469 916 469 896 c 0
 469 880 460 867 439 854 c 2
 285 757 l 1
 245 757 l 1
597 169 m 1
 551 0 l 1
 12 0 l 1
 12 19 l 1
 89 24 99 37 99 114 c 2
 99 550 l 2
 99 624 87 639 12 643 c 1
 12 662 l 1
 542 662 l 1
 546 519 l 1
 521 519 l 1
 506 609 483 624 367 624 c 2
 236 624 l 2
 208 624 201 620 201 588 c 2
 201 368 l 1
 352 368 l 2
 438 368 453 385 465 464 c 1
 488 464 l 1
 488 230 l 1
 465 230 l 1
 453 314 438 327 352 327 c 2
 201 327 l 1
 201 84 l 2
 201 42 228 37 302 37 c 2
 338 37 l 2
 481 37 524 63 569 169 c 1
 597 169 l 1
EndSplineSet
EndChar

StartChar: Ecircumflex
Encoding: 202 202 163
Width: 611
Flags: MW
HStem: 0 37<302 338 338 409.5> 327 41<201 352 201 352> 624 38<222 236 236 367>
LayerCount: 2
Fore
SplineSet
483 757 m 1
 449 757 l 1
 327 860 l 1
 206 757 l 1
 172 757 l 1
 296 924 l 1
 358 924 l 1
 483 757 l 1
597 169 m 1
 551 0 l 1
 12 0 l 1
 12 19 l 1
 89 24 99 37 99 114 c 2
 99 550 l 2
 99 624 87 639 12 643 c 1
 12 662 l 1
 542 662 l 1
 546 519 l 1
 521 519 l 1
 506 609 483 624 367 624 c 2
 236 624 l 2
 208 624 201 620 201 588 c 2
 201 368 l 1
 352 368 l 2
 438 368 453 385 465 464 c 1
 488 464 l 1
 488 230 l 1
 465 230 l 1
 453 314 438 327 352 327 c 2
 201 327 l 1
 201 84 l 2
 201 42 228 37 302 37 c 2
 338 37 l 2
 481 37 524 63 569 169 c 1
 597 169 l 1
EndSplineSet
EndChar

StartChar: Edieresis
Encoding: 203 203 164
Width: 611
Flags: MW
HStem: 0 37<302 338 338 409.5> 327 41<201 352 201 352> 624 38<222 236 236 367> 773 99<212.5 239 411.5 438>
VStem: 177 99<809 835.5 808.5 836.5> 376 99<809 835.5 808.5 836.5>
LayerCount: 2
Fore
SplineSet
475 822 m 0
 475 795 452 773 424 773 c 0
 397 773 376 795 376 823 c 0
 376 850 398 872 425 872 c 0
 452 872 475 849 475 822 c 0
276 822 m 0
 276 795 253 773 225 773 c 0
 198 773 177 795 177 823 c 0
 177 850 199 872 226 872 c 0
 253 872 276 849 276 822 c 0
597 169 m 1
 551 0 l 1
 12 0 l 1
 12 19 l 1
 89 24 99 37 99 114 c 2
 99 550 l 2
 99 624 87 639 12 643 c 1
 12 662 l 1
 542 662 l 1
 546 519 l 1
 521 519 l 1
 506 609 483 624 367 624 c 2
 236 624 l 2
 208 624 201 620 201 588 c 2
 201 368 l 1
 352 368 l 2
 438 368 453 385 465 464 c 1
 488 464 l 1
 488 230 l 1
 465 230 l 1
 453 314 438 327 352 327 c 2
 201 327 l 1
 201 84 l 2
 201 42 228 37 302 37 c 2
 338 37 l 2
 481 37 524 63 569 169 c 1
 597 169 l 1
EndSplineSet
EndChar

StartChar: Igrave
Encoding: 204 204 165
Width: 333
Flags: MW
HStem: 0 20 642 20<18 315 315 315>
LayerCount: 2
Fore
SplineSet
269 757 m 1
 229 757 l 1
 75 853 l 2
 56 865 45 880 45 896 c 0
 45 917 59 928 81 928 c 0
 96 928 107 923 124 905 c 2
 269 757 l 1
315 0 m 1
 18 0 l 1
 18 19 l 1
 102 22 115 34 115 112 c 2
 115 551 l 2
 115 630 103 638 18 643 c 1
 18 662 l 1
 315 662 l 1
 315 643 l 1
 231 639 217 627 217 551 c 2
 217 112 l 2
 217 37 233 22 315 19 c 1
 315 0 l 1
EndSplineSet
EndChar

StartChar: Iacute
Encoding: 205 205 166
Width: 333
Flags: MW
HStem: 0 20 642 20<18 315 315 315>
LayerCount: 2
Fore
SplineSet
64 757 m 1
 211 905 l 2
 229 923 238 928 253 928 c 0
 275 928 288 916 288 896 c 0
 288 880 279 867 258 854 c 2
 104 757 l 1
 64 757 l 1
315 0 m 1
 18 0 l 1
 18 19 l 1
 102 22 115 34 115 112 c 2
 115 551 l 2
 115 630 103 638 18 643 c 1
 18 662 l 1
 315 662 l 1
 315 643 l 1
 231 639 217 627 217 551 c 2
 217 112 l 2
 217 37 233 22 315 19 c 1
 315 0 l 1
EndSplineSet
EndChar

StartChar: Icircumflex
Encoding: 206 206 167
Width: 333
Flags: MW
HStem: 0 20 642 20<10 307 307 307>
LayerCount: 2
Fore
SplineSet
321 757 m 1
 287 757 l 1
 165 860 l 1
 44 757 l 1
 10 757 l 1
 134 924 l 1
 196 924 l 1
 321 757 l 1
307 0 m 1
 10 0 l 1
 10 19 l 1
 94 22 107 34 107 112 c 2
 107 551 l 2
 107 630 95 638 10 643 c 1
 10 662 l 1
 307 662 l 1
 307 643 l 1
 223 639 209 627 209 551 c 2
 209 112 l 2
 209 37 225 22 307 19 c 1
 307 0 l 1
EndSplineSet
EndChar

StartChar: Idieresis
Encoding: 207 207 168
Width: 333
Flags: MW
HStem: 0 20 642 20<17 314 314 314> 773 99<52.5 79 251.5 278>
VStem: 17 99<809 835.5 808.5 836.5> 216 99<809 835.5 808.5 836.5>
LayerCount: 2
Fore
SplineSet
315 822 m 0
 315 795 292 773 264 773 c 0
 237 773 216 795 216 823 c 0
 216 850 238 872 265 872 c 0
 292 872 315 849 315 822 c 0
116 822 m 0
 116 795 93 773 65 773 c 0
 38 773 17 795 17 823 c 0
 17 850 39 872 66 872 c 0
 93 872 116 849 116 822 c 0
314 0 m 1
 17 0 l 1
 17 19 l 1
 101 22 114 34 114 112 c 2
 114 551 l 2
 114 630 102 638 17 643 c 1
 17 662 l 1
 314 662 l 1
 314 643 l 1
 230 639 216 627 216 551 c 2
 216 112 l 2
 216 37 232 22 314 19 c 1
 314 0 l 1
EndSplineSet
EndChar

StartChar: Eth
Encoding: 208 208 169
Width: 722
Flags: MW
HStem: 0 37<237.5 300> 315 44<21 104 21 104 206 352> 625 37<235.5 286 286 299.5>
LayerCount: 2
Fore
SplineSet
16 662 m 1
 286 662 l 2
 537 662 685 541 685 334 c 0
 685 233 645 140 575 82 c 0
 513 31 411 0 300 0 c 2
 16 0 l 1
 16 19 l 1
 92 24 104 37 104 109 c 2
 104 315 l 1
 21 315 l 1
 21 359 l 1
 104 359 l 1
 104 553 l 2
 104 627 95 636 16 643 c 1
 16 662 l 1
206 315 m 1
 206 78 l 2
 206 46 218 37 257 37 c 0
 345 37 403 49 454 78 c 0
 535 125 576 209 576 327 c 0
 576 436 533 524 454 577 c 0
 406 610 344 625 255 625 c 0
 216 625 206 617 206 586 c 2
 206 359 l 1
 352 359 l 1
 352 315 l 1
 206 315 l 1
EndSplineSet
EndChar

StartChar: Ntilde
Encoding: 209 209 170
Width: 722
Flags: MW
HStem: -11 20 0 20 642 20<12 182 182 182 470 707 707 707> 782 56<428.5 440.5> 828 55<264 274>
VStem: 109 44<150 538> 568 44<179 507 -11 519 -11 544.5>
LayerCount: 2
Fore
SplineSet
489 888 m 1x16
 518 888 l 1
 497 812 468 782 413 782 c 0x76
 388 782 373 786 332 806 c 2
 309 817 l 2
 294 824 280 828 268 828 c 0x0e
 245 828 228 813 217 782 c 1
 188 782 l 1x16
 203 847 239 883 289 883 c 0x0e
 311 883 335 877 359 865 c 2
 383 853 l 2
 402 843 421 838 436 838 c 0
 459 838 472 851 489 888 c 1x16
707 662 m 1
 707 643 l 1
 669 639 654 636 641 625 c 0
 622 608 612 586 612 507 c 2
 612 -11 l 1
 594 -11 l 1xa6
 153 538 l 1
 153 150 l 2
 153 47 169 30 246 19 c 1
 246 0 l 1
 12 0 l 1
 12 19 l 1
 94 28 109 43 109 150 c 2
 109 590 l 1
 76 631 61 643 12 643 c 1
 12 662 l 1
 182 662 l 1
 568 179 l 1
 568 519 l 2
 568 570 564 600 549 617 c 0
 532 636 514 638 470 643 c 1
 470 662 l 1
 707 662 l 1
EndSplineSet
EndChar

StartChar: Ograve
Encoding: 210 210 171
Width: 722
Flags: MW
HStem: -14 36<339 387 339 457> 640 36<333 383.5>
LayerCount: 2
Fore
SplineSet
450 757 m 1
 410 757 l 1
 256 853 l 2
 237 865 226 880 226 896 c 0
 226 917 240 928 262 928 c 0
 277 928 288 923 305 905 c 2
 450 757 l 1
688 331 m 0
 688 125 553 -14 361 -14 c 0
 167 -14 34 126 34 334 c 0
 34 537 166 676 361 676 c 0
 557 676 688 529 688 331 c 0
574 337 m 0
 574 451 540 545 483 593 c 0
 447 623 407 640 360 640 c 0
 306 640 256 618 217 573 c 0
 174 524 148 427 148 332 c 0
 148 213 177 123 238 67 c 0
 272 36 316 22 362 22 c 0
 412 22 456 37 491 70 c 0
 546 123 574 217 574 337 c 0
EndSplineSet
EndChar

StartChar: Oacute
Encoding: 211 211 172
Width: 722
Flags: MW
HStem: -14 36<339 387 339 457> 640 36<333 383.5>
LayerCount: 2
Fore
SplineSet
259 757 m 1
 406 905 l 2
 424 923 433 928 448 928 c 0
 470 928 483 916 483 896 c 0
 483 880 474 867 453 854 c 2
 299 757 l 1
 259 757 l 1
688 331 m 0
 688 125 553 -14 361 -14 c 0
 167 -14 34 126 34 334 c 0
 34 537 166 676 361 676 c 0
 557 676 688 529 688 331 c 0
574 337 m 0
 574 451 540 545 483 593 c 0
 447 623 407 640 360 640 c 0
 306 640 256 618 217 573 c 0
 174 524 148 427 148 332 c 0
 148 213 177 123 238 67 c 0
 272 36 316 22 362 22 c 0
 412 22 456 37 491 70 c 0
 546 123 574 217 574 337 c 0
EndSplineSet
EndChar

StartChar: Ocircumflex
Encoding: 212 212 173
Width: 722
Flags: MW
HStem: -14 36<339 387 339 457> 640 36<333 383.5>
LayerCount: 2
Fore
SplineSet
510 757 m 1
 476 757 l 1
 354 860 l 1
 233 757 l 1
 199 757 l 1
 323 924 l 1
 385 924 l 1
 510 757 l 1
688 331 m 0
 688 125 553 -14 361 -14 c 0
 167 -14 34 126 34 334 c 0
 34 537 166 676 361 676 c 0
 557 676 688 529 688 331 c 0
574 337 m 0
 574 451 540 545 483 593 c 0
 447 623 407 640 360 640 c 0
 306 640 256 618 217 573 c 0
 174 524 148 427 148 332 c 0
 148 213 177 123 238 67 c 0
 272 36 316 22 362 22 c 0
 412 22 456 37 491 70 c 0
 546 123 574 217 574 337 c 0
EndSplineSet
EndChar

StartChar: Otilde
Encoding: 213 213 174
Width: 722
Flags: MW
HStem: -14 36<339 387 339 457> 640 36<333 383.5> 782 56<428.5 440.5> 828 55<264 274>
LayerCount: 2
Fore
SplineSet
489 888 m 1x20
 518 888 l 1
 497 812 468 782 413 782 c 0xe0
 388 782 373 786 332 806 c 2
 309 817 l 2
 294 824 280 828 268 828 c 0x10
 245 828 228 813 217 782 c 1
 188 782 l 1x20
 203 847 239 883 289 883 c 0x10
 311 883 335 877 359 865 c 2
 383 853 l 2
 402 843 421 838 436 838 c 0
 459 838 472 851 489 888 c 1x20
688 331 m 0
 688 125 553 -14 361 -14 c 0
 167 -14 34 126 34 334 c 0
 34 537 166 676 361 676 c 0
 557 676 688 529 688 331 c 0
574 337 m 0
 574 451 540 545 483 593 c 0
 447 623 407 640 360 640 c 0
 306 640 256 618 217 573 c 0
 174 524 148 427 148 332 c 0
 148 213 177 123 238 67 c 0
 272 36 316 22 362 22 c 0
 412 22 456 37 491 70 c 0
 546 123 574 217 574 337 c 0
EndSplineSet
EndChar

StartChar: Odieresis
Encoding: 214 214 175
Width: 722
Flags: MW
HStem: -14 36<339 387 339 457> 640 36<333 383.5> 773 99<240.5 267 439.5 466>
VStem: 205 99<809 835.5 808.5 836.5> 404 99<809 835.5 808.5 836.5>
LayerCount: 2
Fore
SplineSet
503 822 m 0
 503 795 480 773 452 773 c 0
 425 773 404 795 404 823 c 0
 404 850 426 872 453 872 c 0
 480 872 503 849 503 822 c 0
304 822 m 0
 304 795 281 773 253 773 c 0
 226 773 205 795 205 823 c 0
 205 850 227 872 254 872 c 0
 281 872 304 849 304 822 c 0
688 331 m 0
 688 125 553 -14 361 -14 c 0
 167 -14 34 126 34 334 c 0
 34 537 166 676 361 676 c 0
 557 676 688 529 688 331 c 0
574 337 m 0
 574 451 540 545 483 593 c 0
 447 623 407 640 360 640 c 0
 306 640 256 618 217 573 c 0
 174 524 148 427 148 332 c 0
 148 213 177 123 238 67 c 0
 272 36 316 22 362 22 c 0
 412 22 456 37 491 70 c 0
 546 123 574 217 574 337 c 0
EndSplineSet
EndChar

StartChar: multiply
Encoding: 215 215 176
Width: 640
Flags: W
LayerCount: 2
Fore
SplineSet
597 22 m 1
 551 -25 l 1
 320 205 l 1
 89 -25 l 1
 43 21 l 1
 273 252 l 1
 43 483 l 1
 90 529 l 1
 320 299 l 1
 551 529 l 1
 597 484 l 1
 367 252 l 1
 597 22 l 1
EndSplineSet
EndChar

StartChar: Oslash
Encoding: 216 216 177
Width: 722
Flags: MW
HStem: -14 36<332 427 332 456.5> 640 36<295.5 389>
LayerCount: 2
Fore
SplineSet
658 734 m 1
 570 604 l 1
 613 564 631 543 649 505 c 0
 672 457 688 393 688 332 c 0
 688 127 554 -14 359 -14 c 0
 292 -14 246 -1 184 36 c 1
 105 -80 l 1
 56 -80 l 1
 151 59 l 1
 107 99 90 120 72 158 c 0
 48 207 34 269 34 330 c 0
 34 533 169 676 362 676 c 0
 428 676 473 663 537 627 c 1
 609 734 l 1
 658 734 l 1
194 123 m 1
 502 575 l 1
 458 621 417 640 361 640 c 0
 230 640 148 521 148 330 c 0
 148 242 160 187 194 123 c 1
527 540 m 1
 219 88 l 1
 262 41 303 22 361 22 c 0
 493 22 574 139 574 330 c 0
 574 419 561 475 527 540 c 1
EndSplineSet
EndChar

StartChar: Ugrave
Encoding: 217 217 178
Width: 722
Flags: MW
HStem: -14 44<349.5 401> 642 20<14 297 297 297 473 705 705 705>
VStem: 567 44<250 261 261 513 513 516>
LayerCount: 2
Fore
SplineSet
453 757 m 1
 413 757 l 1
 259 853 l 2
 240 865 229 880 229 896 c 0
 229 917 243 928 265 928 c 0
 280 928 291 923 308 905 c 2
 453 757 l 1
705 662 m 1
 705 643 l 1
 621 635 611 611 611 516 c 2
 611 261 l 2
 611 164 602 110 557 59 c 0
 515 11 447 -14 355 -14 c 0
 282 -14 226 1 185 32 c 0
 130 73 104 143 104 249 c 2
 104 559 l 2
 104 626 93 637 14 643 c 1
 14 662 l 1
 297 662 l 1
 297 643 l 1
 217 636 206 624 206 549 c 2
 206 237 l 2
 206 159 210 114 250 75 c 0
 279 47 321 30 378 30 c 0
 442 30 498 52 530 89 c 1
 563 129 567 169 567 250 c 2
 567 513 l 2
 567 616 554 638 473 643 c 1
 473 662 l 1
 705 662 l 1
EndSplineSet
EndChar

StartChar: Uacute
Encoding: 218 218 179
Width: 722
Flags: MW
HStem: -14 44<349.5 401> 642 20<14 297 297 297 473 705 705 705>
VStem: 567 44<250 261 261 513 513 516>
LayerCount: 2
Fore
SplineSet
264 757 m 1
 411 905 l 2
 429 923 438 928 453 928 c 0
 475 928 488 916 488 896 c 0
 488 880 479 867 458 854 c 2
 304 757 l 1
 264 757 l 1
705 662 m 1
 705 643 l 1
 621 635 611 611 611 516 c 2
 611 261 l 2
 611 164 602 110 557 59 c 0
 515 11 447 -14 355 -14 c 0
 282 -14 226 1 185 32 c 0
 130 73 104 143 104 249 c 2
 104 559 l 2
 104 626 93 637 14 643 c 1
 14 662 l 1
 297 662 l 1
 297 643 l 1
 217 636 206 624 206 549 c 2
 206 237 l 2
 206 159 210 114 250 75 c 0
 279 47 321 30 378 30 c 0
 442 30 498 52 530 89 c 1
 563 129 567 169 567 250 c 2
 567 513 l 2
 567 616 554 638 473 643 c 1
 473 662 l 1
 705 662 l 1
EndSplineSet
EndChar

StartChar: Ucircumflex
Encoding: 219 219 180
Width: 722
Flags: MW
HStem: -14 44<349.5 401> 642 20<14 297 297 297 473 705 705 705>
VStem: 567 44<250 261 261 513 513 516>
LayerCount: 2
Fore
SplineSet
511 757 m 1
 477 757 l 1
 355 860 l 1
 234 757 l 1
 200 757 l 1
 324 924 l 1
 386 924 l 1
 511 757 l 1
705 662 m 1
 705 643 l 1
 621 635 611 611 611 516 c 2
 611 261 l 2
 611 164 602 110 557 59 c 0
 515 11 447 -14 355 -14 c 0
 282 -14 226 1 185 32 c 0
 130 73 104 143 104 249 c 2
 104 559 l 2
 104 626 93 637 14 643 c 1
 14 662 l 1
 297 662 l 1
 297 643 l 1
 217 636 206 624 206 549 c 2
 206 237 l 2
 206 159 210 114 250 75 c 0
 279 47 321 30 378 30 c 0
 442 30 498 52 530 89 c 1
 563 129 567 169 567 250 c 2
 567 513 l 2
 567 616 554 638 473 643 c 1
 473 662 l 1
 705 662 l 1
EndSplineSet
EndChar

StartChar: Udieresis
Encoding: 220 220 181
Width: 722
Flags: MW
HStem: -14 44<349.5 401> 642 20<14 297 297 297 473 705 705 705> 773 99<240.5 267 439.5 466>
VStem: 205 99<809 835.5 808.5 836.5> 404 99<809 835.5 808.5 836.5> 567 44<250 261 261 513 513 516>
LayerCount: 2
Fore
SplineSet
503 822 m 0
 503 795 480 773 452 773 c 0
 425 773 404 795 404 823 c 0
 404 850 426 872 453 872 c 0
 480 872 503 849 503 822 c 0
304 822 m 0
 304 795 281 773 253 773 c 0
 226 773 205 795 205 823 c 0
 205 850 227 872 254 872 c 0
 281 872 304 849 304 822 c 0
705 662 m 1
 705 643 l 1
 621 635 611 611 611 516 c 2
 611 261 l 2
 611 164 602 110 557 59 c 0
 515 11 447 -14 355 -14 c 0
 282 -14 226 1 185 32 c 0
 130 73 104 143 104 249 c 2
 104 559 l 2
 104 626 93 637 14 643 c 1
 14 662 l 1
 297 662 l 1
 297 643 l 1
 217 636 206 624 206 549 c 2
 206 237 l 2
 206 159 210 114 250 75 c 0
 279 47 321 30 378 30 c 0
 442 30 498 52 530 89 c 1
 563 129 567 169 567 250 c 2
 567 513 l 2
 567 616 554 638 473 643 c 1
 473 662 l 1
 705 662 l 1
EndSplineSet
EndChar

StartChar: Yacute
Encoding: 221 221 182
Width: 722
Flags: MW
HStem: 0 20 642 20<277 277>
LayerCount: 2
Fore
SplineSet
266 757 m 1
 413 905 l 2
 431 923 440 928 455 928 c 0
 477 928 490 916 490 896 c 0
 490 880 481 867 460 854 c 2
 306 757 l 1
 266 757 l 1
703 662 m 1
 703 643 l 1
 644 638 621 617 565 531 c 2
 417 303 l 1
 417 111 l 2
 417 33 436 23 520 19 c 1
 520 0 l 1
 214 0 l 1
 214 19 l 1
 303 25 315 34 315 123 c 2
 315 294 l 1
 184 486 l 2
 92 621 70 641 22 643 c 1
 22 662 l 1
 301 662 l 1
 301 643 l 1
 277 642 l 2
 245 641 230 632 230 616 c 0
 230 603 237 585 248 569 c 2
 394 348 l 1
 539 570 l 2
 549 585 553 601 553 612 c 0
 552 634 537 642 485 643 c 1
 485 662 l 1
 703 662 l 1
EndSplineSet
EndChar

StartChar: Thorn
Encoding: 222 222 183
Width: 556
Flags: MW
HStem: 0 20 158 40<258 310.5> 494 38<221 282 282 303> 642 20<16 293 293 293>
LayerCount: 2
Fore
SplineSet
202 532 m 1
 282 532 l 2
 442 532 542 462 542 351 c 0
 542 285 505 224 446 192 c 0
 403 168 350 158 271 158 c 0
 245 158 229 159 202 161 c 1
 202 109 l 2
 202 36 217 22 296 19 c 1
 296 0 l 1
 16 0 l 1
 16 19 l 1
 92 26 100 36 100 120 c 2
 100 553 l 2
 100 625 90 635 16 643 c 1
 16 662 l 1
 293 662 l 1
 293 643 l 1
 211 636 201 623 202 532 c 1
202 461 m 2
 202 201 l 1
 224 199 238 198 259 198 c 0
 374 198 433 248 433 345 c 0
 433 449 372 494 234 494 c 0
 208 494 202 487 202 461 c 2
EndSplineSet
EndChar

StartChar: germandbls
Encoding: 223 223 184
Width: 500
Flags: MW
HStem: -9 29<300.5 318 300.5 339.5> 0 20 656 27<216.5 271.5>
VStem: 73 84<84 454 454 531.5> 334 87<495 560> 374 94<131 214.5 131 217.5>
LayerCount: 2
Fore
SplineSet
73 84 m 2x78
 73 454 l 2
 73 609 130 683 251 683 c 0
 355 683 421 624 421 531 c 0xb8
 421 459 391 426 284 377 c 1
 345 365 374 354 406 326 c 0
 446 292 468 243 468 186 c 0
 468 76 390 -9 289 -9 c 0
 232 -9 192 21 192 64 c 0
 192 91 211 112 237 112 c 0
 259 112 277 95 279 72 c 2
 281 50 l 2
 283 28 291 20 310 20 c 0
 326 20 341 25 350 38 c 0
 363 56 374 105 374 150 c 0xa4
 374 285 330 354 242 357 c 0
 219 358 210 363 210 374 c 0
 210 383 218 387 239 389 c 0
 304 396 334 437 334 516 c 0
 334 604 300 656 243 656 c 0
 190 656 157 615 157 549 c 2
 157 0 l 1
 12 0 l 1
 12 15 l 1
 63 19 73 31 73 84 c 2x78
EndSplineSet
EndChar

StartChar: agrave
Encoding: 224 224 185
Width: 444
Flags: MW
HStem: -10 57<333.5 407> -10 58<111 204> 436 24<199.5 231.5> 658 20<118 136.5>
VStem: 37 88<98.5 120> 56 83<336.5 400.5> 287 81<63 113 127 268 268 268 292 304>
LayerCount: 2
Fore
SplineSet
317 507 m 1xb6
 277 507 l 1
 123 603 l 2
 104 615 93 630 93 646 c 0
 93 667 107 678 129 678 c 0
 144 678 155 673 172 655 c 2
 317 507 l 1xb6
442 66 m 1
 442 38 l 1
 412 0 386 -10 352 -10 c 0x8a
 315 -10 293 10 288 63 c 1
 287 63 l 1
 234 3 185 -10 142 -10 c 0
 80 -10 37 28 37 94 c 0x4a
 37 146 68 185 107 211 c 0
 137 231 174 250 287 292 c 1
 287 346 l 2
 287 408 254 436 209 436 c 0
 169 436 139 414 139 387 c 0
 139 369 145 366 145 345 c 0
 145 326 125 304 99 304 c 0
 78 304 56 323 56 350 c 0
 56 376 72 408 107 430 c 0
 135 448 177 460 222 460 c 0
 278 460 316 444 340 415 c 0
 364 386 368 365 368 304 c 2
 368 113 l 2
 368 67 381 47 399 47 c 0
 415 47 425 52 442 66 c 1
287 127 m 2
 287 268 l 1
 225 246 184 225 159 202 c 0
 135 180 125 156 125 125 c 0
 125 72 155 48 194 48 c 0x4a
 214 48 235 53 252 64 c 0
 281 84 287 98 287 127 c 2
EndSplineSet
EndChar

StartChar: aacute
Encoding: 225 225 186
Width: 444
Flags: MW
HStem: -10 57<333.5 407> -10 58<111 204> 436 24<199.5 231.5> 658 20<300.5 319>
VStem: 37 88<98.5 120> 56 83<336.5 400.5> 287 81<63 113 127 268 268 268 292 304>
LayerCount: 2
Fore
SplineSet
119 507 m 1xb6
 266 655 l 2
 284 673 293 678 308 678 c 0
 330 678 343 666 343 646 c 0
 343 630 334 617 313 604 c 2
 159 507 l 1
 119 507 l 1xb6
442 66 m 1
 442 38 l 1
 412 0 386 -10 352 -10 c 0x8a
 315 -10 293 10 288 63 c 1
 287 63 l 1
 234 3 185 -10 142 -10 c 0
 80 -10 37 28 37 94 c 0x4a
 37 146 68 185 107 211 c 0
 137 231 174 250 287 292 c 1
 287 346 l 2
 287 408 254 436 209 436 c 0
 169 436 139 414 139 387 c 0
 139 369 145 366 145 345 c 0
 145 326 125 304 99 304 c 0
 78 304 56 323 56 350 c 0
 56 376 72 408 107 430 c 0
 135 448 177 460 222 460 c 0
 278 460 316 444 340 415 c 0
 364 386 368 365 368 304 c 2
 368 113 l 2
 368 67 381 47 399 47 c 0
 415 47 425 52 442 66 c 1
287 127 m 2
 287 268 l 1
 225 246 184 225 159 202 c 0
 135 180 125 156 125 125 c 0
 125 72 155 48 194 48 c 0x4a
 214 48 235 53 252 64 c 0
 281 84 287 98 287 127 c 2
EndSplineSet
EndChar

StartChar: acircumflex
Encoding: 226 226 187
Width: 444
Flags: MW
HStem: -10 57<333.5 407> -10 58<111 204> 436 24<199.5 231.5> 654 20<194 256 256 256>
VStem: 37 88<98.5 120> 56 83<336.5 400.5> 287 81<63 113 127 268 268 268 292 304>
LayerCount: 2
Fore
SplineSet
381 507 m 1xb6
 347 507 l 1
 225 610 l 1
 104 507 l 1
 70 507 l 1
 194 674 l 1
 256 674 l 1
 381 507 l 1xb6
442 66 m 1
 442 38 l 1
 412 0 386 -10 352 -10 c 0x8a
 315 -10 293 10 288 63 c 1
 287 63 l 1
 234 3 185 -10 142 -10 c 0
 80 -10 37 28 37 94 c 0x4a
 37 146 68 185 107 211 c 0
 137 231 174 250 287 292 c 1
 287 346 l 2
 287 408 254 436 209 436 c 0
 169 436 139 414 139 387 c 0
 139 369 145 366 145 345 c 0
 145 326 125 304 99 304 c 0
 78 304 56 323 56 350 c 0
 56 376 72 408 107 430 c 0
 135 448 177 460 222 460 c 0
 278 460 316 444 340 415 c 0
 364 386 368 365 368 304 c 2
 368 113 l 2
 368 67 381 47 399 47 c 0
 415 47 425 52 442 66 c 1
287 127 m 2
 287 268 l 1
 225 246 184 225 159 202 c 0
 135 180 125 156 125 125 c 0
 125 72 155 48 194 48 c 0x4a
 214 48 235 53 252 64 c 0
 281 84 287 98 287 127 c 2
EndSplineSet
EndChar

StartChar: atilde
Encoding: 227 227 188
Width: 444
Flags: MW
HStem: -10 57<333.5 407> -10 58<111 204> 436 24<199.5 231.5> 532 56<299.5 311.5> 578 55<135 145>
VStem: 37 88<98.5 120> 56 83<336.5 400.5> 287 81<63 113 127 268 268 268 292 304>
LayerCount: 2
Fore
SplineSet
360 638 m 1x13
 389 638 l 1
 368 562 339 532 284 532 c 0xb3
 259 532 244 536 203 556 c 2
 180 567 l 2
 165 574 151 578 139 578 c 0x0b
 116 578 99 563 88 532 c 1
 59 532 l 1x13
 74 597 110 633 160 633 c 0x0b
 182 633 206 627 230 615 c 2
 254 603 l 2
 273 593 292 588 307 588 c 0
 330 588 343 601 360 638 c 1x13
442 66 m 1
 442 38 l 1
 412 0 386 -10 352 -10 c 0x85
 315 -10 293 10 288 63 c 1
 287 63 l 1
 234 3 185 -10 142 -10 c 0
 80 -10 37 28 37 94 c 0x45
 37 146 68 185 107 211 c 0
 137 231 174 250 287 292 c 1
 287 346 l 2
 287 408 254 436 209 436 c 0
 169 436 139 414 139 387 c 0
 139 369 145 366 145 345 c 0
 145 326 125 304 99 304 c 0
 78 304 56 323 56 350 c 0
 56 376 72 408 107 430 c 0
 135 448 177 460 222 460 c 0
 278 460 316 444 340 415 c 0
 364 386 368 365 368 304 c 2
 368 113 l 2
 368 67 381 47 399 47 c 0
 415 47 425 52 442 66 c 1
287 127 m 2
 287 268 l 1
 225 246 184 225 159 202 c 0
 135 180 125 156 125 125 c 0
 125 72 155 48 194 48 c 0x45
 214 48 235 53 252 64 c 0
 281 84 287 98 287 127 c 2
EndSplineSet
EndChar

StartChar: adieresis
Encoding: 228 228 189
Width: 444
Flags: MW
HStem: -10 57<333.5 407> -10 58<111 204> 436 24<199.5 231.5> 523 99<110.5 137 309.5 336>
VStem: 37 88<98.5 120> 56 83<336.5 400.5> 75 99<559 585.5 558.5 586.5> 274 99<559 585.5 558.5 586.5> 287 81<63 113 127 268 268 268 292 304>
LayerCount: 2
Fore
SplineSet
373 572 m 0xb3
 373 545 350 523 322 523 c 0
 295 523 274 545 274 573 c 0
 274 600 296 622 323 622 c 0
 350 622 373 599 373 572 c 0xb3
174 572 m 0
 174 545 151 523 123 523 c 0
 96 523 75 545 75 573 c 0
 75 600 97 622 124 622 c 0
 151 622 174 599 174 572 c 0
442 66 m 1
 442 38 l 1
 412 0 386 -10 352 -10 c 0x8880
 315 -10 293 10 288 63 c 1
 287 63 l 1
 234 3 185 -10 142 -10 c 0
 80 -10 37 28 37 94 c 0x4880
 37 146 68 185 107 211 c 0
 137 231 174 250 287 292 c 1
 287 346 l 2
 287 408 254 436 209 436 c 0
 169 436 139 414 139 387 c 0
 139 369 145 366 145 345 c 0
 145 326 125 304 99 304 c 0
 78 304 56 323 56 350 c 0
 56 376 72 408 107 430 c 0
 135 448 177 460 222 460 c 0
 278 460 316 444 340 415 c 0
 364 386 368 365 368 304 c 2
 368 113 l 2xb480
 368 67 381 47 399 47 c 0
 415 47 425 52 442 66 c 1
287 127 m 2
 287 268 l 1
 225 246 184 225 159 202 c 0
 135 180 125 156 125 125 c 0
 125 72 155 48 194 48 c 0x4880
 214 48 235 53 252 64 c 0
 281 84 287 98 287 127 c 2
EndSplineSet
EndChar

StartChar: aring
Encoding: 229 229 190
Width: 444
Flags: MW
HStem: -10 57<333.5 407> -10 58<111 204> 436 24<199.5 231.5> 514 34<205.5 242 205.5 251> 679 34<206 241.5>
VStem: 37 88<98.5 120> 56 83<336.5 400.5> 125 34<595.5 631.5 595.5 641.5> 287 81<63 113 127 268 268 268 292 304> 290 34<595.5 632>
LayerCount: 2
Fore
SplineSet
324 613 m 0xb940
 324 558 279 514 223 514 c 0
 168 514 125 558 125 614 c 0
 125 669 170 713 226 713 c 0
 279 713 324 667 324 613 c 0xb940
290 614 m 0
 290 650 260 679 223 679 c 0
 189 679 159 649 159 614 c 0
 159 577 188 548 223 548 c 0
 261 548 290 577 290 614 c 0
442 66 m 1
 442 38 l 1
 412 0 386 -10 352 -10 c 0x8580
 315 -10 293 10 288 63 c 1
 287 63 l 1
 234 3 185 -10 142 -10 c 0
 80 -10 37 28 37 94 c 0x4580
 37 146 68 185 107 211 c 0
 137 231 174 250 287 292 c 1
 287 346 l 2
 287 408 254 436 209 436 c 0
 169 436 139 414 139 387 c 0
 139 369 145 366 145 345 c 0
 145 326 125 304 99 304 c 0
 78 304 56 323 56 350 c 0
 56 376 72 408 107 430 c 0
 135 448 177 460 222 460 c 0
 278 460 316 444 340 415 c 0
 364 386 368 365 368 304 c 2
 368 113 l 2xba80
 368 67 381 47 399 47 c 0
 415 47 425 52 442 66 c 1
287 127 m 2
 287 268 l 1
 225 246 184 225 159 202 c 0
 135 180 125 156 125 125 c 0
 125 72 155 48 194 48 c 0x4580
 214 48 235 53 252 64 c 0
 281 84 287 98 287 127 c 2
EndSplineSet
EndChar

StartChar: ae
Encoding: 230 230 191
Width: 667
Flags: MW
HStem: -7 45<168 179> -7 64<455.5 457> 277 30<355 521 355 616 354 521> 429 31<432.5 469> 434 26<194 236>
VStem: 38 87<101.5 130> 60 85
LayerCount: 2
Fore
SplineSet
620 154 m 1x72
 632 149 l 1
 603 87 584 58 553 33 c 0
 518 4 479 -7 435 -7 c 0x74
 378 -7 340 11 306 63 c 1
 238 6 204 -7 154 -7 c 0
 86 -7 38 35 38 100 c 0x8c
 38 160 46 217 145 245 c 2
 274 281 l 1
 274 344 l 2
 274 408 259 434 213 434 c 0
 175 434 145 415 145 392 c 0
 145 377 148 369 148 350 c 0
 148 322 131 304 104 304 c 0
 77 304 60 322 60 352 c 0
 60 413 129 460 219 460 c 0x8a
 269 460 299 447 337 413 c 1
 382 448 409 460 456 460 c 0
 558 460 605 406 616 277 c 1
 354 277 l 1
 355 177 360 146 381 107 c 0
 398 77 435 57 476 57 c 0
 533 57 572 83 620 154 c 1x72
355 307 m 1
 521 307 l 1
 519 395 496 429 442 429 c 0
 385 429 360 395 355 307 c 1
274 201 m 2x84
 274 253 l 1
 153 209 125 185 125 125 c 0
 125 78 145 38 191 38 c 0
 228 38 293 70 293 88 c 0
 293 89 292 90 292 91 c 0
 280 130 274 166 274 201 c 2x84
EndSplineSet
EndChar

StartChar: ccedilla
Encoding: 231 231 192
Width: 444
Flags: MW
HStem: -215 35<176.5 204 176.5 230.5> 431 29<220.5 256>
VStem: 25 77<199.5 253.5> 242 75<-149.5 -123>
LayerCount: 2
Fore
SplineSet
398 156 m 1
 412 147 l 1
 360 42 307 -3 226 -10 c 1
 205 -65 l 1
 215 -63 221 -62 231 -62 c 0
 285 -62 317 -87 317 -131 c 0
 317 -183 269 -215 192 -215 c 0
 161 -215 137 -211 108 -199 c 1
 122 -168 l 1
 149 -177 166 -180 187 -180 c 0
 221 -180 242 -163 242 -136 c 0
 242 -110 227 -100 189 -100 c 0
 177 -100 169 -101 161 -104 c 1
 154 -99 l 1
 192 -8 l 1
 91 5 25 93 25 212 c 0
 25 295 54 364 109 409 c 0
 149 442 197 460 244 460 c 0
 328 460 398 413 398 357 c 0
 398 334 377 315 351 315 c 0
 329 315 311 332 303 361 c 2
 297 383 l 2
 287 420 274 431 238 431 c 0
 157 431 102 361 102 257 c 0
 102 142 165 62 257 62 c 0
 314 62 350 86 398 156 c 1
EndSplineSet
EndChar

StartChar: egrave
Encoding: 232 232 193
Width: 444
Flags: MW
HStem: -10 69<231 265> 277 32<99 303 99 405 97 303> 424 36<177 238> 658 20<111 129.5>
LayerCount: 2
Fore
SplineSet
310 507 m 1
 270 507 l 1
 116 603 l 2
 97 615 86 630 86 646 c 0
 86 667 100 678 122 678 c 0
 137 678 148 673 165 655 c 2
 310 507 l 1
408 164 m 1
 424 157 l 1
 385 48 315 -10 215 -10 c 0
 97 -10 25 79 25 217 c 0
 25 358 106 460 232 460 c 0
 294 460 339 436 371 391 c 0
 391 363 401 331 405 277 c 1
 97 277 l 1
 102 201 107 162 143 114 c 0
 171 77 208 59 254 59 c 0
 321 59 359 90 408 164 c 1
99 309 m 1
 303 309 l 1
 292 390 271 424 205 424 c 0
 149 424 110 384 99 309 c 1
EndSplineSet
EndChar

StartChar: eacute
Encoding: 233 233 194
Width: 444
Flags: MW
HStem: -10 69<231 265> 277 32<99 303 99 405 97 303> 424 36<177 238> 658 20<297.5 316>
LayerCount: 2
Fore
SplineSet
116 507 m 1
 263 655 l 2
 281 673 290 678 305 678 c 0
 327 678 340 666 340 646 c 0
 340 630 331 617 310 604 c 2
 156 507 l 1
 116 507 l 1
408 164 m 1
 424 157 l 1
 385 48 315 -10 215 -10 c 0
 97 -10 25 79 25 217 c 0
 25 358 106 460 232 460 c 0
 294 460 339 436 371 391 c 0
 391 363 401 331 405 277 c 1
 97 277 l 1
 102 201 107 162 143 114 c 0
 171 77 208 59 254 59 c 0
 321 59 359 90 408 164 c 1
99 309 m 1
 303 309 l 1
 292 390 271 424 205 424 c 0
 149 424 110 384 99 309 c 1
EndSplineSet
EndChar

StartChar: ecircumflex
Encoding: 234 234 195
Width: 444
Flags: MW
HStem: -10 69<231 265> 277 32<99 303 99 405 97 303> 424 36<177 238> 654 20<193 255 255 255>
LayerCount: 2
Fore
SplineSet
380 507 m 1
 346 507 l 1
 224 610 l 1
 103 507 l 1
 69 507 l 1
 193 674 l 1
 255 674 l 1
 380 507 l 1
408 164 m 1
 424 157 l 1
 385 48 315 -10 215 -10 c 0
 97 -10 25 79 25 217 c 0
 25 358 106 460 232 460 c 0
 294 460 339 436 371 391 c 0
 391 363 401 331 405 277 c 1
 97 277 l 1
 102 201 107 162 143 114 c 0
 171 77 208 59 254 59 c 0
 321 59 359 90 408 164 c 1
99 309 m 1
 303 309 l 1
 292 390 271 424 205 424 c 0
 149 424 110 384 99 309 c 1
EndSplineSet
EndChar

StartChar: edieresis
Encoding: 235 235 196
Width: 444
Flags: MW
HStem: -10 69<231 265> 277 32<99 303 99 405 97 303> 424 36<177 238> 523 99<109.5 136 308.5 335>
VStem: 74 99<559 585.5 558.5 586.5> 273 99<559 585.5 558.5 586.5>
LayerCount: 2
Fore
SplineSet
372 572 m 0
 372 545 349 523 321 523 c 0
 294 523 273 545 273 573 c 0
 273 600 295 622 322 622 c 0
 349 622 372 599 372 572 c 0
173 572 m 0
 173 545 150 523 122 523 c 0
 95 523 74 545 74 573 c 0
 74 600 96 622 123 622 c 0
 150 622 173 599 173 572 c 0
408 164 m 1
 424 157 l 1
 385 48 315 -10 215 -10 c 0
 97 -10 25 79 25 217 c 0
 25 358 106 460 232 460 c 0
 294 460 339 436 371 391 c 0
 391 363 401 331 405 277 c 1
 97 277 l 1
 102 201 107 162 143 114 c 0
 171 77 208 59 254 59 c 0
 321 59 359 90 408 164 c 1
99 309 m 1
 303 309 l 1
 292 390 271 424 205 424 c 0
 149 424 110 384 99 309 c 1
EndSplineSet
EndChar

StartChar: igrave
Encoding: 236 236 197
Width: 278
Flags: MW
HStem: 0 20 658 20<31 49.5>
VStem: 85 84<104 105 105 331 331 354.5>
LayerCount: 2
Fore
SplineSet
230 507 m 1
 190 507 l 1
 36 603 l 2
 17 615 6 630 6 646 c 0
 6 667 20 678 42 678 c 0
 57 678 68 673 85 655 c 2
 230 507 l 1
243 0 m 1
 6 0 l 1
 6 15 l 1
 75 19 85 28 85 104 c 2
 85 331 l 2
 85 378 77 394 52 394 c 0
 43 394 28 394 10 389 c 1
 10 405 l 1
 164 460 l 1
 169 456 l 1
 169 105 l 2
 169 31 177 20 243 15 c 1
 243 0 l 1
EndSplineSet
EndChar

StartChar: iacute
Encoding: 237 237 198
Width: 278
Flags: MW
HStem: 0 20 658 20<230.5 249>
VStem: 95 84<104 105 105 331 331 354.5>
LayerCount: 2
Fore
SplineSet
49 507 m 1
 196 655 l 2
 214 673 223 678 238 678 c 0
 260 678 273 666 273 646 c 0
 273 630 264 617 243 604 c 2
 89 507 l 1
 49 507 l 1
253 0 m 1
 16 0 l 1
 16 15 l 1
 85 19 95 28 95 104 c 2
 95 331 l 2
 95 378 87 394 62 394 c 0
 53 394 38 394 20 389 c 1
 20 405 l 1
 174 460 l 1
 179 456 l 1
 179 105 l 2
 179 31 187 20 253 15 c 1
 253 0 l 1
EndSplineSet
EndChar

StartChar: icircumflex
Encoding: 238 238 199
Width: 278
Flags: MW
HStem: 0 20 654 20<107 169 169 169>
VStem: 62 84<104 105 105 331 331 354.5>
LayerCount: 2
Fore
SplineSet
294 507 m 1
 260 507 l 1
 138 610 l 1
 17 507 l 1
 -17 507 l 1
 107 674 l 1
 169 674 l 1
 294 507 l 1
220 0 m 1
 -17 0 l 1
 -17 15 l 1
 52 19 62 28 62 104 c 2
 62 331 l 2
 62 378 54 394 29 394 c 0
 20 394 5 394 -13 389 c 1
 -13 405 l 1
 141 460 l 1
 146 456 l 1
 146 105 l 2
 146 31 154 20 220 15 c 1
 220 0 l 1
EndSplineSet
EndChar

StartChar: idieresis
Encoding: 239 239 200
Width: 278
Flags: MW
HStem: 0 20 523 99<25.5 52 224.5 251>
VStem: -10 99<559 585.5 558.5 586.5> 69 84<104 105 105 331 331 354.5> 189 99<559 585.5 558.5 586.5>
LayerCount: 2
Fore
SplineSet
288 572 m 0xe8
 288 545 265 523 237 523 c 0
 210 523 189 545 189 573 c 0
 189 600 211 622 238 622 c 0
 265 622 288 599 288 572 c 0xe8
89 572 m 0
 89 545 66 523 38 523 c 0
 11 523 -10 545 -10 573 c 0
 -10 600 12 622 39 622 c 0
 66 622 89 599 89 572 c 0
227 0 m 1xd0
 -10 0 l 1
 -10 15 l 1xe0
 59 19 69 28 69 104 c 2
 69 331 l 2
 69 378 61 394 36 394 c 0
 27 394 12 394 -6 389 c 1
 -6 405 l 1
 148 460 l 1
 153 456 l 1
 153 105 l 2
 153 31 161 20 227 15 c 1
 227 0 l 1xd0
EndSplineSet
EndChar

StartChar: eth
Encoding: 240 240 201
Width: 500
Flags: MW
HStem: -10 28<209.5 285> 432 28<201 270 186 278.5>
VStem: 29 90<231 288> 381 90<248 270.5>
LayerCount: 2
Fore
SplineSet
424 656 m 1
 333 608 l 1
 429 527 471 411 471 285 c 0
 471 211 451 140 418 87 c 0
 378 24 325 -10 245 -10 c 0
 120 -10 29 77 29 217 c 0
 29 359 126 460 246 460 c 0
 294 460 319 448 367 400 c 1
 353 473 328 521 270 575 c 1
 147 510 l 1
 114 540 l 1
 235 604 l 1
 193 639 156 650 101 659 c 1
 143 683 l 1
 209 679 255 666 296 636 c 1
 391 686 l 1
 424 656 l 1
381 202 m 0
 381 339 322 432 235 432 c 0
 167 432 119 365 119 281 c 0
 119 181 156 18 263 18 c 0
 332 18 381 87 381 202 c 0
EndSplineSet
EndChar

StartChar: ntilde
Encoding: 241 241 202
Width: 500
Flags: MW
HStem: 0 20 405 55<283 291.5> 532 56<331.5 343.5> 578 55<167 177>
VStem: 80 84<94 337 337 348> 340 84<105 304 304 306>
LayerCount: 2
Fore
SplineSet
392 638 m 1x2c
 421 638 l 1
 400 562 371 532 316 532 c 0xec
 291 532 276 536 235 556 c 2
 212 567 l 2
 197 574 183 578 171 578 c 0x1c
 148 578 131 563 120 532 c 1
 91 532 l 1x2c
 106 597 142 633 192 633 c 0x1c
 214 633 238 627 262 615 c 2
 286 603 l 2
 305 593 324 588 339 588 c 0
 362 588 375 601 392 638 c 1x2c
485 0 m 1
 277 0 l 1
 278 15 l 1
 328 19 340 39 340 105 c 2
 340 304 l 2
 340 375 316 405 267 405 c 0
 234 405 210 393 164 348 c 1
 164 72 l 2
 164 33 178 19 229 15 c 1
 229 0 l 1
 18 0 l 1
 18 15 l 1
 69 19 80 35 80 94 c 2
 80 337 l 2
 80 386 73 402 45 402 c 0
 34 402 23 401 16 398 c 1
 16 415 l 1
 71 431 104 442 153 460 c 1
 161 457 l 1
 161 379 l 1
 162 379 l 1
 214 438 260 460 306 460 c 0
 382 460 424 405 424 306 c 2
 424 85 l 2
 424 31 436 20 485 15 c 1
 485 0 l 1
EndSplineSet
EndChar

StartChar: ograve
Encoding: 242 242 203
Width: 500
Flags: MW
HStem: -10 28<244 299 244 312.5> 432 28<200.5 256.5> 658 20<133 151.5>
VStem: 29 90<233.5 297.5> 380 90<161.5 238>
LayerCount: 2
Fore
SplineSet
332 507 m 1
 292 507 l 1
 138 603 l 2
 119 615 108 630 108 646 c 0
 108 667 122 678 144 678 c 0
 159 678 170 673 187 655 c 2
 332 507 l 1
470 231 m 0
 470 92 380 -10 245 -10 c 0
 124 -10 29 89 29 228 c 0
 29 367 119 460 254 460 c 0
 376 460 470 369 470 231 c 0
380 204 m 0
 380 272 362 341 330 382 c 0
 306 412 278 432 235 432 c 0
 166 432 119 373 119 273 c 0
 119 194 135 122 172 68 c 0
 194 36 226 18 262 18 c 0
 336 18 380 88 380 204 c 0
EndSplineSet
EndChar

StartChar: oacute
Encoding: 243 243 204
Width: 500
Flags: MW
HStem: -10 28<244 299 244 312.5> 432 28<200.5 256.5> 658 20<335.5 354>
VStem: 29 90<233.5 297.5> 380 90<161.5 238>
LayerCount: 2
Fore
SplineSet
154 507 m 1
 301 655 l 2
 319 673 328 678 343 678 c 0
 365 678 378 666 378 646 c 0
 378 630 369 617 348 604 c 2
 194 507 l 1
 154 507 l 1
470 231 m 0
 470 92 380 -10 245 -10 c 0
 124 -10 29 89 29 228 c 0
 29 367 119 460 254 460 c 0
 376 460 470 369 470 231 c 0
380 204 m 0
 380 272 362 341 330 382 c 0
 306 412 278 432 235 432 c 0
 166 432 119 373 119 273 c 0
 119 194 135 122 172 68 c 0
 194 36 226 18 262 18 c 0
 336 18 380 88 380 204 c 0
EndSplineSet
EndChar

StartChar: ocircumflex
Encoding: 244 244 205
Width: 500
Flags: MW
HStem: -10 28<244 299 244 312.5> 432 28<200.5 256.5> 654 20<214 276 276 276>
VStem: 29 90<233.5 297.5> 380 90<161.5 238>
LayerCount: 2
Fore
SplineSet
401 507 m 1
 367 507 l 1
 245 610 l 1
 124 507 l 1
 90 507 l 1
 214 674 l 1
 276 674 l 1
 401 507 l 1
470 231 m 0
 470 92 380 -10 245 -10 c 0
 124 -10 29 89 29 228 c 0
 29 367 119 460 254 460 c 0
 376 460 470 369 470 231 c 0
380 204 m 0
 380 272 362 341 330 382 c 0
 306 412 278 432 235 432 c 0
 166 432 119 373 119 273 c 0
 119 194 135 122 172 68 c 0
 194 36 226 18 262 18 c 0
 336 18 380 88 380 204 c 0
EndSplineSet
EndChar

StartChar: otilde
Encoding: 245 245 206
Width: 500
Flags: MW
HStem: -10 28<244 299 244 312.5> 432 28<200.5 256.5> 532 56<320.5 332.5> 578 55<156 166>
VStem: 29 90<233.5 297.5> 380 90<161.5 238>
LayerCount: 2
Fore
SplineSet
381 638 m 1x2c
 410 638 l 1
 389 562 360 532 305 532 c 0xec
 280 532 265 536 224 556 c 2
 201 567 l 2
 186 574 172 578 160 578 c 0x1c
 137 578 120 563 109 532 c 1
 80 532 l 1x2c
 95 597 131 633 181 633 c 0x1c
 203 633 227 627 251 615 c 2
 275 603 l 2
 294 593 313 588 328 588 c 0
 351 588 364 601 381 638 c 1x2c
470 231 m 0
 470 92 380 -10 245 -10 c 0
 124 -10 29 89 29 228 c 0
 29 367 119 460 254 460 c 0
 376 460 470 369 470 231 c 0
380 204 m 0
 380 272 362 341 330 382 c 0
 306 412 278 432 235 432 c 0
 166 432 119 373 119 273 c 0
 119 194 135 122 172 68 c 0
 194 36 226 18 262 18 c 0
 336 18 380 88 380 204 c 0
EndSplineSet
EndChar

StartChar: odieresis
Encoding: 246 246 207
Width: 500
Flags: MW
HStem: -10 28<244 299 244 312.5> 432 28<200.5 256.5> 523 99<131.5 158 330.5 357>
VStem: 29 90<233.5 297.5> 96 99<559 585.5 558.5 586.5> 295 99<559 585.5 558.5 586.5> 380 90<161.5 238>
LayerCount: 2
Fore
SplineSet
394 572 m 0xec
 394 545 371 523 343 523 c 0
 316 523 295 545 295 573 c 0
 295 600 317 622 344 622 c 0
 371 622 394 599 394 572 c 0xec
195 572 m 0
 195 545 172 523 144 523 c 0
 117 523 96 545 96 573 c 0
 96 600 118 622 145 622 c 0
 172 622 195 599 195 572 c 0
470 231 m 0xf2
 470 92 380 -10 245 -10 c 0
 124 -10 29 89 29 228 c 0
 29 367 119 460 254 460 c 0
 376 460 470 369 470 231 c 0xf2
380 204 m 0
 380 272 362 341 330 382 c 0
 306 412 278 432 235 432 c 0
 166 432 119 373 119 273 c 0
 119 194 135 122 172 68 c 0
 194 36 226 18 262 18 c 0
 336 18 380 88 380 204 c 0
EndSplineSet
EndChar

StartChar: divide
Encoding: 247 247 208
Width: 564
Flags: MW
HStem: -10 111<267.5 297> 220 66<30 534 30 534> 405 111<267.5 297>
VStem: 227 111<29.5 59 29.5 60.5 444.5 474>
CounterMasks: 1 e0
LayerCount: 2
Fore
SplineSet
338 459 m 0
 338 430 312 405 282 405 c 0
 251 405 227 429 227 460 c 0
 227 491 252 516 283 516 c 0
 312 516 338 489 338 459 c 0
534 220 m 1
 30 220 l 1
 30 286 l 1
 534 286 l 1
 534 220 l 1
338 44 m 0
 338 15 312 -10 282 -10 c 0
 251 -10 227 14 227 45 c 0
 227 76 252 101 283 101 c 0
 312 101 338 74 338 44 c 0
EndSplineSet
EndChar

StartChar: oslash
Encoding: 248 248 209
Width: 500
Flags: MW
HStem: -10 28<244 298.5 244 310.5> 432 28<201.5 252.5>
VStem: 29 90<242 295> 380 90<164.5 235>
LayerCount: 2
Fore
SplineSet
437 551 m 1
 372 426 l 1
 439 380 470 318 470 234 c 0
 470 95 374 -10 247 -10 c 0
 212 -10 189 -5 154 11 c 1
 89 -112 l 1
 52 -112 l 1
 125 28 l 1
 89 57 76 72 60 101 c 0
 40 138 29 183 29 227 c 0
 29 363 120 460 249 460 c 0
 282 460 306 455 341 442 c 1
 398 551 l 1
 437 551 l 1
158 92 m 1
 317 396 l 1
 290 422 268 432 237 432 c 0
 166 432 119 370 119 277 c 0
 119 207 131 150 158 92 c 1
340 366 m 1
 179 60 l 1
 204 30 227 18 261 18 c 0
 336 18 380 86 380 203 c 0
 380 267 369 311 340 366 c 1
EndSplineSet
EndChar

StartChar: ugrave
Encoding: 249 249 210
Width: 500
Flags: MW
HStem: -10 58<206.5 211.5> 430 20<9 155 155 155 259 417 417 417> 658 20<140 158.5>
VStem: 71 84<118 127 127 369 369 394> 333 84<137 368 368 394.5>
LayerCount: 2
Fore
SplineSet
339 507 m 1
 299 507 l 1
 145 603 l 2
 126 615 115 630 115 646 c 0
 115 667 129 678 151 678 c 0
 166 678 177 673 194 655 c 2
 339 507 l 1
480 50 m 1
 480 36 l 1
 429 22 393 11 343 -9 c 1
 338 -6 l 1
 338 76 l 1
 336 76 l 1
 287 9 230 -10 193 -10 c 0
 116 -10 71 41 71 118 c 2
 71 369 l 2
 71 419 57 433 9 436 c 1
 9 450 l 1
 155 450 l 1
 155 127 l 2
 155 81 187 48 226 48 c 0
 255 48 285 57 310 79 c 0
 326 93 333 102 333 137 c 2
 333 368 l 2
 333 421 319 429 259 433 c 1
 259 450 l 1
 417 450 l 1
 417 107 l 2
 417 61 428 50 474 50 c 2
 480 50 l 1
EndSplineSet
EndChar

StartChar: uacute
Encoding: 250 250 211
Width: 500
Flags: MW
HStem: -10 58<206.5 211.5> 430 20<9 155 155 155 259 417 417 417> 658 20<337.5 356>
VStem: 71 84<118 127 127 369 369 394> 333 84<137 368 368 394.5>
LayerCount: 2
Fore
SplineSet
156 507 m 1
 303 655 l 2
 321 673 330 678 345 678 c 0
 367 678 380 666 380 646 c 0
 380 630 371 617 350 604 c 2
 196 507 l 1
 156 507 l 1
480 50 m 1
 480 36 l 1
 429 22 393 11 343 -9 c 1
 338 -6 l 1
 338 76 l 1
 336 76 l 1
 287 9 230 -10 193 -10 c 0
 116 -10 71 41 71 118 c 2
 71 369 l 2
 71 419 57 433 9 436 c 1
 9 450 l 1
 155 450 l 1
 155 127 l 2
 155 81 187 48 226 48 c 0
 255 48 285 57 310 79 c 0
 326 93 333 102 333 137 c 2
 333 368 l 2
 333 421 319 429 259 433 c 1
 259 450 l 1
 417 450 l 1
 417 107 l 2
 417 61 428 50 474 50 c 2
 480 50 l 1
EndSplineSet
EndChar

StartChar: ucircumflex
Encoding: 251 251 212
Width: 500
Flags: MW
HStem: -10 58<206.5 211.5> 430 20<9 155 155 155 259 417 417 417> 654 20<214 276 276 276>
VStem: 71 84<118 127 127 369 369 394> 333 84<137 368 368 394.5>
LayerCount: 2
Fore
SplineSet
401 507 m 1
 367 507 l 1
 245 610 l 1
 124 507 l 1
 90 507 l 1
 214 674 l 1
 276 674 l 1
 401 507 l 1
480 50 m 1
 480 36 l 1
 429 22 393 11 343 -9 c 1
 338 -6 l 1
 338 76 l 1
 336 76 l 1
 287 9 230 -10 193 -10 c 0
 116 -10 71 41 71 118 c 2
 71 369 l 2
 71 419 57 433 9 436 c 1
 9 450 l 1
 155 450 l 1
 155 127 l 2
 155 81 187 48 226 48 c 0
 255 48 285 57 310 79 c 0
 326 93 333 102 333 137 c 2
 333 368 l 2
 333 421 319 429 259 433 c 1
 259 450 l 1
 417 450 l 1
 417 107 l 2
 417 61 428 50 474 50 c 2
 480 50 l 1
EndSplineSet
EndChar

StartChar: udieresis
Encoding: 252 252 213
Width: 500
Flags: MW
HStem: -10 58<206.5 211.5> 430 20<9 155 155 155 259 417 417 417> 523 99<130.5 157 329.5 356>
VStem: 71 84<118 127 127 369 369 394> 95 99<559 585.5 558.5 586.5> 294 99<559 585.5 558.5 586.5> 333 84<137 368 368 394.5>
LayerCount: 2
Fore
SplineSet
393 572 m 0xec
 393 545 370 523 342 523 c 0
 315 523 294 545 294 573 c 0
 294 600 316 622 343 622 c 0
 370 622 393 599 393 572 c 0xec
194 572 m 0
 194 545 171 523 143 523 c 0
 116 523 95 545 95 573 c 0
 95 600 117 622 144 622 c 0
 171 622 194 599 194 572 c 0
480 50 m 1xf2
 480 36 l 1
 429 22 393 11 343 -9 c 1
 338 -6 l 1
 338 76 l 1
 336 76 l 1
 287 9 230 -10 193 -10 c 0
 116 -10 71 41 71 118 c 2
 71 369 l 2
 71 419 57 433 9 436 c 1
 9 450 l 1
 155 450 l 1
 155 127 l 2
 155 81 187 48 226 48 c 0
 255 48 285 57 310 79 c 0
 326 93 333 102 333 137 c 2
 333 368 l 2
 333 421 319 429 259 433 c 1
 259 450 l 1
 417 450 l 1
 417 107 l 2
 417 61 428 50 474 50 c 2
 480 50 l 1xf2
EndSplineSet
EndChar

StartChar: yacute
Encoding: 253 253 214
Width: 500
Flags: MW
HStem: -218 84<78.5 158> 430 20<14 219 219 219 342 475 475 475> 658 20<324.5 343>
LayerCount: 2
Fore
SplineSet
143 507 m 1
 290 655 l 2
 308 673 317 678 332 678 c 0
 354 678 367 666 367 646 c 0
 367 630 358 617 337 604 c 2
 183 507 l 1
 143 507 l 1
475 450 m 1
 475 435 l 1
 451 432 439 421 425 384 c 2
 275 -25 l 2
 223 -167 176 -218 100 -218 c 0
 57 -218 30 -193 30 -160 c 0
 30 -135 49 -114 73 -114 c 0
 91 -114 107 -117 125 -127 c 0
 136 -133 145 -134 151 -134 c 0
 165 -134 185 -114 201 -90 c 0
 221 -61 241 2 241 18 c 0
 241 33 218 79 199 119 c 2
 67 401 l 2
 57 423 40 432 14 436 c 1
 14 450 l 1
 219 450 l 1
 219 435 l 1
 176 433 162 426 162 408 c 0
 162 397 169 381 175 367 c 2
 287 117 l 1
 384 393 l 2
 387 400 388 407 388 411 c 0
 388 427 373 435 342 435 c 1
 342 450 l 1
 475 450 l 1
EndSplineSet
EndChar

StartChar: thorn
Encoding: 254 254 215
Width: 500
Flags: MW
HStem: -10 32<239 300 238.5 319.5> 400 60<275.5 301.5>
VStem: 75 84<-128 -121 -121 33 75 90 90 332 380 568 568 589> 384 86<174.5 275.5>
LayerCount: 2
Fore
SplineSet
159 679 m 1
 159 380 l 1
 201 437 248 460 303 460 c 0
 408 460 470 379 470 247 c 0
 470 102 379 -10 260 -10 c 0
 218 -10 195 0 159 33 c 1
 159 -121 l 2
 159 -184 170 -198 245 -199 c 1
 245 -217 l 1
 5 -217 l 1
 5 -199 l 1
 64 -194 75 -180 75 -128 c 2
 75 568 l 2
 75 610 67 624 26 624 c 0
 19 624 14 623 9 622 c 1
 9 639 l 1
 78 658 105 666 153 683 c 1
 159 679 l 1
159 332 m 2
 159 90 l 2
 159 60 215 22 262 22 c 0
 338 22 384 103 384 213 c 0
 384 338 342 400 261 400 c 0
 219 400 159 362 159 332 c 2
EndSplineSet
EndChar

StartChar: ydieresis
Encoding: 255 255 216
Width: 500
Flags: MW
HStem: -218 84<78.5 158> 430 20<14 219 219 219 342 475 475 475> 523 99<133.5 160 332.5 359>
VStem: 98 99<559 585.5 558.5 586.5> 297 99<559 585.5 558.5 586.5>
LayerCount: 2
Fore
SplineSet
396 572 m 0
 396 545 373 523 345 523 c 0
 318 523 297 545 297 573 c 0
 297 600 319 622 346 622 c 0
 373 622 396 599 396 572 c 0
197 572 m 0
 197 545 174 523 146 523 c 0
 119 523 98 545 98 573 c 0
 98 600 120 622 147 622 c 0
 174 622 197 599 197 572 c 0
475 450 m 1
 475 435 l 1
 451 432 439 421 425 384 c 2
 275 -25 l 2
 223 -167 176 -218 100 -218 c 0
 57 -218 30 -193 30 -160 c 0
 30 -135 49 -114 73 -114 c 0
 91 -114 107 -117 125 -127 c 0
 136 -133 145 -134 151 -134 c 0
 165 -134 185 -114 201 -90 c 0
 221 -61 241 2 241 18 c 0
 241 33 218 79 199 119 c 2
 67 401 l 2
 57 423 40 432 14 436 c 1
 14 450 l 1
 219 450 l 1
 219 435 l 1
 176 433 162 426 162 408 c 0
 162 397 169 381 175 367 c 2
 287 117 l 1
 384 393 l 2
 387 400 388 407 388 411 c 0
 388 427 373 435 342 435 c 1
 342 450 l 1
 475 450 l 1
EndSplineSet
EndChar

StartChar: fraction
Encoding: 8260 8260 217
Width: 167
Flags: MW
GlyphVariantsVertical: fraction slash.size1 slash.size2 slash.size3 slash.size4
HStem: -14 20 656 20<285 331 331 331>
LayerCount: 2
Fore
SplineSet
331 676 m 1
 -119 -14 l 1
 -168 -14 l 1
 285 676 l 1
 331 676 l 1
EndSplineSet
EndChar

StartChar: breve
Encoding: 728 728 218
Width: 335
Flags: MW
TopAccentHorizontal: 168
HStem: 507 60<136.5 195 136.5 207> 644 20<27 56 56 56 279 308 308 308>
LayerCount: 2
Fore
SplineSet
279 664 m 1
 308 664 l 1
 296 558 248 507 166 507 c 0
 72 507 27 567 27 664 c 1
 56 664 l 1
 69 601 105 567 168 567 c 0
 222 567 250 593 279 664 c 1
EndSplineSet
EndChar

StartChar: dotaccent
Encoding: 729 729 219
Width: 333
Flags: MW
TopAccentHorizontal: 168
HStem: 523 99<153.5 180.5>
VStem: 118 99<558.5 585.5>
LayerCount: 2
Fore
SplineSet
217 572 m 0
 217 543 194 523 167 523 c 0
 140 523 118 545 118 572 c 0
 118 599 137 622 167 622 c 0
 198 622 217 600 217 572 c 0
EndSplineSet
EndChar

StartChar: ring
Encoding: 730 730 220
Width: 333
Flags: MW
TopAccentHorizontal: 166
HStem: 512 34<147.5 184 147.5 193> 677 34<148 183.5>
VStem: 67 34<593.5 629.5 593.5 639.5> 232 34<593.5 630>
LayerCount: 2
Fore
SplineSet
266 611 m 0
 266 556 221 512 165 512 c 0
 110 512 67 556 67 612 c 0
 67 667 112 711 168 711 c 0
 221 711 266 665 266 611 c 0
232 612 m 0
 232 648 202 677 165 677 c 0
 131 677 101 647 101 612 c 0
 101 575 130 546 165 546 c 0
 203 546 232 575 232 612 c 0
EndSplineSet
EndChar

StartChar: hungarumlaut
Encoding: 733 733 221
Width: 333
Flags: MW
TopAccentHorizontal: 186
HStem: 658 20<179.5 196 335.5 352>
LayerCount: 2
Fore
SplineSet
153 507 m 1
 299 655 l 2
 319 675 329 678 342 678 c 0
 362 678 376 667 376 648 c 0
 376 630 368 616 347 603 c 2
 193 507 l 1
 153 507 l 1
-3 507 m 1
 143 655 l 2
 163 675 173 678 186 678 c 0
 206 678 220 667 220 648 c 0
 220 630 212 616 191 603 c 2
 37 507 l 1
 -3 507 l 1
EndSplineSet
EndChar

StartChar: ogonek
Encoding: 731 731 222
Width: 333
Flags: MW
HStem: -165 56<147 161> 0 20
VStem: 64 56<-84 -73>
LayerCount: 2
Fore
SplineSet
229 -73 m 1
 249 -89 l 1
 213 -143 184 -165 138 -165 c 0
 95 -165 64 -138 64 -91 c 0
 64 -55 80 -27 118 0 c 1
 164 0 l 1
 133 -25 120 -47 120 -70 c 0
 120 -98 136 -109 158 -109 c 0
 179 -109 200 -100 229 -73 c 1
EndSplineSet
EndChar

StartChar: caron
Encoding: 711 711 223
Width: 333
Flags: MW
TopAccentHorizontal: 166
HStem: 654 20<11 46 46 46 287 322 322 322>
LayerCount: 2
Fore
SplineSet
322 674 m 1
 198 507 l 1
 134 507 l 1
 11 674 l 1
 46 674 l 1
 166 571 l 1
 287 674 l 1
 322 674 l 1
EndSplineSet
EndChar

StartChar: Lslash
Encoding: 321 321 224
Width: 611
Flags: MW
HStem: 0 39<288 351 351 386.5 288 548> 642 20<11 293 293 293>
LayerCount: 2
Fore
SplineSet
597 174 m 1
 548 0 l 1
 10 0 l 1
 10 19 l 1
 84 22 98 44 98 111 c 2
 98 280 l 1
 11 227 l 1
 11 276 l 1
 98 330 l 1
 98 551 l 2
 98 625 84 639 11 643 c 1
 11 662 l 1
 293 662 l 1
 293 643 l 1
 218 639 200 626 200 551 c 2
 200 379 l 1
 355 474 l 1
 355 425 l 1
 200 331 l 1
 200 82 l 2
 200 47 215 39 288 39 c 2
 351 39 l 2
 422 39 466 49 499 72 c 0
 529 94 549 127 571 174 c 1
 597 174 l 1
EndSplineSet
EndChar

StartChar: dotlessi
Encoding: 305 305 225
Width: 278
Flags: MW
TopAccentHorizontal: 134
HStem: 0 20 440 20<174 174>
VStem: 95 84<104 105 105 331 331 354.5>
LayerCount: 2
Fore
SplineSet
253 0 m 1
 16 0 l 1
 16 15 l 1
 85 19 95 28 95 104 c 2
 95 331 l 2
 95 378 87 394 62 394 c 0
 53 394 38 394 20 389 c 1
 20 405 l 1
 174 460 l 1
 179 456 l 1
 179 105 l 2
 179 31 187 20 253 15 c 1
 253 0 l 1
EndSplineSet
EndChar

StartChar: lslash
Encoding: 322 322 226
Width: 278
Flags: MW
HStem: 0 20
VStem: 98 84<89 319 319 319 363 376 420 562 562 588>
LayerCount: 2
Fore
SplineSet
259 429 m 1
 182 376 l 1
 182 86 l 2
 182 28 192 22 258 15 c 1
 258 0 l 1
 20 0 l 1
 20 15 l 1
 87 20 98 31 98 89 c 2
 98 319 l 1
 20 265 l 1
 20 309 l 1
 98 363 l 1
 98 562 l 2
 98 614 88 625 56 625 c 0
 48 625 34 623 19 620 c 1
 19 639 l 1
 88 656 125 666 177 683 c 1
 182 680 l 1
 182 420 l 1
 259 473 l 1
 259 429 l 1
EndSplineSet
EndChar

StartChar: minus
Encoding: 8722 8722 227
Width: 685
Flags: MW
HStem: 220 66<64 621 64 621>
LayerCount: 2
Fore
SplineSet
621 220 m 1
 64 220 l 1
 64 286 l 1
 621 286 l 1
 621 220 l 1
EndSplineSet
EndChar

StartChar: Zcaron
Encoding: 381 381 228
Width: 612
Flags: MW
HStem: 0 38<146 398 398 426 146 573> 624 38<197.5 233 233 447>
LayerCount: 2
Fore
SplineSet
464 924 m 1
 340 757 l 1
 276 757 l 1
 153 924 l 1
 188 924 l 1
 308 821 l 1
 429 924 l 1
 464 924 l 1
598 176 m 1
 573 0 l 1
 10 0 l 1
 10 15 l 1
 447 624 l 1
 233 624 l 2
 162 624 123 613 99 589 c 0
 74 563 68 546 58 491 c 1
 32 491 l 1
 53 662 l 1
 578 662 l 1
 578 647 l 1
 146 38 l 1
 398 38 l 2
 454 38 490 48 515 66 c 0
 548 89 557 117 575 176 c 1
 598 176 l 1
EndSplineSet
EndChar

StartChar: zcaron
Encoding: 382 382 229
Width: 444
Flags: MW
HStem: 0 30<134 267 267 296 134 403> 420 30<126.5 158 158 293> 654 20<73 108 108 108 349 384 384 384>
LayerCount: 2
Fore
SplineSet
384 674 m 1
 260 507 l 1
 196 507 l 1
 73 674 l 1
 108 674 l 1
 228 571 l 1
 349 674 l 1
 384 674 l 1
418 136 m 1
 403 0 l 1
 27 0 l 1
 27 15 l 1
 293 420 l 1
 158 420 l 2
 95 420 80 405 71 332 c 1
 53 332 l 1
 57 450 l 1
 403 450 l 1
 403 435 l 1
 134 30 l 1
 267 30 l 2
 325 30 359 40 373 57 c 0
 387 74 390 90 400 140 c 1
 418 136 l 1
EndSplineSet
EndChar

StartChar: twodotenleader
Encoding: 8229 8229 230
Width: 667
Flags: MW
HStem: -11 111<151.5 181 484.5 514>
VStem: 111 111<28.5 58 28.5 59.5> 444 111<28.5 58 28.5 59.5>
LayerCount: 2
Fore
SplineSet
555 43 m 0
 555 14 529 -11 499 -11 c 0
 468 -11 444 13 444 44 c 0
 444 75 469 100 500 100 c 0
 529 100 555 73 555 43 c 0
222 43 m 0
 222 14 196 -11 166 -11 c 0
 135 -11 111 13 111 44 c 0
 111 75 136 100 167 100 c 0
 196 100 222 73 222 43 c 0
EndSplineSet
EndChar

StartChar: nsuperior
Encoding: 8319 8319 231
Width: 541
Flags: MW
HStem: 628 48<299 306.5>
VStem: 113 81<347 560 560 577> 349 81<356 539 539 540>
LayerCount: 2
Fore
SplineSet
484 270 m 1
 294 270 l 1
 295 294 l 1
 339 298 349 298 349 356 c 2
 349 539 l 2
 349 601 328 628 285 628 c 0
 256 628 235 617 194 577 c 1
 194 327 l 2
 194 293 207 298 252 294 c 1
 252 270 l 1
 59 270 l 1
 59 294 l 1
 104 297 113 297 113 347 c 2
 113 560 l 2
 113 603 107 617 83 617 c 0
 73 617 63 615 57 612 c 1
 57 636 l 1
 105 650 134 660 178 676 c 1
 192 672 l 1
 192 605 l 1
 193 605 l 1
 238 657 279 676 319 676 c 0
 386 676 430 628 430 540 c 2
 430 339 l 2
 430 291 441 299 484 294 c 1
 484 270 l 1
EndSplineSet
EndChar

StartChar: figuredash
Encoding: 8210 8210 232
Width: 500
Flags: MW
HStem: 193 66<0 500 0 500>
LayerCount: 2
Fore
SplineSet
500 193 m 1
 0 193 l 1
 0 259 l 1
 500 259 l 1
 500 193 l 1
EndSplineSet
EndChar

StartChar: oneeighth
Encoding: 8539 8539 233
Width: 750
Flags: MW
HStem: -14 20 -8 54<572 610.5 572 625.5> 353 53<561.5 595.5> 656 20<146 146 549 595 595 595>
VStem: 90 70<327 333 333 581 581 592.5> 452 70<86.5 105> 457 65<294.5 323> 644 62<297.5 317> 654 68<77 103.5>
LayerCount: 2
Fore
SplineSet
722 98 m 0x7080
 722 32 667 -8 584 -8 c 0
 506 -8 452 23 452 84 c 0x7480
 452 126 467 159 532 200 c 1
 470 246 457 266 457 307 c 0
 457 367 512 406 590 406 c 0
 658 406 706 369 706 321 c 0x73
 706 274 684 250 625 222 c 1
 699 177 722 146 722 98 c 0x7080
644 301 m 0x73
 644 333 612 353 579 353 c 0
 544 353 522 337 522 309 c 0
 522 280 537 265 589 239 c 1
 623 258 644 272 644 301 c 0x73
598 162 m 2x7c80
 567 181 l 1
 534 158 522 135 522 107 c 0
 522 66 551 46 593 46 c 0
 628 46 654 63 654 91 c 0
 654 116 634 140 598 162 c 2x7c80
595 676 m 1
 145 -14 l 1
 96 -14 l 1x9c80
 549 676 l 1
 595 676 l 1
217 270 m 1
 37 270 l 1
 37 294 l 1
 80 297 90 304 90 327 c 2
 90 581 l 2
 90 604 87 611 81 611 c 0
 74 611 65 609 39 597 c 1
 39 621 l 1
 146 676 l 1
 160 672 l 1
 160 333 l 2
 160 307 174 294 217 294 c 1
 217 270 l 1
EndSplineSet
EndChar

StartChar: threeeighths
Encoding: 8540 8540 234
Width: 750
Flags: MW
HStem: -14 20 -8 54<577 615.5 577 630.5> 262 48<133 159.5> 353 53<566.5 600.5> 443 20<120 148.5> 620 56<125.5 149.5>
VStem: 188 76<579 588> 210 81<360.5 407> 457 70<86.5 105> 462 65<294.5 323> 649 62<297.5 317> 659 68<77 103.5>
LayerCount: 2
Fore
SplineSet
727 98 m 0x5410
 727 32 672 -8 589 -8 c 0
 511 -8 457 23 457 84 c 0x5490
 457 126 472 159 537 200 c 1
 475 246 462 266 462 307 c 0
 462 367 517 406 595 406 c 0
 663 406 711 369 711 321 c 0x5460
 711 274 689 250 630 222 c 1
 704 177 727 146 727 98 c 0x5410
649 301 m 0x5460
 649 333 617 353 584 353 c 0
 549 353 527 337 527 309 c 0
 527 280 542 265 594 239 c 1
 628 258 649 272 649 301 c 0x5460
603 162 m 2x5690
 572 181 l 1
 539 158 527 135 527 107 c 0
 527 66 556 46 598 46 c 0
 633 46 659 63 659 91 c 0
 659 116 639 140 603 162 c 2x5690
637 676 m 1
 187 -14 l 1
 138 -14 l 1xae90
 591 676 l 1
 637 676 l 1
204 511 m 1
 204 509 l 1
 264 494 291 447 291 399 c 0
 291 320 215 262 104 262 c 0
 51 262 13 286 13 318 c 0
 13 339 30 349 50 349 c 0
 61 349 72 344 91 330 c 0
 113 314 124 310 142 310 c 0
 183 310 210 340 210 381 c 0xad
 210 433 176 463 121 463 c 0
 119 463 117 463 93 460 c 1
 93 489 l 1
 163 513 188 537 188 573 c 0
 188 603 167 620 132 620 c 0
 96 620 73 606 46 562 c 1
 21 581 l 1
 57 648 95 676 156 676 c 0
 217 676 264 640 264 593 c 0
 264 565 252 535 204 511 c 1
EndSplineSet
EndChar

StartChar: fiveeighths
Encoding: 8541 8541 235
Width: 750
Flags: MW
HStem: -14 20 -8 54<577 615.5 577 630.5> 252 48<148 172> 353 53<566.5 600.5> 588 72<128 255 124 257> 656 20<288 288 591 637 637 637>
VStem: 231 65<358.5 397.5> 457 70<86.5 105> 462 65<294.5 323> 649 62<297.5 317> 659 68<77 103.5>
LayerCount: 2
Fore
SplineSet
727 98 m 0x5420
 727 32 672 -8 589 -8 c 0
 511 -8 457 23 457 84 c 0x5520
 457 126 472 159 537 200 c 1
 475 246 462 266 462 307 c 0
 462 367 517 406 595 406 c 0
 663 406 711 369 711 321 c 0x54c0
 711 274 689 250 630 222 c 1
 704 177 727 146 727 98 c 0x5420
649 301 m 0x54c0
 649 333 617 353 584 353 c 0
 549 353 527 337 527 309 c 0
 527 280 542 265 594 239 c 1
 628 258 649 272 649 301 c 0x54c0
603 162 m 2x5720
 572 181 l 1
 539 158 527 135 527 107 c 0
 527 66 556 46 598 46 c 0
 633 46 659 63 659 91 c 0
 659 116 639 140 603 162 c 2x5720
637 676 m 1
 187 -14 l 1
 138 -14 l 1x8720
 591 676 l 1
 637 676 l 1
307 664 m 1
 274 600 l 2
 271 593 266 588 255 588 c 2
 124 588 l 1
 109 563 l 1
 191 550 222 538 247 515 c 0
 280 485 296 462 296 405 c 0
 296 312 229 252 115 252 c 0
 52 252 29 279 29 305 c 0
 29 325 41 337 61 337 c 0
 78 337 86 335 111 317 c 0
 129 304 141 300 155 300 c 0
 198 300 231 330 231 382 c 0
 231 413 216 437 185 458 c 0
 156 478 113 486 53 486 c 0
 44 486 43 489 43 498 c 0
 43 501 43 503 44 505 c 2
 128 660 l 1
 257 660 l 2x2b20
 274 660 279 664 288 676 c 1
 307 664 l 1
EndSplineSet
EndChar

StartChar: seveneighths
Encoding: 8542 8542 236
Width: 750
Flags: MW
HStem: -14 20 -8 54<577 615.5 577 630.5> 353 53<566.5 600.5> 595 65<103.5 123 123 249> 656 20<554 600 600 600>
VStem: 457 70<86.5 105> 462 65<294.5 323> 649 62<297.5 317> 659 68<77 103.5>
LayerCount: 2
Fore
SplineSet
727 98 m 0x6880
 727 32 672 -8 589 -8 c 0
 511 -8 457 23 457 84 c 0x6c80
 457 126 472 159 537 200 c 1
 475 246 462 266 462 307 c 0
 462 367 517 406 595 406 c 0
 663 406 711 369 711 321 c 0x6b
 711 274 689 250 630 222 c 1
 704 177 727 146 727 98 c 0x6880
649 301 m 0x6b
 649 333 617 353 584 353 c 0
 549 353 527 337 527 309 c 0
 527 280 542 265 594 239 c 1
 628 258 649 272 649 301 c 0x6b
603 162 m 2x6c80
 572 181 l 1
 539 158 527 135 527 107 c 0
 527 66 556 46 598 46 c 0
 633 46 659 63 659 91 c 0
 659 116 639 140 603 162 c 2x6c80
600 676 m 1
 150 -14 l 1
 101 -14 l 1x8c80
 554 676 l 1
 600 676 l 1
321 642 m 1x1480
 177 255 l 1
 121 255 l 1
 249 595 l 1
 123 595 l 2
 84 595 77 590 52 558 c 1
 28 568 l 1
 73 660 l 1
 321 660 l 1
 321 642 l 1x1480
EndSplineSet
EndChar

StartChar: onethird
Encoding: 8531 8531 237
Width: 750
Flags: MW
HStem: -14 20 -8 48<567 593.5> 350 56<559.5 583.5> 656 20<145 145 548 594 594 594>
VStem: 89 70<327 333 333 581 581 592.5> 622 76<309 318> 644 81<90.5 137>
LayerCount: 2
Fore
SplineSet
638 241 m 1x74
 638 239 l 1
 698 224 725 177 725 129 c 0
 725 50 649 -8 538 -8 c 0
 485 -8 447 16 447 48 c 0
 447 69 464 79 484 79 c 0
 495 79 506 74 525 60 c 0
 547 44 558 40 576 40 c 0
 617 40 644 70 644 111 c 0x7a
 644 163 610 193 555 193 c 0
 553 193 551 193 527 190 c 1
 527 219 l 1
 597 243 622 267 622 303 c 0
 622 333 601 350 566 350 c 0
 530 350 507 336 480 292 c 1
 455 311 l 1
 491 378 529 406 590 406 c 0
 651 406 698 370 698 323 c 0
 698 295 686 265 638 241 c 1x74
594 676 m 1
 144 -14 l 1
 95 -14 l 1x9a
 548 676 l 1
 594 676 l 1
216 270 m 1
 36 270 l 1
 36 294 l 1
 79 297 89 304 89 327 c 2
 89 581 l 2
 89 604 86 611 80 611 c 0
 73 611 64 609 38 597 c 1
 38 621 l 1
 145 676 l 1
 159 672 l 1
 159 333 l 2
 159 307 173 294 216 294 c 1
 216 270 l 1
EndSplineSet
EndChar

StartChar: twothirds
Encoding: 8532 8532 238
Width: 750
Flags: MW
HStem: -14 20 -8 48<573 599.5> 270 65<120 233 233 246.5 120 270> 350 56<565.5 589.5> 616 60<121.5 158>
VStem: 208 82<542.5 566> 628 76<309 318> 650 81<90.5 137>
LayerCount: 2
Fore
SplineSet
644 241 m 1x5a
 644 239 l 1
 704 224 731 177 731 129 c 0
 731 50 655 -8 544 -8 c 0
 491 -8 453 16 453 48 c 0
 453 69 470 79 490 79 c 0
 501 79 512 74 531 60 c 0
 553 44 564 40 582 40 c 0
 623 40 650 70 650 111 c 0x5d
 650 163 616 193 561 193 c 0
 559 193 557 193 533 190 c 1
 533 219 l 1
 603 243 628 267 628 303 c 0
 628 333 607 350 572 350 c 0
 536 350 513 336 486 292 c 1
 461 311 l 1
 497 378 535 406 596 406 c 0
 657 406 704 370 704 323 c 0
 704 295 692 265 644 241 c 1x5a
637 676 m 1
 187 -14 l 1
 138 -14 l 1xad
 591 676 l 1
 637 676 l 1
309 355 m 1
 270 270 l 1
 19 270 l 1
 19 294 l 1
 120 402 l 2
 171 457 208 502 208 541 c 0
 208 591 181 616 135 616 c 0
 98 616 61 590 39 542 c 1
 14 557 l 1
 42 639 79 676 164 676 c 0
 242 676 290 630 290 567 c 0
 290 518 269 479 204 416 c 2
 120 335 l 1
 233 335 l 2
 260 335 276 340 291 362 c 1
 309 355 l 1
EndSplineSet
EndChar

StartChar: uni0100
Encoding: 256 256 239
Width: 722
Flags: MW
HStem: 0 20 216 41<216 447 216 461 199 447> 719 54<200 511 200 511>
LayerCount: 2
Fore
SplineSet
511 719 m 1
 200 719 l 1
 200 773 l 1
 511 773 l 1
 511 719 l 1
707 0 m 1
 452 0 l 1
 452 19 l 1
 488 19 495 21 507 28 c 0
 515 32 521 43 521 52 c 0
 521 67 514 94 502 122 c 2
 461 216 l 1
 199 216 l 1
 153 102 l 2
 148 89 144 72 144 60 c 0
 144 29 166 19 214 19 c 1
 214 0 l 1
 15 0 l 1
 15 19 l 1
 73 25 82 46 141 186 c 2
 347 674 l 1
 367 674 l 1
 613 111 l 2
 641 46 655 25 707 19 c 1
 707 0 l 1
447 257 m 1
 331 532 l 1
 216 257 l 1
 447 257 l 1
EndSplineSet
EndChar

StartChar: uni0101
Encoding: 257 257 240
Width: 444
Flags: MW
HStem: -10 57<333.5 407> -10 58<111 204> 436 24<199.5 231.5> 507 54<69 380 69 380>
VStem: 37 88<98.5 120> 56 83<336.5 400.5> 287 81<63 113 127 268 268 268 292 304>
LayerCount: 2
Fore
SplineSet
380 507 m 1xb6
 69 507 l 1
 69 561 l 1
 380 561 l 1
 380 507 l 1xb6
442 66 m 1
 442 38 l 1
 412 0 386 -10 352 -10 c 0x8a
 315 -10 293 10 288 63 c 1
 287 63 l 1
 234 3 185 -10 142 -10 c 0
 80 -10 37 28 37 94 c 0x4a
 37 146 68 185 107 211 c 0
 137 231 174 250 287 292 c 1
 287 346 l 2
 287 408 254 436 209 436 c 0
 169 436 139 414 139 387 c 0
 139 369 145 366 145 345 c 0
 145 326 125 304 99 304 c 0
 78 304 56 323 56 350 c 0
 56 376 72 408 107 430 c 0
 135 448 177 460 222 460 c 0
 278 460 316 444 340 415 c 0
 364 386 368 365 368 304 c 2
 368 113 l 2
 368 67 381 47 399 47 c 0
 415 47 425 52 442 66 c 1
287 127 m 2
 287 268 l 1
 225 246 184 225 159 202 c 0
 135 180 125 156 125 125 c 0
 125 72 155 48 194 48 c 0x4a
 214 48 235 53 252 64 c 0
 281 84 287 98 287 127 c 2
EndSplineSet
EndChar

StartChar: uni0102
Encoding: 258 258 241
Width: 722
Flags: MW
HStem: 0 20 216 41<216 447 216 461 199 447> 719 60<327.5 386 327.5 398>
LayerCount: 2
Fore
SplineSet
470 876 m 1
 499 876 l 1
 487 770 439 719 357 719 c 0
 263 719 218 779 218 876 c 1
 247 876 l 1
 260 813 296 779 359 779 c 0
 413 779 441 805 470 876 c 1
707 0 m 1
 452 0 l 1
 452 19 l 1
 488 19 495 21 507 28 c 0
 515 32 521 43 521 52 c 0
 521 67 514 94 502 122 c 2
 461 216 l 1
 199 216 l 1
 153 102 l 2
 148 89 144 72 144 60 c 0
 144 29 166 19 214 19 c 1
 214 0 l 1
 15 0 l 1
 15 19 l 1
 73 25 82 46 141 186 c 2
 347 674 l 1
 367 674 l 1
 613 111 l 2
 641 46 655 25 707 19 c 1
 707 0 l 1
447 257 m 1
 331 532 l 1
 216 257 l 1
 447 257 l 1
EndSplineSet
EndChar

StartChar: uni0103
Encoding: 259 259 242
Width: 444
Flags: MW
HStem: -10 57<333.5 407> -10 58<111 204> 436 24<199.5 231.5> 507 60<200.5 259 200.5 271> 644 20<91 120 120 120 343 372 372 372>
VStem: 37 88<98.5 120> 56 83<336.5 400.5> 287 81<63 113 127 268 268 268 292 304>
LayerCount: 2
Fore
SplineSet
343 664 m 1xbb
 372 664 l 1
 360 558 312 507 230 507 c 0
 136 507 91 567 91 664 c 1
 120 664 l 1
 133 601 169 567 232 567 c 0
 286 567 314 593 343 664 c 1xbb
442 66 m 1
 442 38 l 1
 412 0 386 -10 352 -10 c 0x85
 315 -10 293 10 288 63 c 1
 287 63 l 1
 234 3 185 -10 142 -10 c 0
 80 -10 37 28 37 94 c 0x45
 37 146 68 185 107 211 c 0
 137 231 174 250 287 292 c 1
 287 346 l 2
 287 408 254 436 209 436 c 0
 169 436 139 414 139 387 c 0
 139 369 145 366 145 345 c 0
 145 326 125 304 99 304 c 0
 78 304 56 323 56 350 c 0
 56 376 72 408 107 430 c 0
 135 448 177 460 222 460 c 0
 278 460 316 444 340 415 c 0
 364 386 368 365 368 304 c 2
 368 113 l 2
 368 67 381 47 399 47 c 0
 415 47 425 52 442 66 c 1
287 127 m 2
 287 268 l 1
 225 246 184 225 159 202 c 0
 135 180 125 156 125 125 c 0
 125 72 155 48 194 48 c 0x45
 214 48 235 53 252 64 c 0
 281 84 287 98 287 127 c 2
EndSplineSet
EndChar

StartChar: uni0104
Encoding: 260 260 243
Width: 722
Flags: MW
HStem: -165 56<590 604> 0 20 216 41<216 447 216 461 199 447> 654 20<347 367 367 367>
VStem: 507 56<-84 -73>
LayerCount: 2
Fore
SplineSet
561 0 m 1
 452 0 l 1
 452 19 l 1
 488 19 495 21 507 28 c 0
 515 32 521 43 521 52 c 0
 521 67 514 94 502 122 c 2
 461 216 l 1
 199 216 l 1
 153 102 l 2
 148 89 144 72 144 60 c 0
 144 29 166 19 214 19 c 1
 214 0 l 1
 15 0 l 1
 15 19 l 1
 73 25 82 46 141 186 c 2
 347 674 l 1
 367 674 l 1
 613 111 l 2
 641 46 655 25 707 19 c 1
 707 0 l 1
 607 0 l 1
 576 -25 563 -47 563 -70 c 0
 563 -98 579 -109 601 -109 c 0
 622 -109 643 -100 672 -73 c 1
 692 -89 l 1
 656 -143 627 -165 581 -165 c 0
 538 -165 507 -138 507 -91 c 0
 507 -55 523 -27 561 0 c 1
447 257 m 1
 331 532 l 1
 216 257 l 1
 447 257 l 1
EndSplineSet
EndChar

StartChar: uni0105
Encoding: 261 261 244
Width: 444
Flags: MW
HStem: -165 56<370 384> -10 58<111 204> 436 24<199.5 231.5>
VStem: 37 88<98.5 120> 56 83<336.5 400.5> 287 56<-84 -74.5> 287 81<63 113 127 268 268 268 292 304>
LayerCount: 2
Fore
SplineSet
452 -73 m 1xe4
 472 -89 l 1
 436 -143 407 -165 361 -165 c 0
 318 -165 287 -138 287 -91 c 0xe4
 287 -58 300 -32 331 -7 c 1
 307 0 292 21 288 63 c 1
 287 63 l 1
 234 3 185 -10 142 -10 c 0
 80 -10 37 28 37 94 c 0xf2
 37 146 68 185 107 211 c 0
 137 231 174 250 287 292 c 1
 287 346 l 2
 287 408 254 436 209 436 c 0
 169 436 139 414 139 387 c 0
 139 369 145 366 145 345 c 0
 145 326 125 304 99 304 c 0
 78 304 56 323 56 350 c 0
 56 376 72 408 107 430 c 0
 135 448 177 460 222 460 c 0
 278 460 316 444 340 415 c 0
 364 386 368 365 368 304 c 2
 368 113 l 2xea
 368 67 381 47 399 47 c 0
 415 47 425 52 442 66 c 1
 442 38 l 1
 420 10 400 -2 378 -7 c 1
 354 -29 343 -49 343 -70 c 0
 343 -98 359 -109 381 -109 c 0
 402 -109 423 -100 452 -73 c 1xe4
287 127 m 2xf2
 287 268 l 1
 225 246 184 225 159 202 c 0
 135 180 125 156 125 125 c 0
 125 72 155 48 194 48 c 0
 214 48 235 53 252 64 c 0
 281 84 287 98 287 127 c 2xf2
EndSplineSet
EndChar

StartChar: uni0106
Encoding: 262 262 245
Width: 667
Flags: MW
HStem: -14 44<359.5 419> 636 40<314.5 380.5 314.5 416.5>
LayerCount: 2
Fore
SplineSet
293 719 m 1
 440 867 l 2
 458 885 467 890 482 890 c 0
 504 890 517 878 517 858 c 0
 517 842 508 829 487 816 c 2
 333 719 l 1
 293 719 l 1
614 131 m 1
 633 113 l 1
 575 30 478 -14 360 -14 c 0
 269 -14 182 18 124 75 c 0
 63 135 28 226 28 325 c 0
 28 425 61 508 118 572 c 0
 182 643 268 676 361 676 c 0
 400 676 440 672 480 661 c 0
 501 655 532 643 549 643 c 0
 568 643 585 655 591 676 c 1
 611 676 l 1
 620 449 l 1
 597 449 l 1
 585 504 570 533 545 560 c 0
 501 607 449 636 384 636 c 0
 233 636 144 514 144 341 c 0
 144 231 169 153 216 102 c 0
 260 55 325 30 394 30 c 0
 484 30 539 60 614 131 c 1
EndSplineSet
EndChar

StartChar: uni0107
Encoding: 263 263 246
Width: 444
Flags: MW
HStem: -10 72<211 236.5> 431 29<220.5 256> 658 20<358.5 377>
VStem: 25 77<199.5 253.5>
LayerCount: 2
Fore
SplineSet
177 507 m 1
 324 655 l 2
 342 673 351 678 366 678 c 0
 388 678 401 666 401 646 c 0
 401 630 392 617 371 604 c 2
 217 507 l 1
 177 507 l 1
398 156 m 1
 412 147 l 1
 380 85 360 56 330 32 c 0
 296 4 258 -10 215 -10 c 0
 104 -10 25 83 25 212 c 0
 25 295 55 364 109 409 c 0
 149 442 197 460 244 460 c 0
 328 460 398 413 398 357 c 0
 398 334 377 315 351 315 c 0
 329 315 311 332 303 361 c 2
 297 383 l 2
 287 420 274 431 238 431 c 0
 157 431 102 361 102 257 c 0
 102 142 165 62 257 62 c 0
 314 62 350 86 398 156 c 1
EndSplineSet
EndChar

StartChar: uni0108
Encoding: 264 264 247
Width: 667
Flags: MW
HStem: -14 44<359.5 419> 636 40<314.5 380.5 314.5 416.5>
LayerCount: 2
Fore
SplineSet
510 719 m 1
 476 719 l 1
 354 822 l 1
 233 719 l 1
 199 719 l 1
 323 886 l 1
 385 886 l 1
 510 719 l 1
614 131 m 1
 633 113 l 1
 575 30 478 -14 360 -14 c 0
 269 -14 182 18 124 75 c 0
 63 135 28 226 28 325 c 0
 28 425 61 508 118 572 c 0
 182 643 268 676 361 676 c 0
 400 676 440 672 480 661 c 0
 501 655 532 643 549 643 c 0
 568 643 585 655 591 676 c 1
 611 676 l 1
 620 449 l 1
 597 449 l 1
 585 504 570 533 545 560 c 0
 501 607 449 636 384 636 c 0
 233 636 144 514 144 341 c 0
 144 231 169 153 216 102 c 0
 260 55 325 30 394 30 c 0
 484 30 539 60 614 131 c 1
EndSplineSet
EndChar

StartChar: uni0109
Encoding: 265 265 248
Width: 444
Flags: MW
HStem: -10 72<211 236.5> 431 29<220.5 256> 654 20<189 251 251 251>
VStem: 25 77<199.5 253.5>
LayerCount: 2
Fore
SplineSet
376 507 m 1
 342 507 l 1
 220 610 l 1
 99 507 l 1
 65 507 l 1
 189 674 l 1
 251 674 l 1
 376 507 l 1
398 156 m 1
 412 147 l 1
 380 85 360 56 330 32 c 0
 296 4 258 -10 215 -10 c 0
 104 -10 25 83 25 212 c 0
 25 295 55 364 109 409 c 0
 149 442 197 460 244 460 c 0
 328 460 398 413 398 357 c 0
 398 334 377 315 351 315 c 0
 329 315 311 332 303 361 c 2
 297 383 l 2
 287 420 274 431 238 431 c 0
 157 431 102 361 102 257 c 0
 102 142 165 62 257 62 c 0
 314 62 350 86 398 156 c 1
EndSplineSet
EndChar

StartChar: uni010A
Encoding: 266 266 249
Width: 667
Flags: MW
HStem: -14 44<359.5 419> 636 40<314.5 380.5 314.5 416.5> 735 99<386.5 413.5>
VStem: 351 99<770.5 797.5>
LayerCount: 2
Fore
SplineSet
450 784 m 0
 450 755 427 735 400 735 c 0
 373 735 351 757 351 784 c 0
 351 811 370 834 400 834 c 0
 431 834 450 812 450 784 c 0
614 131 m 1
 633 113 l 1
 575 30 478 -14 360 -14 c 0
 269 -14 182 18 124 75 c 0
 63 135 28 226 28 325 c 0
 28 425 61 508 118 572 c 0
 182 643 268 676 361 676 c 0
 400 676 440 672 480 661 c 0
 501 655 532 643 549 643 c 0
 568 643 585 655 591 676 c 1
 611 676 l 1
 620 449 l 1
 597 449 l 1
 585 504 570 533 545 560 c 0
 501 607 449 636 384 636 c 0
 233 636 144 514 144 341 c 0
 144 231 169 153 216 102 c 0
 260 55 325 30 394 30 c 0
 484 30 539 60 614 131 c 1
EndSplineSet
EndChar

StartChar: uni010B
Encoding: 267 267 250
Width: 444
Flags: MW
HStem: -10 72<211 236.5> 431 29<220.5 256> 523 99<237.5 264.5>
VStem: 25 77<199.5 253.5> 202 99<558.5 585.5>
LayerCount: 2
Fore
SplineSet
301 572 m 0
 301 543 278 523 251 523 c 0
 224 523 202 545 202 572 c 0
 202 599 221 622 251 622 c 0
 282 622 301 600 301 572 c 0
398 156 m 1
 412 147 l 1
 380 85 360 56 330 32 c 0
 296 4 258 -10 215 -10 c 0
 104 -10 25 83 25 212 c 0
 25 295 55 364 109 409 c 0
 149 442 197 460 244 460 c 0
 328 460 398 413 398 357 c 0
 398 334 377 315 351 315 c 0
 329 315 311 332 303 361 c 2
 297 383 l 2
 287 420 274 431 238 431 c 0
 157 431 102 361 102 257 c 0
 102 142 165 62 257 62 c 0
 314 62 350 86 398 156 c 1
EndSplineSet
EndChar

StartChar: uni010C
Encoding: 268 268 251
Width: 667
Flags: MW
HStem: -14 44<359.5 419> 636 40<314.5 380.5 314.5 416.5>
LayerCount: 2
Fore
SplineSet
543 886 m 1
 419 719 l 1
 355 719 l 1
 232 886 l 1
 267 886 l 1
 387 783 l 1
 508 886 l 1
 543 886 l 1
614 131 m 1
 633 113 l 1
 575 30 478 -14 360 -14 c 0
 269 -14 182 18 124 75 c 0
 63 135 28 226 28 325 c 0
 28 425 61 508 118 572 c 0
 182 643 268 676 361 676 c 0
 400 676 440 672 480 661 c 0
 501 655 532 643 549 643 c 0
 568 643 585 655 591 676 c 1
 611 676 l 1
 620 449 l 1
 597 449 l 1
 585 504 570 533 545 560 c 0
 501 607 449 636 384 636 c 0
 233 636 144 514 144 341 c 0
 144 231 169 153 216 102 c 0
 260 55 325 30 394 30 c 0
 484 30 539 60 614 131 c 1
EndSplineSet
EndChar

StartChar: uni010D
Encoding: 269 269 252
Width: 444
Flags: MW
HStem: -10 72<211 236.5> 431 29<220.5 256> 654 20<85 120 120 120 361 396 396 396>
VStem: 25 77<199.5 253.5>
LayerCount: 2
Fore
SplineSet
396 674 m 1
 272 507 l 1
 208 507 l 1
 85 674 l 1
 120 674 l 1
 240 571 l 1
 361 674 l 1
 396 674 l 1
398 156 m 1
 412 147 l 1
 380 85 360 56 330 32 c 0
 296 4 258 -10 215 -10 c 0
 104 -10 25 83 25 212 c 0
 25 295 55 364 109 409 c 0
 149 442 197 460 244 460 c 0
 328 460 398 413 398 357 c 0
 398 334 377 315 351 315 c 0
 329 315 311 332 303 361 c 2
 297 383 l 2
 287 420 274 431 238 431 c 0
 157 431 102 361 102 257 c 0
 102 142 165 62 257 62 c 0
 314 62 350 86 398 156 c 1
EndSplineSet
EndChar

StartChar: uni010E
Encoding: 270 270 253
Width: 722
Flags: MW
HStem: 0 37<234.5 297> 625 37<240 286 286 309>
LayerCount: 2
Fore
SplineSet
496 886 m 1
 372 719 l 1
 308 719 l 1
 185 886 l 1
 220 886 l 1
 340 783 l 1
 461 886 l 1
 496 886 l 1
16 662 m 1
 286 662 l 2
 415 662 518 630 586 571 c 0
 651 515 685 437 685 334 c 0
 685 215 638 121 549 64 c 0
 487 24 398 0 297 0 c 2
 16 0 l 1
 16 19 l 1
 94 24 104 37 104 115 c 2
 104 550 l 2
 104 629 92 638 16 643 c 1
 16 662 l 1
206 583 m 2
 206 84 l 2
 206 49 215 37 254 37 c 0
 357 37 412 49 472 89 c 0
 542 136 576 215 576 328 c 0
 576 432 544 501 481 556 c 0
 422 608 359 625 259 625 c 0
 221 625 206 616 206 583 c 2
EndSplineSet
EndChar

StartChar: uni010F
Encoding: 271 271 254
Width: 586
Flags: MW
HStem: -10 52<209 240> 432 28<200 255 177.5 265>
VStem: 27 86<183.5 276> 340 84<-7 114 57 114 102 114 114 332 332 358.5 417 573 573 593.5> 565 39<582 587.5>
LayerCount: 2
Fore
SplineSet
492 458 m 1
 483 477 l 1
 537 514 565 550 565 584 c 0
 565 591 559 597 551 597 c 1
 551 597 549 597 544 595 c 1
 538 594 531 593 524 593 c 0
 487 593 465 612 465 644 c 0
 465 678 489 701 524 701 c 0
 569 701 604 662 604 612 c 0
 604 552 559 491 492 458 c 1
491 42 m 1
 344 -10 l 1
 340 -7 l 1
 340 57 l 1
 306 10 268 -10 212 -10 c 0
 101 -10 27 77 27 205 c 0
 27 347 120 460 235 460 c 0
 275 460 302 449 340 417 c 1
 340 573 l 2
 340 614 331 624 294 624 c 0
 286 624 280 624 272 623 c 1
 272 639 l 1
 336 656 371 666 419 683 c 1
 424 681 l 1
 424 114 l 2
 424 68 432 57 468 57 c 0
 473 57 474 57 491 58 c 1
 491 42 l 1
340 102 m 2
 340 332 l 2
 340 385 292 432 238 432 c 0
 162 432 113 358 113 245 c 0
 113 122 167 42 251 42 c 0
 282 42 307 53 325 74 c 0
 334 84 340 95 340 102 c 2
EndSplineSet
EndChar

StartChar: uni0110
Encoding: 272 272 255
Width: 722
Flags: MW
HStem: 0 37<237.5 300> 315 44<21 104 21 104 206 352> 625 37<235.5 286 286 299.5>
LayerCount: 2
Fore
SplineSet
16 662 m 1
 286 662 l 2
 537 662 685 541 685 334 c 0
 685 233 645 140 575 82 c 0
 513 31 411 0 300 0 c 2
 16 0 l 1
 16 19 l 1
 92 24 104 37 104 109 c 2
 104 315 l 1
 21 315 l 1
 21 359 l 1
 104 359 l 1
 104 553 l 2
 104 627 95 636 16 643 c 1
 16 662 l 1
206 315 m 1
 206 78 l 2
 206 46 218 37 257 37 c 0
 345 37 403 49 454 78 c 0
 535 125 576 209 576 327 c 0
 576 436 533 524 454 577 c 0
 406 610 344 625 255 625 c 0
 216 625 206 617 206 586 c 2
 206 359 l 1
 352 359 l 1
 352 315 l 1
 206 315 l 1
EndSplineSet
EndChar

StartChar: uni0111
Encoding: 273 273 256
Width: 500
Flags: MW
HStem: -10 52<209 240> 432 28<200 255 177.5 265> 522 39<165 340 165 340 424 507>
VStem: 27 86<183.5 276> 340 84<-7 114 57 114 102 114 114 332 332 358.5 417 522 561 573 573 593.5>
LayerCount: 2
Fore
SplineSet
507 522 m 1
 424 522 l 1
 424 114 l 2
 424 68 432 57 468 57 c 0
 473 57 474 57 491 58 c 1
 491 42 l 1
 344 -10 l 1
 340 -7 l 1
 340 57 l 1
 306 10 268 -10 212 -10 c 0
 101 -10 27 77 27 205 c 0
 27 347 120 460 235 460 c 0
 275 460 302 449 340 417 c 1
 340 522 l 1
 165 522 l 1
 165 561 l 1
 340 561 l 1
 340 573 l 2
 340 614 331 624 294 624 c 0
 286 624 280 624 272 623 c 1
 272 639 l 1
 336 656 371 666 419 683 c 1
 424 681 l 1
 424 561 l 1
 507 561 l 1
 507 522 l 1
340 102 m 2
 340 332 l 2
 340 385 292 432 238 432 c 0
 162 432 113 358 113 245 c 0
 113 122 167 42 251 42 c 0
 282 42 307 53 325 74 c 0
 334 84 340 95 340 102 c 2
EndSplineSet
EndChar

StartChar: uni0112
Encoding: 274 274 257
Width: 611
Flags: MW
HStem: 0 37<302 338 338 409.5> 327 41<201 352 201 352> 624 38<222 236 236 367> 719 54<150 461 150 461>
LayerCount: 2
Fore
SplineSet
461 719 m 1
 150 719 l 1
 150 773 l 1
 461 773 l 1
 461 719 l 1
597 169 m 1
 551 0 l 1
 12 0 l 1
 12 19 l 1
 89 24 99 37 99 114 c 2
 99 550 l 2
 99 624 87 639 12 643 c 1
 12 662 l 1
 542 662 l 1
 546 519 l 1
 521 519 l 1
 506 609 483 624 367 624 c 2
 236 624 l 2
 208 624 201 620 201 588 c 2
 201 368 l 1
 352 368 l 2
 438 368 453 385 465 464 c 1
 488 464 l 1
 488 230 l 1
 465 230 l 1
 453 314 438 327 352 327 c 2
 201 327 l 1
 201 84 l 2
 201 42 228 37 302 37 c 2
 338 37 l 2
 481 37 524 63 569 169 c 1
 597 169 l 1
EndSplineSet
EndChar

StartChar: uni0113
Encoding: 275 275 258
Width: 444
Flags: MW
HStem: -10 69<231 265> 277 32<99 303 99 405 97 303> 424 36<177 238> 507 54<70 381 70 381>
LayerCount: 2
Fore
SplineSet
381 507 m 1
 70 507 l 1
 70 561 l 1
 381 561 l 1
 381 507 l 1
408 164 m 1
 424 157 l 1
 385 48 315 -10 215 -10 c 0
 97 -10 25 79 25 217 c 0
 25 358 106 460 232 460 c 0
 294 460 339 436 371 391 c 0
 391 363 401 331 405 277 c 1
 97 277 l 1
 102 201 107 162 143 114 c 0
 171 77 208 59 254 59 c 0
 321 59 359 90 408 164 c 1
99 309 m 1
 303 309 l 1
 292 390 271 424 205 424 c 0
 149 424 110 384 99 309 c 1
EndSplineSet
EndChar

StartChar: uni0114
Encoding: 276 276 259
Width: 611
Flags: MW
HStem: 0 37<302 338 338 409.5> 327 41<201 352 201 352> 624 38<222 236 236 367> 719 60<280.5 339 280.5 351>
LayerCount: 2
Fore
SplineSet
423 876 m 1
 452 876 l 1
 440 770 392 719 310 719 c 0
 216 719 171 779 171 876 c 1
 200 876 l 1
 213 813 249 779 312 779 c 0
 366 779 394 805 423 876 c 1
597 169 m 1
 551 0 l 1
 12 0 l 1
 12 19 l 1
 89 24 99 37 99 114 c 2
 99 550 l 2
 99 624 87 639 12 643 c 1
 12 662 l 1
 542 662 l 1
 546 519 l 1
 521 519 l 1
 506 609 483 624 367 624 c 2
 236 624 l 2
 208 624 201 620 201 588 c 2
 201 368 l 1
 352 368 l 2
 438 368 453 385 465 464 c 1
 488 464 l 1
 488 230 l 1
 465 230 l 1
 453 314 438 327 352 327 c 2
 201 327 l 1
 201 84 l 2
 201 42 228 37 302 37 c 2
 338 37 l 2
 481 37 524 63 569 169 c 1
 597 169 l 1
EndSplineSet
EndChar

StartChar: uni0115
Encoding: 277 277 260
Width: 444
Flags: MW
HStem: -10 69<231 265> 277 32<99 303 99 405 97 303> 424 36<177 238> 507 60<190.5 249 190.5 261> 644 20<81 110 110 110 333 362 362 362>
LayerCount: 2
Fore
SplineSet
333 664 m 1
 362 664 l 1
 350 558 302 507 220 507 c 0
 126 507 81 567 81 664 c 1
 110 664 l 1
 123 601 159 567 222 567 c 0
 276 567 304 593 333 664 c 1
408 164 m 1
 424 157 l 1
 385 48 315 -10 215 -10 c 0
 97 -10 25 79 25 217 c 0
 25 358 106 460 232 460 c 0
 294 460 339 436 371 391 c 0
 391 363 401 331 405 277 c 1
 97 277 l 1
 102 201 107 162 143 114 c 0
 171 77 208 59 254 59 c 0
 321 59 359 90 408 164 c 1
99 309 m 1
 303 309 l 1
 292 390 271 424 205 424 c 0
 149 424 110 384 99 309 c 1
EndSplineSet
EndChar

StartChar: uni0116
Encoding: 278 278 261
Width: 611
Flags: MW
HStem: 0 37<302 338 338 409.5> 327 41<201 352 201 352> 624 38<222 236 236 367> 735 99<286.5 313.5>
VStem: 251 99<770.5 797.5>
LayerCount: 2
Fore
SplineSet
350 784 m 0
 350 755 327 735 300 735 c 0
 273 735 251 757 251 784 c 0
 251 811 270 834 300 834 c 0
 331 834 350 812 350 784 c 0
597 169 m 1
 551 0 l 1
 12 0 l 1
 12 19 l 1
 89 24 99 37 99 114 c 2
 99 550 l 2
 99 624 87 639 12 643 c 1
 12 662 l 1
 542 662 l 1
 546 519 l 1
 521 519 l 1
 506 609 483 624 367 624 c 2
 236 624 l 2
 208 624 201 620 201 588 c 2
 201 368 l 1
 352 368 l 2
 438 368 453 385 465 464 c 1
 488 464 l 1
 488 230 l 1
 465 230 l 1
 453 314 438 327 352 327 c 2
 201 327 l 1
 201 84 l 2
 201 42 228 37 302 37 c 2
 338 37 l 2
 481 37 524 63 569 169 c 1
 597 169 l 1
EndSplineSet
EndChar

StartChar: uni0117
Encoding: 279 279 262
Width: 444
Flags: MW
HStem: -10 69<231 265> 277 32<99 303 99 405 97 303> 424 36<177 238> 523 99<226.5 253.5>
VStem: 191 99<558.5 585.5>
LayerCount: 2
Fore
SplineSet
290 572 m 0
 290 543 267 523 240 523 c 0
 213 523 191 545 191 572 c 0
 191 599 210 622 240 622 c 0
 271 622 290 600 290 572 c 0
408 164 m 1
 424 157 l 1
 385 48 315 -10 215 -10 c 0
 97 -10 25 79 25 217 c 0
 25 358 106 460 232 460 c 0
 294 460 339 436 371 391 c 0
 391 363 401 331 405 277 c 1
 97 277 l 1
 102 201 107 162 143 114 c 0
 171 77 208 59 254 59 c 0
 321 59 359 90 408 164 c 1
99 309 m 1
 303 309 l 1
 292 390 271 424 205 424 c 0
 149 424 110 384 99 309 c 1
EndSplineSet
EndChar

StartChar: uni0118
Encoding: 280 280 263
Width: 611
Flags: MW
HStem: -165 56<411 425> 0 37<302 338 338 382> 327 41<201 352 201 352> 624 38<222 236 236 367>
VStem: 328 56<-84 -73>
LayerCount: 2
Fore
SplineSet
382 0 m 1
 12 0 l 1
 12 19 l 1
 89 24 99 37 99 114 c 2
 99 550 l 2
 99 624 87 639 12 643 c 1
 12 662 l 1
 542 662 l 1
 546 519 l 1
 521 519 l 1
 506 609 483 624 367 624 c 2
 236 624 l 2
 208 624 201 620 201 588 c 2
 201 368 l 1
 352 368 l 2
 438 368 453 385 465 464 c 1
 488 464 l 1
 488 230 l 1
 465 230 l 1
 453 314 438 327 352 327 c 2
 201 327 l 1
 201 84 l 2
 201 42 228 37 302 37 c 2
 338 37 l 2
 481 37 524 63 569 169 c 1
 597 169 l 1
 551 0 l 1
 428 0 l 1
 397 -25 384 -47 384 -70 c 0
 384 -98 400 -109 422 -109 c 0
 443 -109 464 -100 493 -73 c 1
 513 -89 l 1
 477 -143 448 -165 402 -165 c 0
 359 -165 328 -138 328 -91 c 0
 328 -55 344 -27 382 0 c 1
EndSplineSet
EndChar

StartChar: uni0119
Encoding: 281 281 264
Width: 444
Flags: MW
HStem: -165 56<264 278> 0 20 277 32<99 303 99 405 97 303> 424 36<177 238>
VStem: 181 56<-84 -75>
LayerCount: 2
Fore
SplineSet
346 -73 m 1
 366 -89 l 1
 330 -143 301 -165 255 -165 c 0
 212 -165 181 -138 181 -91 c 0
 181 -59 193 -34 222 -10 c 1
 220 -10 217 -10 215 -10 c 0
 97 -10 25 79 25 217 c 0
 25 358 106 460 232 460 c 0
 294 460 339 436 371 391 c 0
 391 363 401 331 405 277 c 1
 97 277 l 1
 102 201 107 162 143 114 c 0
 171 77 208 59 254 59 c 0
 321 59 359 90 408 164 c 1
 424 157 l 1
 394 74 346 20 280 0 c 1
 250 -25 237 -47 237 -70 c 0
 237 -98 253 -109 275 -109 c 0
 296 -109 317 -100 346 -73 c 1
99 309 m 1
 303 309 l 1
 292 390 271 424 205 424 c 0
 149 424 110 384 99 309 c 1
EndSplineSet
EndChar

StartChar: uni011A
Encoding: 282 282 265
Width: 611
Flags: MW
HStem: 0 37<302 338 338 409.5> 327 41<201 352 201 352> 624 38<222 236 236 367>
LayerCount: 2
Fore
SplineSet
469 886 m 1
 345 719 l 1
 281 719 l 1
 158 886 l 1
 193 886 l 1
 313 783 l 1
 434 886 l 1
 469 886 l 1
597 169 m 1
 551 0 l 1
 12 0 l 1
 12 19 l 1
 89 24 99 37 99 114 c 2
 99 550 l 2
 99 624 87 639 12 643 c 1
 12 662 l 1
 542 662 l 1
 546 519 l 1
 521 519 l 1
 506 609 483 624 367 624 c 2
 236 624 l 2
 208 624 201 620 201 588 c 2
 201 368 l 1
 352 368 l 2
 438 368 453 385 465 464 c 1
 488 464 l 1
 488 230 l 1
 465 230 l 1
 453 314 438 327 352 327 c 2
 201 327 l 1
 201 84 l 2
 201 42 228 37 302 37 c 2
 338 37 l 2
 481 37 524 63 569 169 c 1
 597 169 l 1
EndSplineSet
EndChar

StartChar: uni011B
Encoding: 283 283 266
Width: 444
Flags: MW
HStem: -10 69<231 265> 277 32<99 303 99 405 97 303> 424 36<177 238> 654 20<85 120 120 120 361 396 396 396>
LayerCount: 2
Fore
SplineSet
396 674 m 1
 272 507 l 1
 208 507 l 1
 85 674 l 1
 120 674 l 1
 240 571 l 1
 361 674 l 1
 396 674 l 1
408 164 m 1
 424 157 l 1
 385 48 315 -10 215 -10 c 0
 97 -10 25 79 25 217 c 0
 25 358 106 460 232 460 c 0
 294 460 339 436 371 391 c 0
 391 363 401 331 405 277 c 1
 97 277 l 1
 102 201 107 162 143 114 c 0
 171 77 208 59 254 59 c 0
 321 59 359 90 408 164 c 1
99 309 m 1
 303 309 l 1
 292 390 271 424 205 424 c 0
 149 424 110 384 99 309 c 1
EndSplineSet
EndChar

StartChar: uni011C
Encoding: 284 284 267
Width: 722
Flags: MW
HStem: -14 40<334 436.5> 636 40<355.5 405 329.5 418>
LayerCount: 2
Fore
SplineSet
509 719 m 1
 475 719 l 1
 353 822 l 1
 232 719 l 1
 198 719 l 1
 322 886 l 1
 384 886 l 1
 509 719 l 1
709 354 m 1
 709 336 l 1
 651 331 639 321 639 256 c 2
 639 56 l 1
 584 11 488 -14 385 -14 c 0
 283 -14 181 24 115 93 c 0
 59 152 32 229 32 327 c 0
 32 437 72 529 139 590 c 0
 199 645 281 676 378 676 c 0
 432 676 466 668 511 653 c 0
 530 646 545 643 555 643 c 0
 576 643 594 657 600 676 c 1
 622 676 l 1
 630 465 l 1
 607 465 l 1
 582 526 566 552 536 581 c 0
 498 617 446 636 390 636 c 0
 321 636 266 611 223 567 c 0
 170 514 146 423 146 324 c 0
 146 138 252 26 409 26 c 0
 486 26 542 54 542 87 c 2
 542 244 l 2
 542 322 532 330 453 336 c 1
 453 354 l 1
 709 354 l 1
EndSplineSet
EndChar

StartChar: uni011D
Encoding: 285 285 268
Width: 500
Flags: MW
HStem: -218 57<199 237> 149 25<247 267.5> 388 39<393 470 393 470 387 470> 432 28<203 241.5> 654 20<218 280 280 280>
VStem: 28 70<-110 -102.5> 329 77<278 284.5> 433 28<-69 -45.5>
LayerCount: 2
Fore
SplineSet
405 507 m 1
 371 507 l 1
 249 610 l 1
 128 507 l 1
 94 507 l 1
 218 674 l 1
 280 674 l 1
 405 507 l 1
470 388 m 1
 387 388 l 1
 401 356 406 333 406 304 c 0
 406 252 390 215 354 188 c 0
 322 164 285 149 250 149 c 0
 244 149 230 150 212 152 c 2
 193 154 l 1
 166 146 133 111 133 91 c 0
 133 75 157 67 211 64 c 2
 340 58 l 2
 414 55 461 13 461 -49 c 0
 461 -89 442 -122 401 -154 c 0
 349 -194 273 -218 201 -218 c 0
 105 -218 28 -174 28 -121 c 0
 28 -84 54 -51 126 1 c 1
 84 21 73 32 73 54 c 0
 73 74 86 94 119 123 c 0
 134 136 148 149 162 163 c 1
 95 196 69 234 69 297 c 0
 69 388 143 460 236 460 c 0
 262 460 289 455 316 445 c 2
 338 437 l 2
 358 430 373 427 393 427 c 2
 470 427 l 1
 470 388 l 1
152 338 m 2
 152 335 l 2
 152 239 193 174 255 174 c 0
 300 174 329 209 329 264 c 0
 329 305 318 350 299 385 c 0
 283 415 257 432 226 432 c 0
 180 432 152 397 152 338 c 2
433 -64 m 0
 433 -27 400 -15 309 -15 c 0
 260 -15 181 -9 147 -2 c 1
 107 -50 98 -65 98 -88 c 0
 98 -132 155 -161 243 -161 c 0
 357 -161 433 -122 433 -64 c 0
EndSplineSet
EndChar

StartChar: uni011E
Encoding: 286 286 269
Width: 722
Flags: MW
HStem: -14 40<334 436.5> 636 40<355.5 405 329.5 418> 719 60<352.5 411 352.5 423>
LayerCount: 2
Fore
SplineSet
495 876 m 1
 524 876 l 1
 512 770 464 719 382 719 c 0
 288 719 243 779 243 876 c 1
 272 876 l 1
 285 813 321 779 384 779 c 0
 438 779 466 805 495 876 c 1
709 354 m 1
 709 336 l 1
 651 331 639 321 639 256 c 2
 639 56 l 1
 584 11 488 -14 385 -14 c 0
 283 -14 181 24 115 93 c 0
 59 152 32 229 32 327 c 0
 32 437 72 529 139 590 c 0
 199 645 281 676 378 676 c 0
 432 676 466 668 511 653 c 0
 530 646 545 643 555 643 c 0
 576 643 594 657 600 676 c 1
 622 676 l 1
 630 465 l 1
 607 465 l 1
 582 526 566 552 536 581 c 0
 498 617 446 636 390 636 c 0
 321 636 266 611 223 567 c 0
 170 514 146 423 146 324 c 0
 146 138 252 26 409 26 c 0
 486 26 542 54 542 87 c 2
 542 244 l 2
 542 322 532 330 453 336 c 1
 453 354 l 1
 709 354 l 1
EndSplineSet
EndChar

StartChar: uni011F
Encoding: 287 287 270
Width: 500
Flags: MW
HStem: -218 57<199 237> 149 25<247 267.5> 388 39<393 470 393 470 387 470> 432 28<203 241.5> 507 60<208.5 267 208.5 279> 644 20<99 128 128 128 351 380 380 380>
VStem: 28 70<-110 -102.5> 329 77<278 284.5> 433 28<-69 -45.5>
LayerCount: 2
Fore
SplineSet
351 664 m 1
 380 664 l 1
 368 558 320 507 238 507 c 0
 144 507 99 567 99 664 c 1
 128 664 l 1
 141 601 177 567 240 567 c 0
 294 567 322 593 351 664 c 1
470 388 m 1
 387 388 l 1
 401 356 406 333 406 304 c 0
 406 252 390 215 354 188 c 0
 322 164 285 149 250 149 c 0
 244 149 230 150 212 152 c 2
 193 154 l 1
 166 146 133 111 133 91 c 0
 133 75 157 67 211 64 c 2
 340 58 l 2
 414 55 461 13 461 -49 c 0
 461 -89 442 -122 401 -154 c 0
 349 -194 273 -218 201 -218 c 0
 105 -218 28 -174 28 -121 c 0
 28 -84 54 -51 126 1 c 1
 84 21 73 32 73 54 c 0
 73 74 86 94 119 123 c 0
 134 136 148 149 162 163 c 1
 95 196 69 234 69 297 c 0
 69 388 143 460 236 460 c 0
 262 460 289 455 316 445 c 2
 338 437 l 2
 358 430 373 427 393 427 c 2
 470 427 l 1
 470 388 l 1
152 338 m 2
 152 335 l 2
 152 239 193 174 255 174 c 0
 300 174 329 209 329 264 c 0
 329 305 318 350 299 385 c 0
 283 415 257 432 226 432 c 0
 180 432 152 397 152 338 c 2
433 -64 m 0
 433 -27 400 -15 309 -15 c 0
 260 -15 181 -9 147 -2 c 1
 107 -50 98 -65 98 -88 c 0
 98 -132 155 -161 243 -161 c 0
 357 -161 433 -122 433 -64 c 0
EndSplineSet
EndChar

StartChar: uni0120
Encoding: 288 288 271
Width: 722
Flags: MW
HStem: -14 40<334 436.5> 636 40<355.5 405 329.5 418> 735 99<356.5 383.5>
VStem: 321 99<770.5 797.5>
LayerCount: 2
Fore
SplineSet
420 784 m 0
 420 755 397 735 370 735 c 0
 343 735 321 757 321 784 c 0
 321 811 340 834 370 834 c 0
 401 834 420 812 420 784 c 0
709 354 m 1
 709 336 l 1
 651 331 639 321 639 256 c 2
 639 56 l 1
 584 11 488 -14 385 -14 c 0
 283 -14 181 24 115 93 c 0
 59 152 32 229 32 327 c 0
 32 437 72 529 139 590 c 0
 199 645 281 676 378 676 c 0
 432 676 466 668 511 653 c 0
 530 646 545 643 555 643 c 0
 576 643 594 657 600 676 c 1
 622 676 l 1
 630 465 l 1
 607 465 l 1
 582 526 566 552 536 581 c 0
 498 617 446 636 390 636 c 0
 321 636 266 611 223 567 c 0
 170 514 146 423 146 324 c 0
 146 138 252 26 409 26 c 0
 486 26 542 54 542 87 c 2
 542 244 l 2
 542 322 532 330 453 336 c 1
 453 354 l 1
 709 354 l 1
EndSplineSet
EndChar

StartChar: uni0121
Encoding: 289 289 272
Width: 500
Flags: MW
HStem: -218 57<199 237> 149 25<247 267.5> 388 39<393 470 393 470 387 470> 432 28<203 241.5> 523 99<236.5 263.5>
VStem: 28 70<-110 -102.5> 201 99<558.5 585.5> 329 77<278 284.5> 433 28<-69 -45.5>
LayerCount: 2
Fore
SplineSet
300 572 m 0
 300 543 277 523 250 523 c 0
 223 523 201 545 201 572 c 0
 201 599 220 622 250 622 c 0
 281 622 300 600 300 572 c 0
470 388 m 1
 387 388 l 1
 401 356 406 333 406 304 c 0
 406 252 390 215 354 188 c 0
 322 164 285 149 250 149 c 0
 244 149 230 150 212 152 c 2
 193 154 l 1
 166 146 133 111 133 91 c 0
 133 75 157 67 211 64 c 2
 340 58 l 2
 414 55 461 13 461 -49 c 0
 461 -89 442 -122 401 -154 c 0
 349 -194 273 -218 201 -218 c 0
 105 -218 28 -174 28 -121 c 0
 28 -84 54 -51 126 1 c 1
 84 21 73 32 73 54 c 0
 73 74 86 94 119 123 c 0
 134 136 148 149 162 163 c 1
 95 196 69 234 69 297 c 0
 69 388 143 460 236 460 c 0
 262 460 289 455 316 445 c 2
 338 437 l 2
 358 430 373 427 393 427 c 2
 470 427 l 1
 470 388 l 1
152 338 m 2
 152 335 l 2
 152 239 193 174 255 174 c 0
 300 174 329 209 329 264 c 0
 329 305 318 350 299 385 c 0
 283 415 257 432 226 432 c 0
 180 432 152 397 152 338 c 2
433 -64 m 0
 433 -27 400 -15 309 -15 c 0
 260 -15 181 -9 147 -2 c 1
 107 -50 98 -65 98 -88 c 0
 98 -132 155 -161 243 -161 c 0
 357 -161 433 -122 433 -64 c 0
EndSplineSet
EndChar

StartChar: uni0122
Encoding: 290 290 273
Width: 722
Flags: MW
HStem: -14 40<334 436.5> 636 40<355.5 405 329.5 418>
VStem: 431 39<-154 -150.5>
LayerCount: 2
Fore
SplineSet
709 354 m 1
 709 336 l 1
 651 331 639 321 639 256 c 2
 639 56 l 1
 584 11 488 -14 385 -14 c 0
 283 -14 181 24 115 93 c 0
 59 152 32 229 32 327 c 0
 32 437 72 529 139 590 c 0
 199 645 281 676 378 676 c 0
 432 676 466 668 511 653 c 0
 530 646 545 643 555 643 c 0
 576 643 594 657 600 676 c 1
 622 676 l 1
 630 465 l 1
 607 465 l 1
 582 526 566 552 536 581 c 0
 498 617 446 636 390 636 c 0
 321 636 266 611 223 567 c 0
 170 514 146 423 146 324 c 0
 146 138 252 26 409 26 c 0
 486 26 542 54 542 87 c 2
 542 244 l 2
 542 322 532 330 453 336 c 1
 453 354 l 1
 709 354 l 1
358 -280 m 1
 348 -261 l 1
 403 -224 431 -187 431 -154 c 0
 431 -147 425 -141 417 -141 c 0
 409 -141 399 -145 388 -145 c 0
 351 -145 330 -128 330 -94 c 0
 330 -60 354 -37 390 -37 c 0
 435 -37 470 -72 470 -124 c 0
 470 -184 427 -247 358 -280 c 1
EndSplineSet
EndChar

StartChar: uni0123
Encoding: 291 291 274
Width: 500
Flags: MW
HStem: -218 57<199 237> 149 25<247 267.5> 388 39<393 470 393 470 387 470> 432 28<203 241.5>
VStem: 28 70<-110 -102.5> 181 39<637 642> 329 77<278 284.5> 433 28<-69 -45.5>
LayerCount: 2
Fore
SplineSet
293 766 m 1
 302 747 l 1
 247 709 220 674 220 641 c 0
 220 633 226 627 234 627 c 1
 234 627 236 627 241 629 c 1
 247 630 254 631 261 631 c 0
 298 631 320 612 320 580 c 0
 320 546 296 523 261 523 c 0
 215 523 181 561 181 612 c 0
 181 672 226 733 293 766 c 1
470 388 m 1
 387 388 l 1
 401 356 406 333 406 304 c 0
 406 252 390 215 354 188 c 0
 322 164 285 149 250 149 c 0
 244 149 230 150 212 152 c 2
 193 154 l 1
 166 146 133 111 133 91 c 0
 133 75 157 67 211 64 c 2
 340 58 l 2
 414 55 461 13 461 -49 c 0
 461 -89 442 -122 401 -154 c 0
 349 -194 273 -218 201 -218 c 0
 105 -218 28 -174 28 -121 c 0
 28 -84 54 -51 126 1 c 1
 84 21 73 32 73 54 c 0
 73 74 86 94 119 123 c 0
 134 136 148 149 162 163 c 1
 95 196 69 234 69 297 c 0
 69 388 143 460 236 460 c 0
 262 460 289 455 316 445 c 2
 338 437 l 2
 358 430 373 427 393 427 c 2
 470 427 l 1
 470 388 l 1
152 338 m 2
 152 335 l 2
 152 239 193 174 255 174 c 0
 300 174 329 209 329 264 c 0
 329 305 318 350 299 385 c 0
 283 415 257 432 226 432 c 0
 180 432 152 397 152 338 c 2
433 -64 m 0
 433 -27 400 -15 309 -15 c 0
 260 -15 181 -9 147 -2 c 1
 107 -50 98 -65 98 -88 c 0
 98 -132 155 -161 243 -161 c 0
 357 -161 433 -122 433 -64 c 0
EndSplineSet
EndChar

StartChar: uni0124
Encoding: 292 292 275
Width: 722
Flags: MW
HStem: 0 20 315 44<209 512 209 512> 642 20<18 298 298 298 423 703 703 703>
LayerCount: 2
Fore
SplineSet
518 719 m 1
 484 719 l 1
 362 822 l 1
 241 719 l 1
 207 719 l 1
 331 886 l 1
 393 886 l 1
 518 719 l 1
703 0 m 1
 424 0 l 1
 424 19 l 1
 502 24 512 40 512 124 c 2
 512 315 l 1
 209 315 l 1
 209 113 l 2
 209 40 222 23 296 19 c 1
 297 0 l 1
 18 0 l 1
 18 19 l 1
 96 24 107 36 107 122 c 2
 107 548 l 2
 107 626 95 637 18 643 c 1
 18 662 l 1
 298 662 l 1
 298 643 l 1
 225 637 209 626 209 548 c 2
 209 359 l 1
 512 359 l 1
 512 548 l 2
 512 627 499 637 423 643 c 1
 423 662 l 1
 703 662 l 1
 703 643 l 1
 629 637 614 625 614 548 c 2
 614 111 l 2
 614 40 628 25 703 19 c 1
 703 0 l 1
EndSplineSet
EndChar

StartChar: uni0125
Encoding: 293 293 276
Width: 500
Flags: MW
HStem: 0 20 406 54<274.5 293.5>
VStem: 73 84<102 343 376 573 573 594.5> 343 84<102 300 300 301>
LayerCount: 2
Fore
SplineSet
376 719 m 1
 342 719 l 1
 220 822 l 1
 99 719 l 1
 65 719 l 1
 189 886 l 1
 251 886 l 1
 376 719 l 1
487 0 m 1
 275 0 l 1
 275 15 l 1
 333 21 343 33 343 102 c 2
 343 300 l 2
 343 370 318 406 269 406 c 0
 229 406 199 389 157 343 c 1
 157 102 l 2
 157 33 167 21 225 15 c 1
 225 0 l 1
 9 0 l 1
 9 15 l 1
 67 23 73 32 73 102 c 2
 73 573 l 2
 73 616 65 624 22 624 c 0
 18 624 13 624 10 623 c 1
 10 639 l 1
 37 647 l 2
 94 664 117 671 152 683 c 1
 157 680 l 1
 157 376 l 1
 203 436 245 460 304 460 c 0
 386 460 427 406 427 301 c 2
 427 102 l 2
 427 33 433 25 487 15 c 1
 487 0 l 1
EndSplineSet
EndChar

StartChar: uni0126
Encoding: 294 294 277
Width: 723
Flags: MW
HStem: 0 20 315 44<208 511 208 511> 476 44<17 106 17 106 208 511 613 701> 642 20<17 297 297 297 422 702 702 702>
LayerCount: 2
Fore
SplineSet
702 0 m 1
 423 0 l 1
 423 19 l 1
 501 24 511 40 511 124 c 2
 511 315 l 1
 208 315 l 1
 208 113 l 2
 208 40 222 23 296 19 c 1
 296 0 l 1
 17 0 l 1
 17 19 l 1
 95 24 106 36 106 122 c 2
 106 476 l 1
 17 476 l 1
 17 520 l 1
 106 520 l 1
 106 548 l 2
 106 626 94 637 17 643 c 1
 17 662 l 1
 297 662 l 1
 297 643 l 1
 224 637 208 626 208 548 c 2
 208 520 l 1
 511 520 l 1
 511 548 l 2
 511 627 498 637 422 643 c 1
 422 662 l 1
 702 662 l 1
 702 643 l 1
 628 637 613 625 613 548 c 2
 613 520 l 1
 701 520 l 1
 701 476 l 1
 613 476 l 1
 613 111 l 2
 613 40 627 25 702 19 c 1
 702 0 l 1
511 359 m 1
 511 476 l 1
 208 476 l 1
 208 359 l 1
 511 359 l 1
EndSplineSet
EndChar

StartChar: uni0127
Encoding: 295 295 278
Width: 500
Flags: MW
HStem: 0 20 406 54<274.5 293.5> 512 54<8 73 8 73 157 319>
VStem: 73 84<102 343 376 512 566 573 573 594.5> 343 84<102 300 300 301>
LayerCount: 2
Fore
SplineSet
487 0 m 1
 275 0 l 1
 275 15 l 1
 333 21 343 33 343 102 c 2
 343 300 l 2
 343 370 318 406 269 406 c 0
 229 406 199 389 157 343 c 1
 157 102 l 2
 157 33 167 21 225 15 c 1
 225 0 l 1
 9 0 l 1
 9 15 l 1
 67 23 73 32 73 102 c 2
 73 512 l 1
 8 512 l 1
 8 566 l 1
 73 566 l 1
 73 573 l 2
 73 616 65 624 22 624 c 0
 18 624 13 624 10 623 c 1
 10 639 l 1
 37 647 l 2
 94 664 117 671 152 683 c 1
 157 680 l 1
 157 566 l 1
 319 566 l 1
 319 512 l 1
 157 512 l 1
 157 376 l 1
 203 436 245 460 304 460 c 0
 386 460 427 406 427 301 c 2
 427 102 l 2
 427 33 433 25 487 15 c 1
 487 0 l 1
EndSplineSet
EndChar

StartChar: uni0128
Encoding: 296 296 279
Width: 333
Flags: MW
HStem: 0 20 642 20<18 315 315 315> 744 56<241.5 253.5> 790 55<77 87>
LayerCount: 2
Fore
SplineSet
302 850 m 1x20
 331 850 l 1
 310 774 281 744 226 744 c 0xe0
 201 744 186 748 145 768 c 2
 122 779 l 2
 107 786 93 790 81 790 c 0x10
 58 790 41 775 30 744 c 1
 1 744 l 1x20
 16 809 52 845 102 845 c 0x10
 124 845 148 839 172 827 c 2
 196 815 l 2
 215 805 234 800 249 800 c 0
 272 800 285 813 302 850 c 1x20
315 0 m 1
 18 0 l 1
 18 19 l 1
 102 22 115 34 115 112 c 2
 115 551 l 2
 115 630 103 638 18 643 c 1
 18 662 l 1
 315 662 l 1
 315 643 l 1
 231 639 217 627 217 551 c 2
 217 112 l 2
 217 37 233 22 315 19 c 1
 315 0 l 1
EndSplineSet
EndChar

StartChar: uni0129
Encoding: 297 297 280
Width: 278
Flags: MW
HStem: 0 20 532 56<215.5 227.5> 578 55<51 61>
VStem: 95 84<104 105 105 331 331 354.5>
LayerCount: 2
Fore
SplineSet
276 638 m 1x50
 305 638 l 1
 284 562 255 532 200 532 c 0xd0
 175 532 160 536 119 556 c 2
 96 567 l 2
 81 574 67 578 55 578 c 0x30
 32 578 15 563 4 532 c 1
 -25 532 l 1x50
 -10 597 26 633 76 633 c 0x30
 98 633 122 627 146 615 c 2
 170 603 l 2
 189 593 208 588 223 588 c 0
 246 588 259 601 276 638 c 1x50
253 0 m 1
 16 0 l 1
 16 15 l 1
 85 19 95 28 95 104 c 2
 95 331 l 2
 95 378 87 394 62 394 c 0
 53 394 38 394 20 389 c 1
 20 405 l 1
 174 460 l 1
 179 456 l 1
 179 105 l 2
 179 31 187 20 253 15 c 1
 253 0 l 1
EndSplineSet
EndChar

StartChar: uni012A
Encoding: 298 298 281
Width: 333
Flags: MW
HStem: 0 20 642 20<18 315 315 315> 719 54<11 322 11 322>
LayerCount: 2
Fore
SplineSet
322 719 m 1
 11 719 l 1
 11 773 l 1
 322 773 l 1
 322 719 l 1
315 0 m 1
 18 0 l 1
 18 19 l 1
 102 22 115 34 115 112 c 2
 115 551 l 2
 115 630 103 638 18 643 c 1
 18 662 l 1
 315 662 l 1
 315 643 l 1
 231 639 217 627 217 551 c 2
 217 112 l 2
 217 37 233 22 315 19 c 1
 315 0 l 1
EndSplineSet
EndChar

StartChar: uni012B
Encoding: 299 299 282
Width: 278
Flags: MW
HStem: 0 20 507 54<-21 290 -21 290>
VStem: 95 84<104 105 105 331 331 354.5>
LayerCount: 2
Fore
SplineSet
290 507 m 1
 -21 507 l 1
 -21 561 l 1
 290 561 l 1
 290 507 l 1
253 0 m 1
 16 0 l 1
 16 15 l 1
 85 19 95 28 95 104 c 2
 95 331 l 2
 95 378 87 394 62 394 c 0
 53 394 38 394 20 389 c 1
 20 405 l 1
 174 460 l 1
 179 456 l 1
 179 105 l 2
 179 31 187 20 253 15 c 1
 253 0 l 1
EndSplineSet
EndChar

StartChar: uni012C
Encoding: 300 300 283
Width: 333
Flags: MW
HStem: 0 20 642 20<18 315 315 315> 719 60<133.5 192 133.5 204>
LayerCount: 2
Fore
SplineSet
276 876 m 1
 305 876 l 1
 293 770 245 719 163 719 c 0
 69 719 24 779 24 876 c 1
 53 876 l 1
 66 813 102 779 165 779 c 0
 219 779 247 805 276 876 c 1
315 0 m 1
 18 0 l 1
 18 19 l 1
 102 22 115 34 115 112 c 2
 115 551 l 2
 115 630 103 638 18 643 c 1
 18 662 l 1
 315 662 l 1
 315 643 l 1
 231 639 217 627 217 551 c 2
 217 112 l 2
 217 37 233 22 315 19 c 1
 315 0 l 1
EndSplineSet
EndChar

StartChar: uni012D
Encoding: 301 301 284
Width: 278
Flags: MW
HStem: 0 20 507 60<108.5 167 108.5 179> 644 20<-1 28 28 28 251 280 280 280>
VStem: 95 84<104 105 105 331 331 354.5>
LayerCount: 2
Fore
SplineSet
251 664 m 1
 280 664 l 1
 268 558 220 507 138 507 c 0
 44 507 -1 567 -1 664 c 1
 28 664 l 1
 41 601 77 567 140 567 c 0
 194 567 222 593 251 664 c 1
253 0 m 1
 16 0 l 1
 16 15 l 1
 85 19 95 28 95 104 c 2
 95 331 l 2
 95 378 87 394 62 394 c 0
 53 394 38 394 20 389 c 1
 20 405 l 1
 174 460 l 1
 179 456 l 1
 179 105 l 2
 179 31 187 20 253 15 c 1
 253 0 l 1
EndSplineSet
EndChar

StartChar: uni012E
Encoding: 302 302 285
Width: 333
Flags: MW
HStem: -165 56<203 217> 0 20 642 20<18 315 315 315>
VStem: 120 56<-84 -73>
LayerCount: 2
Fore
SplineSet
174 0 m 1
 18 0 l 1
 18 19 l 1
 102 22 115 34 115 112 c 2
 115 551 l 2
 115 630 103 638 18 643 c 1
 18 662 l 1
 315 662 l 1
 315 643 l 1
 231 639 217 627 217 551 c 2
 217 112 l 2
 217 37 233 22 315 19 c 1
 315 0 l 1
 220 0 l 1
 189 -25 176 -47 176 -70 c 0
 176 -98 192 -109 214 -109 c 0
 235 -109 256 -100 285 -73 c 1
 305 -89 l 1
 269 -143 240 -165 194 -165 c 0
 151 -165 120 -138 120 -91 c 0
 120 -55 136 -27 174 0 c 1
EndSplineSet
EndChar

